<svg id="Capa_1" xmlns="http://www.w3.org/2000/svg" viewBox="0 0 100 100"><style>path { fill: #FFF; color: #FFF; }</style><path d="M50 80h-.5C30.6 80 13.4 72.9.4 61.1c-1-.9-.1-2.2 1.1-1.5C16.1 68 33 72.8 50.9 72.8c0 0 .1.1.2.1 13.3-.1 26.2-2.8 37.7-7.7 1.8-.8 3.4 1.2 1.6 2.6C79.5 75.7 63.6 80 50 80zM29.9 47.8c0 .4-.3.8-.6 1l-2 1.4c-.3.2-.6.3-.9.3-.1 0-1.3.3-3.2-4-2.2 2.8-5.7 4.6-9.6 4.6h-.2c-2.5.1-9.4-1.4-9.1-8.8-.2-6 5.3-9.7 11.1-9.4 1.1 0 3.4.1 7.3 1v-2.4c.4-4.1-2.3-7.3-7-6.9-.4 0-3-.1-7.2 1.6-1.1.5-1.3.4-1.7.4-1.2 0-.7-3.4-.5-3.8.8-1 5.6-2.9 10.3-2.8h1.1c2.9 0 5.6 1 7.6 2.7 1.7 1.9 2.8 4.5 2.8 7.3V41.7c0 3.6 1.7 5.1 1.8 6.1zM22.4 42c.4-1.6.3-2.6.3-4.3-1.5-.3-3.7-.7-6.2-.7-2.4-.2-6.7.9-6.5 5-.2 2.6 1.7 4.9 4.7 4.8 5.1-.1 7.2-3.1 7.7-4.8zm17 6.8L31.6 23c-.2-.4-.3-.9-.3-1.3v-.1c0-.4.3-.7.6-.7h3.5c1.4-.1 1.8.9 2 1.6l5.6 22 5.2-22c.1-.5.5-1.7 2-1.6h2.7c.3 0 1.7-.1 2 1.6L60 44.8l5.8-22.3c.1-.3.4-1.8 2-1.6h3.1c.1 0 1-.1.8 1.3-.1.3.5-1.7-8.2 26.5-.2.9-.8 1.7-2 1.6h-2.9c-1.7.2-2-1.5-2-1.7l-5.2-21.4-5.1 21.4c0 .2-.3 1.9-2 1.7h-2.9c-1.2.2-1.8-.7-2-1.5zm35.8.5c-.7-.3-1.2-1-1.2-1.8v-1.7c0-1.3 1-1.1 1.4-.9 1.6.6 2.6 1.1 4.5 1.5 5.7 1.2 8.2-.4 8.9-.7 2.1-1.2 2.2-4 .8-5.5-1.6-1.4-2.4-1.4-8.3-3.3-.7-.2-6.8-2.1-6.8-8.2-.1-4.4 3.9-8.8 10.9-8.7 2 0 7.3.6 8.7 2.4.2.3.3.7.3 1.1v1.6c0 .7-.3 1-.8 1-1.2-.1-3.3-1.7-7.7-1.7-1.1-.1-6.2.1-6 3.9-.1 3 4.2 4.1 4.6 4.2 5.7 1.7 7.6 2 9.9 4.6 2.7 3.5 1.2 7.5.7 8.7-3 5.9-10.7 5.4-10.8 5.4-1.1.1-5.5 0-9.1-1.9zm7 12.7c-1.1.1-1.2-.8-.3-1.5 6.3-4.4 16.5-3.1 17.7-1.7 1.2 1.5-.3 11.8-6.2 16.7-.9.8-1.8.4-1.4-.6 1.3-3.3 4.3-10.7 2.9-12.5-1.3-1.8-9.2-.8-12.7-.4z"/></svg>