<?xml version="1.0" encoding="utf-8"?>
<!-- Generator: Adobe Illustrator 16.0.0, SVG Export Plug-In . SVG Version: 6.00 Build 0)  -->
<!DOCTYPE svg PUBLIC "-//W3C//DTD SVG 1.1//EN" "http://www.w3.org/Graphics/SVG/1.1/DTD/svg11.dtd">
<svg version="1.1" id="Capa_1" xmlns="http://www.w3.org/2000/svg" xmlns:xlink="http://www.w3.org/1999/xlink" x="0px" y="0px"
	 width="100px" height="100px" viewBox="0 0 100 100" enable-background="new 0 0 100 100" xml:space="preserve">
<defs>
	<filter id="Adobe_OpacityMaskFilter" filterUnits="userSpaceOnUse" x="-960" y="0" width="100" height="100">
		<feFlood  style="flood-color:white;flood-opacity:1" result="back"/>
		<feBlend  in="SourceGraphic" in2="back" mode="normal"/>
	</filter>
</defs>
<mask maskUnits="userSpaceOnUse" x="-960" y="0" width="100" height="100" id="SVGID_1_">
	<g filter="url(#Adobe_OpacityMaskFilter)">
		<path d="M-910,31.063c21.424,0,37.899,9.024,37.899,18.938S-888.588,68.938-910,68.938c-21.424,0-37.899-9.024-37.899-18.938
			S-931.412,31.063-910,31.063 M-910,28.962c-22.087,0-40,9.413-40,21.038s17.913,21.038,40,21.038s40-9.413,40-21.038
			S-887.913,28.962-910,28.962z M-922.726,48.313c-0.986,5.063-4.476,4.538-8.761,4.538l1.712-8.826
			C-925.024,44.024-921.799,43.513-922.726,48.313z M-937.826,61.788h4.587l1.09-5.601c5.136,0,8.323,0.375,11.274-2.388
			c3.261-3,4.114-8.338,1.788-11.014c-1.212-1.399-3.163-2.086-5.813-2.086h-8.837L-937.826,61.788z M-914.611,35.087h4.56
			l-1.084,5.601c3.935,0,7.584-0.288,9.348,1.337c1.851,1.699,0.963,3.875-1.038,14.139h-4.622
			c1.924-9.926,2.286-10.752,1.587-11.502c-0.677-0.724-2.212-0.574-5.927-0.574l-2.351,12.076h-4.56L-914.611,35.087
			L-914.611,35.087z M-886.875,48.313c-1,5.137-4.587,4.538-8.764,4.538l1.715-8.826C-889.149,44.024-885.951,43.513-886.875,48.313
			z M-901.976,61.788h4.601l1.087-5.601c5.402,0,8.389,0.313,11.274-2.388c3.264-3,4.114-8.338,1.788-11.014
			c-1.212-1.399-3.163-2.086-5.813-2.086h-8.837L-901.976,61.788z"/>
	</g>
</mask>
<rect x="-960" mask="url(#SVGID_1_)" fill="#D1A93D" width="100" height="100"/>
<defs>
	<filter id="Adobe_OpacityMaskFilter_1_" filterUnits="userSpaceOnUse" x="-1680" y="0" width="100" height="100">
		<feFlood  style="flood-color:white;flood-opacity:1" result="back"/>
		<feBlend  in="SourceGraphic" in2="back" mode="normal"/>
	</filter>
</defs>
<mask maskUnits="userSpaceOnUse" x="-1680" y="0" width="100" height="100" id="SVGID_2_">
	<g filter="url(#Adobe_OpacityMaskFilter_1_)">
		<g>
			<path d="M-1614.055,56.932c0.542,0.406,1.016,1.016,1.422,1.828c0.813,1.558,1.05,3.352,0.711,5.383
				c-0.474,2.708-2.065,4.57-4.773,5.586c-0.542,1.219-1.286,2.234-2.234,3.047c-1.286,1.151-2.81,1.794-4.57,1.93
				c-1.625,1.354-3.792,2.031-6.5,2.031s-4.841-0.644-6.398-1.93c-1.761-0.203-3.284-0.88-4.57-2.031
				c-0.948-0.813-1.727-1.828-2.336-3.047c-2.708-1.016-4.3-2.878-4.773-5.586c-0.271-1.422-0.203-2.776,0.203-4.063
				c0.271-0.88,0.677-1.659,1.219-2.336l0.711-0.813c0.136,0.88,0.423,1.71,0.863,2.488s0.965,1.438,1.574,1.98
				c0.271-1.828,0.406-3.927,0.406-6.297c0-0.678-0.169-1.287-0.508-1.828c-0.271-0.406-0.508-0.678-0.711-0.813l-0.813-0.508
				c-1.286-0.678-2.2-1.252-2.742-1.727c-0.948-0.813-1.422-1.727-1.422-2.742c0-0.677,0.203-1.287,0.609-1.828
				c0.203-0.271,0.542-0.576,1.016-0.914l0.203-0.203c0.271-0.203,0.406-0.373,0.406-0.508c0.203-0.406,0.321-1.083,0.355-2.031
				s-0.017-1.523-0.152-1.727c-0.271-0.338-0.542-0.779-0.813-1.32c-0.474-1.016-0.609-1.913-0.406-2.691s0.677-1.337,1.422-1.676
				c0.542-0.271,1.219-0.44,2.031-0.508l0.102-0.609c0.067-0.338,0.102-0.609,0.102-0.813c-0.067-0.609-0.169-0.982-0.305-1.117
				c-0.339-0.542-0.914-1.016-1.727-1.422c-0.609-0.271-1.016-0.406-1.219-0.406l-1.219-0.203l0.813-1.016
				c0.339-0.271,0.778-0.542,1.32-0.813c1.016-0.609,2.133-0.914,3.352-0.914c0.813,0,1.625,0.135,2.438,0.406
				c1.828,0.542,3.521,1.862,5.078,3.961l0.609-0.203c-0.067-0.813,0.102-1.625,0.508-2.438c0.271-0.677,0.66-1.252,1.168-1.727
				s0.897-0.711,1.168-0.711v0.305c0.067,1.354,0.305,2.167,0.711,2.438c0.271-1.896,1.591-3.25,3.961-4.063
				c-0.406,1.151-0.339,2.404,0.203,3.758c0.609-0.542,1.219-0.948,1.828-1.219c0.406-0.203,0.778-0.305,1.117-0.305h0.508
				l-0.609,1.32c-0.406,1.016-0.508,1.862-0.305,2.539l0.914,0.305c1.558-2.099,3.25-3.419,5.078-3.961
				c0.813-0.271,1.642-0.406,2.488-0.406s1.676,0.135,2.488,0.406c0.542,0.203,1.05,0.508,1.523,0.914
				c0.406,0.203,0.609,0.338,0.609,0.406l0.813,1.016l-1.219,0.203c-0.203,0-0.609,0.135-1.219,0.406
				c-0.813,0.338-1.388,0.813-1.727,1.422c-0.136,0.135-0.203,0.508-0.203,1.117c-0.067,0.203-0.034,0.474,0.102,0.813v0.609
				c0.813,0,1.489,0.169,2.031,0.508c0.745,0.338,1.219,0.897,1.422,1.676s0.067,1.676-0.406,2.691
				c-0.271,0.609-0.508,1.033-0.711,1.27s-0.288,0.83-0.254,1.777s0.152,1.625,0.355,2.031c0.067,0.135,0.203,0.305,0.406,0.508
				l0.203,0.102c0.474,0.406,0.813,0.745,1.016,1.016c0.406,0.542,0.609,1.151,0.609,1.828c0,1.016-0.474,1.93-1.422,2.742
				c-0.542,0.474-1.456,1.049-2.742,1.727l-0.813,0.406c-0.203,0.203-0.44,0.508-0.711,0.914c-0.339,0.541-0.508,1.15-0.508,1.828
				c0,2.37,0.136,4.469,0.406,6.297C-1615.07,60.182-1614.258,58.692-1614.055,56.932z M-1643.609,51.143
				c0.474,0.271,0.897,0.711,1.27,1.32s0.593,1.32,0.66,2.133c0.136,1.692,0.034,4.266-0.305,7.719
				c1.016,0.406,2.336,0.644,3.961,0.711c0.271-0.474,0.474-0.914,0.609-1.32l1.117-2.844c0.745-1.828,1.253-3.013,1.523-3.555
				c-0.406,2.979-1.185,6.026-2.336,9.141c0.406-0.067,0.813-0.102,1.219-0.102h11.883c0.406,0,0.778,0.034,1.117,0.102
				c-1.151-3.114-1.93-6.128-2.336-9.039c0.271,0.474,0.778,1.625,1.523,3.453l1.117,2.844c0.136,0.406,0.339,0.847,0.609,1.32
				c1.625-0.067,2.945-0.305,3.961-0.711c-0.339-3.453-0.44-6.026-0.305-7.719c0.067-0.813,0.288-1.523,0.66-2.133
				s0.796-1.049,1.27-1.32l0.813-0.508c1.016-0.542,1.727-0.982,2.133-1.32c0.677-0.542,1.016-1.1,1.016-1.676
				s-0.085-0.982-0.254-1.219s-0.39-0.457-0.66-0.66l-0.305-0.305c0.136,0.88,0.237,1.388,0.305,1.523l-0.406-0.508
				c-0.203-0.406-0.406-0.88-0.609-1.422c-0.271-0.813-0.474-1.659-0.609-2.539c-0.067-0.609-0.051-1.371,0.051-2.285
				s0.254-1.608,0.457-2.082v1.422l0.203-0.203c0.271-0.271,0.508-0.643,0.711-1.117c0.271-0.609,0.355-1.117,0.254-1.523
				s-0.339-0.694-0.711-0.863s-0.897-0.254-1.574-0.254c-0.948,0-2.065,0.203-3.352,0.609c-1.761,0.542-3.927,1.828-6.5,3.859
				l-0.609,0.406l0.406-0.609c0.339-0.609,0.813-1.219,1.422-1.828c1.219-1.287,2.539-2.268,3.961-2.945
				c-0.339-0.406-1.083-0.914-2.234-1.523c-2.167-1.016-4.672-1.523-7.516-1.523s-5.349,0.508-7.516,1.523
				c-1.151,0.609-1.896,1.151-2.234,1.625c1.422,0.609,2.742,1.557,3.961,2.844c0.609,0.609,1.083,1.219,1.422,1.828l0.406,0.609
				l-0.609-0.406c-2.573-2.031-4.739-3.318-6.5-3.859c-1.286-0.406-2.403-0.609-3.352-0.609c-0.677,0-1.202,0.084-1.574,0.254
				s-0.609,0.457-0.711,0.863s0.017,0.914,0.355,1.523c0.203,0.406,0.406,0.779,0.609,1.117l0.203,0.203v-1.422
				c0.203,0.406,0.355,1.083,0.457,2.031s0.118,1.727,0.051,2.336c-0.067,0.88-0.271,1.727-0.609,2.539
				c-0.136,0.542-0.339,1.016-0.609,1.422l-0.406,0.508c0.136-0.135,0.237-0.643,0.305-1.523l-0.305,0.305
				c-0.271,0.203-0.474,0.423-0.609,0.66s-0.203,0.643-0.203,1.219s0.305,1.134,0.914,1.676c0.406,0.338,1.117,0.779,2.133,1.32
				l0.102,0.102C-1643.981,50.939-1643.745,51.074-1643.609,51.143z M-1645.945,65.869c0.542,0.948,1.354,1.676,2.438,2.184
				s2.234,0.762,3.453,0.762c-0.474-1.354-0.339-2.438,0.406-3.25l0.914-1.117c-1.692-0.067-3.183-0.406-4.469-1.016
				c-1.558-0.813-2.606-2.031-3.148-3.656c-0.339,0.339-0.474,1.151-0.406,2.438C-1646.758,63.702-1646.487,64.921-1645.945,65.869z
				 M-1644.828,29.307c0.271,0,0.575-0.034,0.914-0.102c1.083,0,2.031,0.305,2.844,0.914c1.016,0.745,1.727,1.523,2.133,2.336
				l1.219-0.609c-1.151-1.76-2.438-2.844-3.859-3.25c-0.542-0.203-1.117-0.305-1.727-0.305c-0.88,0-1.727,0.169-2.539,0.508
				C-1645.505,28.934-1645.167,29.104-1644.828,29.307z M-1643.305,43.932c0.067-0.609,0.305-1.016,0.711-1.219
				c-0.474-0.135-0.914-0.271-1.32-0.406c1.828-0.406,3.656-0.135,5.484,0.813c1.083,0.609,2.065,1.422,2.945,2.438
				c0.474,0.609,1.05,0.982,1.727,1.117c0.406,0.068,0.847,0.068,1.32,0l0.609-0.203c0,0.542-0.22,0.999-0.66,1.371
				s-0.965,0.559-1.574,0.559c0.067,0.677-0.136,1.422-0.609,2.234l-0.711,1.117c0.339-1.016,0.406-1.896,0.203-2.641l-0.305-0.813
				c-0.813,0.745-1.896,0.948-3.25,0.609c-1.016-0.271-1.794-0.677-2.336-1.219c-0.813-0.88-1.253-2.031-1.32-3.453
				c-0.203,0.406-0.339,0.948-0.406,1.625l-0.305-0.508C-1643.237,44.879-1643.305,44.406-1643.305,43.932z M-1640.359,33.369
				c-0.271-1.016-0.694-1.76-1.27-2.234s-1.27-0.711-2.082-0.711l0.305,0.305c0.203,0.406,0.339,1.016,0.406,1.828
				s0.203,1.388,0.406,1.727l1.219,0.305C-1641.172,34.182-1640.833,33.775-1640.359,33.369z M-1641.273,70.236
				c0.813,1.219,1.828,2.099,3.047,2.641c-0.406-0.609-0.813-1.388-1.219-2.336C-1640.122,70.474-1640.731,70.372-1641.273,70.236z
				 M-1640.359,43.729c-0.203,0.609-0.254,1.287-0.152,2.031s0.39,1.287,0.863,1.625c0.677,0.542,1.422,0.745,2.234,0.609
				c0.542,0,1.083-0.169,1.625-0.508c-0.406-0.542-1.032-1.151-1.879-1.828S-1639.411,44.338-1640.359,43.729z M-1630,75.314
				c4.198,0,7.075-2.2,8.633-6.602c0.339-1.016,0.305-1.777-0.102-2.285s-1.253-0.762-2.539-0.762h-11.984
				c-1.286,0-2.133,0.254-2.539,0.762s-0.44,1.304-0.102,2.387C-1637.075,73.147-1634.198,75.314-1630,75.314z M-1632.336,67.494
				c-0.203-0.203-0.508-0.305-0.914-0.305h-2.945c-0.474,0-0.813,0.102-1.016,0.305s-0.237,0.474-0.102,0.813
				c0.271,0.677,0.745,1.32,1.422,1.93c0.339,0.271,0.728,0.406,1.168,0.406s0.829-0.136,1.168-0.406
				c0.609-0.677,1.05-1.354,1.32-2.031C-1632.167,67.935-1632.2,67.697-1632.336,67.494z M-1632.742,42.002l0.914,0.914
				c0.677,0.609,1.286,0.914,1.828,0.914s1.151-0.305,1.828-0.914l0.914-0.914c-0.88,0.542-1.794,0.813-2.742,0.813
				S-1631.862,42.543-1632.742,42.002z M-1625.938,48.4c-0.609,0-1.134-0.186-1.574-0.559s-0.66-0.83-0.66-1.371h0.102
				c0.271,0.203,0.644,0.305,1.117,0.305c0.948,0,1.761-0.406,2.438-1.219c0.88-1.016,1.862-1.828,2.945-2.438
				c1.828-0.948,3.656-1.219,5.484-0.813c-0.406,0.135-0.847,0.271-1.32,0.406c0.406,0.203,0.644,0.609,0.711,1.219
				c0,0.474-0.067,0.948-0.203,1.422l-0.305,0.508c-0.067-0.609-0.203-1.151-0.406-1.625c-0.136,1.422-0.575,2.573-1.32,3.453
				c-0.542,0.542-1.32,0.948-2.336,1.219c-1.286,0.338-2.37,0.135-3.25-0.609l-0.305,0.813c-0.136,0.474-0.136,1.049,0,1.727
				l0.305,0.914l-0.813-1.117C-1625.802,49.822-1626.005,49.078-1625.938,48.4z M-1622.789,67.494
				c-0.203-0.136-0.508-0.237-0.914-0.305h-3.047c-0.406,0-0.694,0.102-0.863,0.305s-0.22,0.44-0.152,0.711
				c0.271,0.609,0.711,1.253,1.32,1.93c0.339,0.339,0.728,0.508,1.168,0.508s0.829-0.169,1.168-0.508
				c0.677-0.542,1.151-1.151,1.422-1.828C-1622.552,67.968-1622.586,67.697-1622.789,67.494z M-1624.109,47.486v0.102h-0.102
				c0.542,0.271,1.05,0.44,1.523,0.508c0.88,0.068,1.659-0.169,2.336-0.711c0.474-0.338,0.762-0.88,0.863-1.625
				s0.051-1.422-0.152-2.031c-0.948,0.609-1.845,1.252-2.691,1.93S-1623.771,46.945-1624.109,47.486z M-1618.422,28.596
				c-1.422,0.406-2.708,1.49-3.859,3.25l1.219,0.609c0.406-0.813,1.117-1.591,2.133-2.336c0.813-0.609,1.761-0.914,2.844-0.914
				c0.339,0,0.644,0.034,0.914,0.102c0.339-0.203,0.677-0.373,1.016-0.508c-0.813-0.338-1.659-0.508-2.539-0.508
				C-1617.305,28.291-1617.88,28.393-1618.422,28.596z M-1621.773,72.877c1.219-0.542,2.269-1.422,3.148-2.641
				c-0.677,0.136-1.32,0.203-1.93,0.203C-1620.961,71.455-1621.367,72.268-1621.773,72.877z M-1614.055,65.869
				c0.542-0.948,0.847-2.133,0.914-3.555c0-1.354-0.169-2.167-0.508-2.438c-0.474,1.558-1.523,2.742-3.148,3.555
				c-1.219,0.609-2.675,0.948-4.367,1.016l0.813,1.117c0.745,0.813,0.88,1.896,0.406,3.25c1.219,0,2.37-0.254,3.453-0.762
				S-1614.597,66.817-1614.055,65.869z M-1616.289,30.424c-0.745,0-1.422,0.237-2.031,0.711s-1.05,1.219-1.32,2.234
				c0.406,0.406,0.745,0.813,1.016,1.219l1.219-0.305c0.203-0.338,0.339-0.931,0.406-1.777s0.203-1.439,0.406-1.777
				L-1616.289,30.424z"/>
		</g>
	</g>
</mask>
<rect x="-1680" mask="url(#SVGID_2_)" fill="#D1A93D" width="100" height="100"/>
<defs>
	<filter id="Adobe_OpacityMaskFilter_2_" filterUnits="userSpaceOnUse" x="-1560" y="0" width="100" height="100">
		<feFlood  style="flood-color:white;flood-opacity:1" result="back"/>
		<feBlend  in="SourceGraphic" in2="back" mode="normal"/>
	</filter>
</defs>
<mask maskUnits="userSpaceOnUse" x="-1560" y="0" width="100" height="100" id="SVGID_3_">
	<g filter="url(#Adobe_OpacityMaskFilter_2_)">
		<g>
			<path d="M-1529.5,27.986h39l-3.555,40.219L-1510,73.486l-15.945-5.281L-1529.5,27.986z M-1498.219,40.986l0.508-4.875h-24.477
				l1.219,14.828h16.961l-0.609,6.297l-5.383,1.422l-5.484-1.422l-0.305-3.859h-4.875l0.609,7.719l10.156,2.742l9.953-2.742
				l1.32-15.133h-17.773l-0.508-4.977H-1498.219z"/>
		</g>
	</g>
</mask>
<rect x="-1560" mask="url(#SVGID_3_)" fill="#D1A93D" width="100" height="100"/>
<defs>
	<filter id="Adobe_OpacityMaskFilter_3_" filterUnits="userSpaceOnUse" x="-1440" y="0" width="100" height="100">
		<feFlood  style="flood-color:white;flood-opacity:1" result="back"/>
		<feBlend  in="SourceGraphic" in2="back" mode="normal"/>
	</filter>
</defs>
<mask maskUnits="userSpaceOnUse" x="-1440" y="0" width="100" height="100" id="SVGID_4_">
	<g filter="url(#Adobe_OpacityMaskFilter_3_)">
		<g>
			<path d="M-1409.5,27.986h39l-3.555,40.219L-1390,73.486l-15.945-5.281L-1409.5,27.986z M-1377.711,36.111h-24.578l0.609,4.773
				h12.492l-12.086,5.078l0.406,4.672h16.859l-0.406,6.297l-5.484,1.523l-5.383-1.32l-0.305-3.859h-4.977l0.609,7.516l10.055,2.945
				l9.953-2.945l1.32-14.828h-11.273l11.68-5.078L-1377.711,36.111z"/>
		</g>
	</g>
</mask>
<rect x="-1440" mask="url(#SVGID_4_)" fill="#D1A93D" width="100" height="100"/>
<defs>
	<filter id="Adobe_OpacityMaskFilter_4_" filterUnits="userSpaceOnUse" x="-1320" y="0" width="100" height="100">
		<feFlood  style="flood-color:white;flood-opacity:1" result="back"/>
		<feBlend  in="SourceGraphic" in2="back" mode="normal"/>
	</filter>
</defs>
<mask maskUnits="userSpaceOnUse" x="-1320" y="0" width="100" height="100" id="SVGID_5_">
	<g filter="url(#Adobe_OpacityMaskFilter_4_)">
		<g>
			<path d="M-1252.125,27.986c1.354,0,2.505,0.474,3.453,1.422s1.422,2.099,1.422,3.453v35.75c0,1.354-0.474,2.505-1.422,3.453
				s-2.099,1.422-3.453,1.422h-35.75c-1.354,0-2.505-0.474-3.453-1.422s-1.422-2.099-1.422-3.453v-35.75
				c0-1.354,0.474-2.505,1.422-3.453s2.099-1.422,3.453-1.422H-1252.125z M-1267.969,63.432V48.908h-4.266v14.523
				c0,1.016-0.203,1.71-0.609,2.082s-0.965,0.559-1.676,0.559s-1.27-0.203-1.676-0.609c-0.339-0.271-0.711-0.778-1.117-1.523
				l-3.453,2.031c1.219,2.641,3.352,3.961,6.398,3.961c1.964,0,3.521-0.542,4.672-1.625S-1267.969,65.599-1267.969,63.432z
				 M-1257.914,69.932c2.099,0,3.809-0.524,5.129-1.574s1.98-2.522,1.98-4.418c0-1.692-0.474-3.047-1.422-4.063
				c-0.88-0.88-2.302-1.761-4.266-2.641l-1.016-0.406c-1.016-0.474-1.71-0.88-2.082-1.219s-0.559-0.795-0.559-1.371
				s0.187-1.033,0.559-1.371s0.863-0.508,1.473-0.508s1.134,0.135,1.574,0.406s0.829,0.744,1.168,1.422l3.352-2.133
				c-0.677-1.219-1.507-2.099-2.488-2.641s-2.184-0.813-3.605-0.813c-1.896,0-3.419,0.542-4.57,1.625
				c-1.151,1.084-1.727,2.438-1.727,4.063s0.474,2.979,1.422,4.063c0.813,0.88,2.065,1.659,3.758,2.336l1.016,0.508
				c1.219,0.542,1.997,0.948,2.336,1.219c0.542,0.406,0.813,0.931,0.813,1.574s-0.271,1.168-0.813,1.574s-1.253,0.609-2.133,0.609
				c-1.692,0-3.081-0.88-4.164-2.641l-3.453,2.031c0.677,1.286,1.625,2.336,2.844,3.148
				C-1261.435,69.525-1259.81,69.932-1257.914,69.932z"/>
		</g>
	</g>
</mask>
<rect x="-1320" mask="url(#SVGID_5_)" fill="#D1A93D" width="100" height="100"/>
<rect x="-1200" fill="#D1A93D" width="100" height="100"/>
<g>
	<path d="M-1150,25.549c4.536,0,8.734,1.134,12.594,3.402s6.923,5.332,9.191,9.191s3.402,8.057,3.402,12.594
		c0,4.537-1.134,8.734-3.402,12.594s-5.332,6.923-9.191,9.191s-8.058,3.402-12.594,3.402s-8.734-1.134-12.594-3.402
		s-6.923-5.332-9.191-9.191s-3.402-8.057-3.402-12.594c0-4.537,1.134-8.734,3.402-12.594s5.332-6.923,9.191-9.191
		S-1154.536,25.549-1150,25.549z M-1172.648,50.736c0,4.4,1.168,8.43,3.504,12.086s5.434,6.433,9.293,8.328l-10.867-29.656
		C-1172.005,44.406-1172.648,47.486-1172.648,50.736z M-1146.852,40.072l8.125,24.375l2.438-8.023
		c0.542-1.828,0.914-3.115,1.117-3.859c0.339-1.15,0.508-2.133,0.508-2.945c0-1.287-0.203-2.505-0.609-3.656
		c-0.271-0.745-0.711-1.625-1.32-2.641l-0.305-0.406c-0.609-1.083-1.05-1.896-1.32-2.438c-0.406-0.88-0.609-1.693-0.609-2.438
		c0-1.083,0.372-2.031,1.117-2.844s1.659-1.219,2.742-1.219l0.305,0.102c-2.099-1.896-4.452-3.369-7.059-4.418
		s-5.366-1.574-8.277-1.574c-3.859,0-7.465,0.914-10.816,2.742s-6.043,4.299-8.074,7.414l1.422,0.102
		c1.016,0,2.336-0.068,3.961-0.203l2.031-0.102c0.406,0,0.694,0.135,0.863,0.406s0.203,0.576,0.102,0.914s-0.355,0.508-0.762,0.508
		l-2.641,0.203l8.328,24.578l4.875-14.828l-3.453-9.648l-2.438-0.305c-0.339,0-0.575-0.152-0.711-0.457s-0.118-0.609,0.051-0.914
		s0.457-0.457,0.863-0.457l2.133,0.102c1.625,0.135,2.911,0.203,3.859,0.203s2.234-0.068,3.859-0.203l2.133-0.102
		c0.339,0,0.609,0.135,0.813,0.406s0.237,0.576,0.102,0.914s-0.406,0.508-0.813,0.508
		C-1145.192,39.937-1146.039,40.004-1146.852,40.072z M-1150,73.385c2.573,0,5.078-0.44,7.516-1.32l-0.203-0.305l-6.906-19.094
		l-6.805,19.805C-1154.3,73.08-1152.167,73.385-1150,73.385z M-1138.625,70.338c3.453-2.031,6.195-4.773,8.227-8.227
		s3.047-7.244,3.047-11.375c0-3.859-0.914-7.482-2.742-10.867c0.067,0.745,0.102,1.523,0.102,2.336c0,2.505-0.575,5.213-1.727,8.125
		L-1138.625,70.338z"/>
</g>
<rect x="-1080" fill="#D1A93D" width="100" height="100"/>
<g>
	<path d="M-1013.75,72.014c0,1.354-0.474,2.505-1.422,3.453s-2.099,1.422-3.453,1.422h-22.75c-1.354,0-2.505-0.474-3.453-1.422
		s-1.422-2.099-1.422-3.453v-42.25c0-1.354,0.474-2.505,1.422-3.453s2.099-1.422,3.453-1.422h22.75c1.354,0,2.505,0.474,3.453,1.422
		s1.422,2.099,1.422,3.453V72.014z M-1018.625,30.373c0-0.135-0.067-0.271-0.203-0.406s-0.271-0.203-0.406-0.203h-21.531
		c-0.136,0-0.271,0.068-0.406,0.203s-0.203,0.271-0.203,0.406v41.031c0,0.136,0.067,0.271,0.203,0.406s0.271,0.203,0.406,0.203
		h21.531c0.136,0,0.271-0.067,0.406-0.203s0.203-0.271,0.203-0.406V30.373z M-1021.875,34.232c0-0.338-0.118-0.626-0.355-0.863
		s-0.524-0.355-0.863-0.355h-13.813c-0.339,0-0.626,0.119-0.863,0.355s-0.355,0.525-0.355,0.863v26.813
		c0,0.339,0.118,0.626,0.355,0.863s0.524,0.355,0.863,0.355h13.813c0.339,0,0.626-0.118,0.863-0.355s0.355-0.524,0.355-0.863V34.232
		z M-1027.715,69.424c-0.644,0.644-1.405,0.965-2.285,0.965s-1.642-0.321-2.285-0.965s-0.965-1.405-0.965-2.285
		s0.321-1.642,0.965-2.285s1.405-0.965,2.285-0.965s1.642,0.321,2.285,0.965s0.965,1.405,0.965,2.285
		S-1027.071,68.78-1027.715,69.424z"/>
</g>
<rect x="-840" fill="#D1A93D" width="100" height="100"/>
<g>
	<path d="M-790,24.889c3.453,0,6.737,0.305,9.852,0.914c3.792,0.745,6.771,1.896,8.938,3.453c2.641,1.828,3.961,4.096,3.961,6.805
		v29.656c0,2.708-1.32,4.977-3.961,6.805c-2.167,1.558-5.146,2.708-8.938,3.453c-3.114,0.609-6.398,0.914-9.852,0.914
		s-6.737-0.305-9.852-0.914c-3.792-0.745-6.771-1.896-8.938-3.453c-2.641-1.828-3.961-4.097-3.961-6.805V36.061
		c0-2.708,1.32-4.977,3.961-6.805c2.167-1.557,5.146-2.708,8.938-3.453C-796.737,25.193-793.453,24.889-790,24.889z M-790,29.764
		c-3.25,0-6.246,0.288-8.988,0.863s-4.909,1.337-6.5,2.285s-2.387,1.998-2.387,3.148v0.406c0,1.151,0.796,2.201,2.387,3.148
		s3.758,1.709,6.5,2.285s5.738,0.863,8.988,0.863s6.246-0.288,8.988-0.863s4.909-1.337,6.5-2.285s2.387-1.998,2.387-3.148v-0.406
		c0-1.151-0.796-2.201-2.387-3.148s-3.758-1.709-6.5-2.285S-786.75,29.764-790,29.764z M-772.125,43.475
		c-1.828,1.354-4.401,2.404-7.719,3.148c-3.114,0.677-6.5,1.016-10.156,1.016s-7.042-0.338-10.156-1.016
		c-3.317-0.745-5.891-1.794-7.719-3.148v2.641c0,1.151,0.796,2.201,2.387,3.148s3.758,1.709,6.5,2.285
		c2.742,0.576,5.738,0.863,8.988,0.863s6.246-0.287,8.988-0.863c2.742-0.576,4.909-1.337,6.5-2.285s2.387-1.998,2.387-3.148V43.475z
		 M-772.125,53.225c-1.828,1.354-4.401,2.403-7.719,3.148c-3.114,0.677-6.5,1.016-10.156,1.016s-7.042-0.339-10.156-1.016
		c-3.317-0.745-5.891-1.795-7.719-3.148v2.742c0,1.151,0.796,2.2,2.387,3.148s3.758,1.71,6.5,2.285s5.738,0.863,8.988,0.863
		s6.246-0.288,8.988-0.863s4.909-1.337,6.5-2.285s2.387-1.997,2.387-3.148V53.225z M-772.125,62.975
		c-1.828,1.354-4.401,2.403-7.719,3.148c-3.114,0.677-6.5,1.016-10.156,1.016s-7.042-0.339-10.156-1.016
		c-3.317-0.745-5.891-1.794-7.719-3.148v2.742c0,1.151,0.796,2.2,2.387,3.148s3.758,1.71,6.5,2.285s5.738,0.863,8.988,0.863
		s6.246-0.288,8.988-0.863s4.909-1.337,6.5-2.285s2.387-1.997,2.387-3.148V62.975z"/>
</g>
<defs>
	<filter id="Adobe_OpacityMaskFilter_5_" filterUnits="userSpaceOnUse" x="-720" y="0" width="100" height="100">
		<feFlood  style="flood-color:white;flood-opacity:1" result="back"/>
		<feBlend  in="SourceGraphic" in2="back" mode="normal"/>
	</filter>
</defs>
<mask maskUnits="userSpaceOnUse" x="-720" y="0" width="100" height="100" id="SVGID_6_">
	<g filter="url(#Adobe_OpacityMaskFilter_5_)">
		<g>
			<path d="M-650.5,39.514c0,1.76-0.508,3.352-1.523,4.773s-2.336,2.404-3.961,2.945c-0.067,2.844-0.813,5.146-2.234,6.906
				c-1.286,1.558-3.114,2.675-5.484,3.352c-1.422,0.406-3.589,0.745-6.5,1.016h-0.102c-1.692,0.203-2.911,0.339-3.656,0.406
				c-1.286,0.271-2.269,0.575-2.945,0.914s-1.185,0.778-1.523,1.32c1.558,0.609,2.81,1.608,3.758,2.996s1.422,2.929,1.422,4.621
				c0,2.234-0.796,4.147-2.387,5.738s-3.504,2.387-5.738,2.387s-4.147-0.796-5.738-2.387s-2.387-3.504-2.387-5.738
				c0-1.828,0.524-3.453,1.574-4.875s2.421-2.37,4.113-2.844V40.732c-1.692-0.474-3.063-1.422-4.113-2.844s-1.574-3.047-1.574-4.875
				c0-2.234,0.796-4.147,2.387-5.738s3.504-2.387,5.738-2.387s4.147,0.795,5.738,2.387s2.387,3.504,2.387,5.738
				c0,1.828-0.524,3.453-1.574,4.875s-2.421,2.37-4.113,2.844v14.625c1.083-0.475,2.403-0.846,3.961-1.117
				c0.948-0.203,2.37-0.406,4.266-0.609c2.438-0.203,4.164-0.406,5.18-0.609c1.625-0.406,2.793-1.049,3.504-1.93
				c0.711-0.88,1.101-2.133,1.168-3.758c-1.761-0.542-3.183-1.523-4.266-2.945s-1.625-3.047-1.625-4.875
				c0-2.234,0.796-4.147,2.387-5.738s3.504-2.387,5.738-2.387s4.147,0.795,5.738,2.387S-650.5,37.279-650.5,39.514z
				 M-681.375,29.764c-0.88,0-1.642,0.322-2.285,0.965s-0.965,1.405-0.965,2.285s0.321,1.642,0.965,2.285s1.405,0.965,2.285,0.965
				s1.642-0.322,2.285-0.965s0.965-1.405,0.965-2.285s-0.321-1.642-0.965-2.285S-680.495,29.764-681.375,29.764z M-681.375,72.014
				c0.88,0,1.642-0.321,2.285-0.965s0.965-1.405,0.965-2.285s-0.321-1.642-0.965-2.285s-1.405-0.965-2.285-0.965
				s-1.642,0.321-2.285,0.965s-0.965,1.405-0.965,2.285s0.321,1.642,0.965,2.285S-682.255,72.014-681.375,72.014z M-658.625,42.764
				c0.88,0,1.642-0.322,2.285-0.965s0.965-1.405,0.965-2.285s-0.321-1.642-0.965-2.285s-1.405-0.965-2.285-0.965
				s-1.642,0.322-2.285,0.965s-0.965,1.405-0.965,2.285s0.321,1.642,0.965,2.285S-659.505,42.764-658.625,42.764z"/>
		</g>
	</g>
</mask>
<rect x="-720" mask="url(#SVGID_6_)" fill="#D1A93D" width="100" height="100"/>
<defs>
	<filter id="Adobe_OpacityMaskFilter_6_" filterUnits="userSpaceOnUse" x="-600" y="0" width="100" height="100">
		<feFlood  style="flood-color:white;flood-opacity:1" result="back"/>
		<feBlend  in="SourceGraphic" in2="back" mode="normal"/>
	</filter>
</defs>
<mask maskUnits="userSpaceOnUse" x="-600" y="0" width="100" height="100" id="SVGID_7_">
	<g filter="url(#Adobe_OpacityMaskFilter_6_)">
		<g>
			<path d="M-567.469,56.221h0.609l0.609,3.453c-0.677,0.271-1.489,0.406-2.438,0.406c-2.911,0-4.367-1.828-4.367-5.484V39.361
				h-1.422c-0.677,0-1.134,0.152-1.371,0.457s-0.355,0.897-0.355,1.777l0.102,5.18c0,1.219-0.187,2.116-0.559,2.691
				s-0.965,0.931-1.777,1.066v0.203c0.813,0.203,1.405,0.592,1.777,1.168s0.559,1.439,0.559,2.59c0,0.678-0.034,1.625-0.102,2.844
				v2.438c0,0.88,0.118,1.489,0.355,1.828s0.694,0.508,1.371,0.508h0.609v2.438h-2.031c-1.489,0-2.556-0.339-3.199-1.016
				s-0.965-1.862-0.965-3.555c0-0.813,0.051-1.777,0.152-2.895s0.152-1.998,0.152-2.641s-0.22-1.186-0.66-1.625
				s-1.134-0.66-2.082-0.66v-2.844c0.948,0,1.642-0.237,2.082-0.711s0.66-1.016,0.66-1.625s-0.051-1.49-0.152-2.641
				s-0.152-2.133-0.152-2.945c0-1.693,0.321-2.877,0.965-3.555s1.71-1.016,3.199-1.016h7.617V54.9c0,0.474,0.085,0.813,0.254,1.016
				S-567.672,56.221-567.469,56.221z M-559.648,43.221c2.167,0,3.843,0.728,5.027,2.184s1.777,3.301,1.777,5.535
				c0,0.541-0.067,1.15-0.203,1.828v0.102h-9.648c0.406,2.303,1.794,3.453,4.164,3.453c1.151,0,2.336-0.339,3.555-1.016l1.523,2.844
				c-1.761,1.219-3.656,1.828-5.688,1.828c-2.37,0-4.3-0.745-5.789-2.234s-2.251-3.504-2.285-6.043s0.711-4.587,2.234-6.145
				S-561.68,43.221-559.648,43.221z M-562.695,49.924h5.789c0-2.099-0.914-3.148-2.742-3.148c-0.745,0-1.405,0.271-1.98,0.813
				S-562.56,48.908-562.695,49.924z M-543.906,50.229c2.911,0.947,4.367,2.572,4.367,4.875c0,1.489-0.575,2.726-1.727,3.707
				s-2.776,1.473-4.875,1.473c-1.016,0-2.082-0.203-3.199-0.609s-2.082-0.948-2.895-1.625l2.133-3.148
				c1.422,1.083,2.81,1.625,4.164,1.625s2.031-0.44,2.031-1.32c0-0.406-0.305-0.813-0.914-1.219
				c-0.339-0.203-1.016-0.475-2.031-0.813l-0.305-0.203c-2.844-1.084-4.266-2.641-4.266-4.672c0-1.49,0.575-2.691,1.727-3.605
				s2.657-1.371,4.52-1.371s3.673,0.677,5.434,2.031l-2.133,2.844c-1.219-0.88-2.336-1.32-3.352-1.32
				c-1.219,0-1.828,0.406-1.828,1.219c0,0.474,0.237,0.846,0.711,1.117c0.271,0.203,0.847,0.44,1.727,0.711
				C-544.278,50.059-544.042,50.161-543.906,50.229z M-531.008,50.229c2.911,0.947,4.367,2.572,4.367,4.875
				c0,1.489-0.575,2.726-1.727,3.707s-2.776,1.473-4.875,1.473c-0.948,0-1.997-0.203-3.148-0.609s-2.099-0.948-2.844-1.625
				l2.133-3.148c1.422,1.083,2.81,1.625,4.164,1.625s2.031-0.44,2.031-1.32c0-0.406-0.305-0.813-0.914-1.219
				c-0.339-0.203-1.016-0.475-2.031-0.813l-0.406-0.203c-2.776-1.084-4.164-2.641-4.164-4.672c0-1.49,0.559-2.691,1.676-3.605
				s2.606-1.371,4.469-1.371s3.707,0.677,5.535,2.031l-2.133,2.844c-1.219-0.88-2.37-1.32-3.453-1.32
				c-1.151,0-1.727,0.406-1.727,1.219c0,0.406,0.237,0.779,0.711,1.117c0.271,0.203,0.813,0.44,1.625,0.711
				C-531.38,50.059-531.144,50.161-531.008,50.229z M-520.242,46.979c0,0.609,0.22,1.151,0.66,1.625s1.134,0.711,2.082,0.711v2.844
				c-0.948,0-1.642,0.236-2.082,0.711s-0.66,1.033-0.66,1.676c0,0.644,0.051,1.523,0.152,2.641s0.152,2.082,0.152,2.895
				c0,1.692-0.321,2.878-0.965,3.555s-1.71,1.016-3.199,1.016h-2.031v-2.539h0.609V62.01c0.677,0,1.151-0.152,1.422-0.457
				s0.406-0.897,0.406-1.777l-0.203-5.281c0-1.15,0.187-2.014,0.559-2.59s0.965-0.965,1.777-1.168v-0.203
				c-0.813-0.203-1.405-0.576-1.777-1.117s-0.559-1.422-0.559-2.641l0.203-5.281c0-0.88-0.118-1.473-0.355-1.777
				s-0.728-0.457-1.473-0.457h-0.609v-2.438h2.031c1.489,0,2.556,0.338,3.199,1.016s0.965,1.862,0.965,3.555
				c0,0.813-0.051,1.777-0.152,2.895S-520.242,46.301-520.242,46.979z"/>
		</g>
	</g>
</mask>
<rect x="-600" mask="url(#SVGID_7_)" fill="#D1A93D" width="100" height="100"/>
<defs>
	<filter id="Adobe_OpacityMaskFilter_7_" filterUnits="userSpaceOnUse" x="-480" y="0" width="100" height="100">
		<feFlood  style="flood-color:white;flood-opacity:1" result="back"/>
		<feBlend  in="SourceGraphic" in2="back" mode="normal"/>
	</filter>
</defs>
<mask maskUnits="userSpaceOnUse" x="-480" y="0" width="100" height="100" id="SVGID_8_">
	<g filter="url(#Adobe_OpacityMaskFilter_7_)">
		<g>
			<path d="M-406.54,54.393c1.896,0,3.538,0.355,4.926,1.066s2.438,1.625,3.148,2.742s1.032,2.251,0.965,3.402
				s-0.542,2.133-1.422,2.945c-0.609,0.542-1.151,0.88-1.625,1.016c-0.339,0.067-0.524,0.017-0.559-0.152s0.118-0.355,0.457-0.559
				c1.016-0.677,1.625-1.523,1.828-2.539c0.067-0.609-0.067-1.286-0.406-2.031c-0.406-0.88-1.05-1.625-1.93-2.234
				c-1.083-0.745-2.505-1.219-4.266-1.422c-2.37-0.271-4.469-0.034-6.297,0.711c0.339,0.88,0.508,1.659,0.508,2.336
				c0.067,1.489-0.711,2.844-2.336,4.063c-0.677,0.474-1.405,0.863-2.184,1.168s-1.371,0.423-1.777,0.355
				c-1.286-0.271-1.591-1.388-0.914-3.352c0.203-0.677,0.609-1.422,1.219-2.234s1.354-1.591,2.234-2.336l-0.203-0.305
				c-0.542-1.016-0.88-1.761-1.016-2.234c-0.203-0.678-0.372-1.32-0.508-1.93l-0.102-0.711l-1.016,1.93
				c-0.88,1.625-1.727,3.047-2.539,4.266l-0.305,0.508c0.406,1.083,0.644,2.031,0.711,2.844c0.067,1.692-0.575,3.047-1.93,4.063
				c-0.677,0.406-1.354,0.762-2.031,1.066s-1.489,0.491-2.438,0.559c-0.745,0-1.286-0.102-1.625-0.305
				c-0.406-0.339-0.508-0.813-0.305-1.422c0.136-0.271,0.948-1.286,2.438-3.047l2.234-2.844l-0.406-0.914
				c-0.474-0.948-0.778-1.659-0.914-2.133c-0.203-0.677-0.372-1.32-0.508-1.93l-0.102-0.711l-1.016,2.438
				c-0.813,1.896-1.558,3.521-2.234,4.875c-1.016,2.031-1.862,3.589-2.539,4.672l-0.203,0.305c-0.813,1.286-1.591,1.93-2.336,1.93
				s-1.253-0.474-1.523-1.422c-0.203-0.677-0.305-1.523-0.305-2.539l0.203-1.422v0.102c-0.542,1.286-1.083,2.472-1.625,3.555
				c-0.474,0.88-0.847,1.489-1.117,1.828c-0.474,0.474-1.032,0.711-1.676,0.711s-1.134-0.169-1.473-0.508
				c-0.609-0.542-1.117-1.438-1.523-2.691s-0.575-2.421-0.508-3.504c0.203-1.761,0.508-3.216,0.914-4.367l-3.656,2.133v0.102
				c0.609,1.151,0.88,2.641,0.813,4.469c-0.136,2.099-0.745,3.961-1.828,5.586c-1.151,1.828-2.742,3.165-4.773,4.012
				s-4.063,0.999-6.094,0.457c-0.542-0.136-1.05-0.542-1.523-1.219s-0.745-1.489-0.813-2.438c-0.136-1.151,0.067-2.336,0.609-3.555
				c0.677-1.489,2.269-3.081,4.773-4.773c1.489-1.016,3.081-1.93,4.773-2.742l0.508-0.305c-0.609-0.474-1.727-1.286-3.352-2.438
				c-2.641-1.828-4.57-3.318-5.789-4.469c-2.031-1.963-3.216-3.893-3.555-5.789c-0.271-1.151-0.034-2.539,0.711-4.164
				c0.88-2.099,2.438-4.164,4.672-6.195c1.964-1.896,4.367-3.623,7.211-5.18c2.505-1.422,5.214-2.641,8.125-3.656
				s5.823-1.523,8.734-1.523s5.383,0.525,7.414,1.574s3.284,2.505,3.758,4.367s0.321,3.775-0.457,5.738s-1.997,3.758-3.656,5.383
				s-3.538,2.844-5.637,3.656c-2.505,1.016-4.977,1.557-7.414,1.625c-1.896,0.135-3.453,0-4.672-0.406
				c-1.016-0.338-1.862-0.813-2.539-1.422c-0.609-0.542-1.016-1.049-1.219-1.523c-0.203-0.542-0.22-0.863-0.051-0.965
				s0.288-0.119,0.355-0.051l0.508,0.508c0.474,0.474,1.151,0.88,2.031,1.219c1.286,0.474,2.81,0.643,4.57,0.508
				c3.25-0.406,6.161-1.456,8.734-3.148c2.37-1.49,4.097-3.233,5.18-5.23s1.286-3.741,0.609-5.23
				c-0.474-1.016-1.625-1.777-3.453-2.285s-4.063-0.559-6.703-0.152c-2.911,0.474-5.958,1.49-9.141,3.047
				c-8.328,4.198-12.628,8.498-12.898,12.898c-0.067,1.625,0.542,3.182,1.828,4.672c0.745,0.947,2.2,2.234,4.367,3.859
				c1.828,1.422,3.114,2.539,3.859,3.352l0.203,0.203l6.5-3.555c0.677-1.016,1.574-1.93,2.691-2.742s2.116-1.219,2.996-1.219
				s1.489,0.373,1.828,1.117c0.271,0.541,0.372,1.252,0.305,2.133l-0.203,1.016l0.305-0.203c0.339-0.271,0.762-0.322,1.27-0.152
				s0.728,0.524,0.66,1.066l-0.305,1.117c-0.609,2.438-1.016,4.198-1.219,5.281c-0.136,0.542-0.187,1.016-0.152,1.422
				s0.085,0.609,0.152,0.609s0.203-0.203,0.406-0.609l0.305-0.711c0.067,0,0.067,0.034,0,0.102l1.117-2.336
				c2.641-5.822,4.063-9.072,4.266-9.75l0.609-1.93c0.067-0.135,0.339-0.271,0.813-0.406s1.05-0.203,1.727-0.203
				c0.948,0,1.422,0.237,1.422,0.711l-0.102,0.508c-0.339,1.016-0.559,1.795-0.66,2.336s-0.085,1.219,0.051,2.031l0.102,0.406
				c0.067,0.475,0.372,1.219,0.914,2.234c0.813-1.354,1.591-2.742,2.336-4.164c0.948-1.76,1.489-2.912,1.625-3.453
				c0.136-0.677,0.305-1.32,0.508-1.93c0.067-0.203,0.355-0.355,0.863-0.457s1.066-0.152,1.676-0.152
				c0.948,0,1.456,0.237,1.523,0.711l-0.203,0.406c-0.339,1.083-0.542,1.896-0.609,2.438s-0.034,1.219,0.102,2.031v0.406
				c0.067,0.475,0.406,1.252,1.016,2.336l0.305,0.711C-410.603,54.832-408.639,54.393-406.54,54.393z M-450.11,69.119
				c2.099-2.302,2.742-4.977,1.93-8.023l-1.625,1.016c-1.828,1.083-3.284,2.149-4.367,3.199s-1.777,2.2-2.082,3.453
				s-0.152,2.065,0.457,2.438s1.489,0.355,2.641-0.051S-450.99,70.067-450.11,69.119z M-436.501,59.775
				c0.339-0.88,0.711-1.93,1.117-3.148c0.542-1.625,0.728-2.572,0.559-2.844s-0.491-0.305-0.965-0.102s-0.948,0.576-1.422,1.117
				c-0.339,0.406-0.745,1.016-1.219,1.828s-0.813,1.591-1.016,2.336c-0.474,1.354-0.677,2.708-0.609,4.063s0.288,2.082,0.66,2.184
				s0.796-0.39,1.27-1.473c0.339-0.542,0.745-1.523,1.219-2.945C-436.704,60.317-436.568,59.979-436.501,59.775z M-425.228,65.158
				c1.692-1.016,2.539-2.2,2.539-3.555v-0.102l-1.117,1.422l-2.031,2.234c-0.067,0.067-0.067,0.136,0,0.203
				S-425.566,65.361-425.228,65.158z M-416.493,63.229c1.761-0.677,2.641-1.862,2.641-3.555c0-0.271-0.067-0.644-0.203-1.117
				c-0.88,0.813-1.523,1.659-1.93,2.539C-416.595,62.314-416.764,63.025-416.493,63.229z"/>
		</g>
	</g>
</mask>
<rect x="-480" mask="url(#SVGID_8_)" fill="#D1A93D" width="100" height="100"/>
<defs>
	<filter id="Adobe_OpacityMaskFilter_8_" filterUnits="userSpaceOnUse" x="-360" y="0" width="100" height="100">
		<feFlood  style="flood-color:white;flood-opacity:1" result="back"/>
		<feBlend  in="SourceGraphic" in2="back" mode="normal"/>
	</filter>
</defs>
<mask maskUnits="userSpaceOnUse" x="-360" y="0" width="100" height="100" id="SVGID_9_">
	<g filter="url(#Adobe_OpacityMaskFilter_8_)">
		<g>
			<path d="M-310,27.986l21.125,7.516l-3.25,28.031L-310,73.486l-17.875-9.953l-3.25-28.031L-310,27.986z M-296.797,62.721
				L-310,32.963l-13.203,29.758h4.875l2.742-6.703h11.172l2.641,6.703H-296.797z M-313.859,51.955l3.859-9.344l3.859,9.344H-313.859
				z"/>
		</g>
	</g>
</mask>
<rect x="-360" mask="url(#SVGID_9_)" fill="#D1A93D" width="100" height="100"/>
<defs>
	<filter id="Adobe_OpacityMaskFilter_9_" filterUnits="userSpaceOnUse" x="-240" y="0" width="100" height="100">
		<feFlood  style="flood-color:white;flood-opacity:1" result="back"/>
		<feBlend  in="SourceGraphic" in2="back" mode="normal"/>
	</filter>
</defs>
<mask maskUnits="userSpaceOnUse" x="-240" y="0" width="100" height="100" id="SVGID_10_">
	<g filter="url(#Adobe_OpacityMaskFilter_9_)">
		<g>
			<path d="M-172.328,27.986c1.354,0,2.539,0.508,3.555,1.523s1.523,2.201,1.523,3.555v35.344c0,1.354-0.508,2.539-1.523,3.555
				s-2.2,1.523-3.555,1.523h-35.344c-1.354,0-2.539-0.508-3.555-1.523s-1.523-2.2-1.523-3.555V33.064
				c0-1.354,0.508-2.539,1.523-3.555s2.2-1.523,3.555-1.523H-172.328z M-172.328,31.643h-35.344c-0.406,0-0.745,0.135-1.016,0.406
				s-0.406,0.609-0.406,1.016v35.344c0,0.339,0.136,0.66,0.406,0.965s0.609,0.457,1.016,0.457h35.344
				c0.406,0,0.745-0.136,1.016-0.406s0.406-0.609,0.406-1.016V33.064c0-0.406-0.136-0.745-0.406-1.016
				S-171.922,31.643-172.328,31.643z M-178.32,42.104c0.271,0,0.491,0.068,0.66,0.203s0.22,0.305,0.152,0.508v13.711
				c0,0.271-0.237,0.542-0.711,0.813c-2.031,0.88-3.792,1.32-5.281,1.32c-0.88,0-1.964-0.237-3.25-0.711
				c-1.422-0.609-2.675-0.914-3.758-0.914c-1.828,0-4.063,0.575-6.703,1.727c-0.067,0.067-0.169,0.102-0.305,0.102v4.469
				c0,0.203-0.034,0.372-0.102,0.508v0.102c-0.136,0.406-0.372,0.745-0.711,1.016s-0.745,0.406-1.219,0.406s-0.914-0.203-1.32-0.609
				s-0.609-0.88-0.609-1.422V41.799c-0.88-0.677-1.286-1.523-1.219-2.539c0-0.948,0.305-1.744,0.914-2.387s1.371-0.965,2.285-0.965
				s1.692,0.322,2.336,0.965s0.965,1.405,0.965,2.285c0,1.151-0.406,2.031-1.219,2.641v1.828l0.406-0.203
				c2.37-0.88,4.401-1.32,6.094-1.32c1.016,0,2.065,0.135,3.148,0.406c0.745,0.135,1.692,0.44,2.844,0.914
				c0.406,0.203,0.847,0.305,1.32,0.305c1.016,0,2.403-0.406,4.164-1.219C-178.828,42.239-178.456,42.104-178.32,42.104z"/>
		</g>
	</g>
</mask>
<rect x="-240" mask="url(#SVGID_10_)" fill="#D1A93D" width="100" height="100"/>
<defs>
	<filter id="Adobe_OpacityMaskFilter_10_" filterUnits="userSpaceOnUse" x="-120" y="0" width="100" height="100">
		<feFlood  style="flood-color:white;flood-opacity:1" result="back"/>
		<feBlend  in="SourceGraphic" in2="back" mode="normal"/>
	</filter>
</defs>
<mask maskUnits="userSpaceOnUse" x="-120" y="0" width="100" height="100" id="SVGID_11_">
	<g filter="url(#Adobe_OpacityMaskFilter_10_)">
		<g>
			<path d="M-64.313,39.26c-3.792,0.271-7.583,0.271-11.375,0c-4.063-0.271-6.094-0.745-6.094-1.422
				c0-0.406,1.151-0.779,3.453-1.117s5.078-0.508,8.328-0.508l2.641,0.102l1.32-4.977l6.195-6.5
				c0.067-0.068,0.203-0.084,0.406-0.051s0.406,0.152,0.609,0.355c0.542,0.474,0.711,0.779,0.508,0.914l-5.789,6.195l-1.016,4.164
				c2.031,0.135,3.673,0.338,4.926,0.609s1.879,0.542,1.879,0.813h0.102C-58.219,38.515-60.25,38.989-64.313,39.26z M-80.258,51.447
				c0.339-1.151,0.847-2.234,1.523-3.25c0.813-1.151,1.659-1.93,2.539-2.336c0.677-0.271,1.32-0.237,1.93,0.102
				c0.271,0.135,0.508,0.338,0.711,0.609s0.305,0.474,0.305,0.609c0.067,0.271,0.051,0.491-0.051,0.66s-0.237,0.254-0.406,0.254
				s-0.39-0.237-0.66-0.711c-0.406-0.745-0.981-0.846-1.727-0.305c-0.609,0.406-1.185,1.1-1.727,2.082s-0.948,1.93-1.219,2.844
				s-0.305,1.607-0.102,2.082c0.136,0.203,0.305,0.305,0.508,0.305c0.406,0,0.931-0.322,1.574-0.965s1.101-1.201,1.371-1.676
				l0.508-1.523c0.136-0.338,0.339-0.508,0.609-0.508s0.406,0.186,0.406,0.559s-0.136,0.896-0.406,1.574s-0.474,1.287-0.609,1.828
				l-0.813,2.641c-0.067,0.203-0.152,0.39-0.254,0.559s-0.22,0.254-0.355,0.254s-0.237-0.051-0.305-0.152s-0.085-0.305-0.051-0.609
				s0.288-1.168,0.762-2.59l-0.711,0.711c-0.813,0.745-1.523,1.117-2.133,1.117c-0.339,0-0.609-0.067-0.813-0.203l0.813,8.023
				c0.067,0.339,0.948,0.711,2.641,1.117c1.964,0.474,4.063,0.711,6.297,0.711s4.333-0.237,6.297-0.711
				c1.625-0.406,2.505-0.778,2.641-1.117l1.117-9.547l-0.203,0.102c-0.745,0.744-1.32,1.202-1.727,1.371s-0.813,0.22-1.219,0.152
				s-0.609-0.271-0.609-0.609c0-0.338,0.372-0.947,1.117-1.828l0.305-0.508c0.339-0.338,0.508-0.592,0.508-0.762
				s-0.136-0.236-0.406-0.203s-0.542,0.17-0.813,0.406s-0.559,0.576-0.863,1.016s-0.593,0.965-0.863,1.574l-0.406,0.813
				l-1.016,2.844c-0.136,0.203-0.305,0.355-0.508,0.457s-0.372,0.102-0.508,0s-0.203-0.22-0.203-0.355l0.102-0.305
				c0.067-0.271,0.339-0.914,0.813-1.93l0.711-1.523c0.067-0.271,0.102-0.373,0.102-0.305c-0.542,0.541-1.016,0.897-1.422,1.066
				s-0.745,0.22-1.016,0.152s-0.44-0.237-0.508-0.508l-0.102-0.203c-0.677,0.542-1.235,0.778-1.676,0.711s-0.559-0.576-0.355-1.523
				c-0.542,1.016-1.286,1.523-2.234,1.523c-0.474,0-0.778-0.169-0.914-0.508c-0.136-0.338,0.034-1.117,0.508-2.336v-0.102
				c0.203-0.475,0.44-1.016,0.711-1.625c0.203-0.406,0.474-0.542,0.813-0.406h0.102c0.203,0.135,0.237,0.406,0.102,0.813
				l-0.305,0.406c-0.339,0.678-0.575,1.219-0.711,1.625c-0.136,0.609-0.085,0.914,0.152,0.914s0.491-0.068,0.762-0.203
				c0.406-0.271,0.762-0.693,1.066-1.27s0.491-1.033,0.559-1.371L-70,50.939c0.136-0.338,0.288-0.508,0.457-0.508
				s0.321,0.068,0.457,0.203s0.136,0.373,0,0.711l-0.711,1.625c-0.203,0.541-0.305,0.947-0.305,1.219s0.237,0.305,0.711,0.102
				c0.203-0.068,0.44-0.203,0.711-0.406c0.067-0.271,0.609-1.727,1.625-4.367l1.016-2.539c0.136-0.338,0.372-0.508,0.711-0.508
				c0.067,0,0.169,0.051,0.305,0.152s0.169,0.288,0.102,0.559l-1.828,4.367c-0.474,1.219-0.762,1.998-0.863,2.336
				s-0.085,0.508,0.051,0.508c0.474,0,1.253-0.576,2.336-1.727l0.102-0.102l0.305-0.711c0.136-0.475,0.271-0.779,0.406-0.914
				c0.136-0.135,0.237-0.203,0.305-0.203c0.271,0,0.406,0.119,0.406,0.355c0,0.236-0.034,0.457-0.102,0.66l0.508-0.508
				c0.677-0.609,1.27-0.863,1.777-0.762s0.762,0.389,0.762,0.863c0,0.475-0.44,1.252-1.32,2.336l-0.203,0.102
				c-0.203,0.338-0.305,0.541-0.305,0.609s0.067,0.102,0.203,0.102s0.372-0.135,0.711-0.406l1.727-1.523l1.523-13.813
				c-1.016,0.542-3.25,0.914-6.703,1.117c-3.25,0.203-6.5,0.203-9.75,0c-3.453-0.203-5.688-0.576-6.703-1.117L-80.258,51.447z
				 M-63.094,66.986l-0.508,8.125c0,0.474-0.626,0.863-1.879,1.168s-2.759,0.457-4.52,0.457s-3.267-0.152-4.52-0.457
				s-1.879-0.694-1.879-1.168l-0.609-8.125l-1.523-2.539c2.099,0.88,4.926,1.32,8.48,1.32s6.348-0.44,8.379-1.32L-63.094,66.986z
				 M-65.531,38.143l-0.102,0.102c0,0.135-0.372,0.203-1.117,0.203s-1.117-0.068-1.117-0.203l0.102-0.102
				c-0.203,0.068-0.305,0.135-0.305,0.203s0.136,0.152,0.406,0.254s0.593,0.152,0.965,0.152s0.694-0.051,0.965-0.152
				s0.406-0.186,0.406-0.254S-65.396,38.21-65.531,38.143z"/>
		</g>
	</g>
</mask>
<rect x="-120" mask="url(#SVGID_11_)" fill="#D1A93D" width="100" height="100"/>
<defs>
	<filter id="Adobe_OpacityMaskFilter_11_" filterUnits="userSpaceOnUse" x="0" y="0" width="100" height="100">
		
			<feColorMatrix  type="matrix" values="-1 0 0 0 1  0 -1 0 0 1  0 0 -1 0 1  0 0 0 1 0" color-interpolation-filters="sRGB" result="source"/>
		<feFlood  style="flood-color:white;flood-opacity:1" result="back"/>
		<feBlend  in="source" in2="back" mode="normal"/>
	</filter>
</defs>
<mask maskUnits="userSpaceOnUse" x="0" y="0" width="100" height="100" id="SVGID_12_">
	<g filter="url(#Adobe_OpacityMaskFilter_11_)">
		
			<g xmlns:cc="http://creativecommons.org/ns#" xmlns:dc="http://purl.org/dc/elements/1.1/" xmlns:sodipodi="http://sodipodi.sourceforge.net/DTD/sodipodi-0.dtd" xmlns:inkscape="http://www.inkscape.org/namespaces/inkscape" xmlns:svg="http://www.w3.org/2000/svg" xmlns:rdf="http://www.w3.org/1999/02/22-rdf-syntax-ns#" sodipodi:docname="twitter_bootstrap_logo.svg" inkscape:version="0.48.1 r9760">
			<path fill="#FFFFFF" d="M70.001,20.588c2.499,0,4.862,0.981,6.646,2.765c1.786,1.784,2.765,4.147,2.765,6.647v40.001
				c0,2.499-0.979,4.862-2.765,6.646c-1.783,1.786-4.146,2.765-6.646,2.765H29.999c-2.499,0-4.862-0.979-6.646-2.765
				c-1.785-1.783-2.765-4.146-2.765-6.646V30c0-2.5,0.979-4.863,2.765-6.647c1.783-1.784,4.146-2.765,6.646-2.765H70.001 M70.001,20
				H29.999C24.5,20,20,24.5,20,30v40.001C20,75.5,24.5,80,29.999,80h40.002C75.5,80,80,75.5,80,70.001V30C80,24.5,75.5,20,70.001,20
				z"/>
			<path fill="#FFFFFF" d="M36.304,33.039h17.01c3.138,0,5.657,0.716,7.549,2.156c1.892,1.441,2.845,3.609,2.845,6.521
				c0,1.764-0.433,3.274-1.294,4.529c-0.864,1.254-2.099,2.235-3.708,2.921v0.098c2.157,0.461,3.796,1.481,4.903,3.059
				c1.107,1.588,1.665,3.568,1.665,5.96c0,1.374-0.244,2.659-0.733,3.844c-0.492,1.196-1.255,2.226-2.304,3.088
				c-1.05,0.863-2.384,1.551-4.02,2.061c-1.64,0.51-3.579,0.763-5.835,0.763H36.304V33.039z M42.432,47.696h10
				c1.471,0,2.696-0.412,3.677-1.254c0.979-0.843,1.471-2.039,1.471-3.608c0-1.764-0.441-3.009-1.324-3.726
				c-0.883-0.715-2.156-1.078-3.823-1.078h-10V47.696z M42.432,63.04h10.834c1.862,0,3.312-0.48,4.332-1.453
				c1.03-0.96,1.55-2.332,1.55-4.096c0-1.735-0.51-3.059-1.55-4.002c-1.038-0.94-2.47-1.392-4.332-1.392H42.432V63.04z"/>
		</g>
	</g>
</mask>
<rect mask="url(#SVGID_12_)" fill="#D1A93D" width="100" height="100"/>
</svg>
