<svg xmlns="http://www.w3.org/2000/svg" viewBox="0 0 100 100"><path d="M27.4 25.2c0-1.7 10.1-3.1 22.6-3.1 1.8 0 3.5 0 5.1.1l2.5-9.5L69.6.1c.3-.3 1.1 0 1.9.7.8.7 1.3 1.5 1 1.8L61.3 14.4l-2 8c7.8.5 13.2 1.6 13.2 2.8.1 4.1-45.1 4.1-45.1 0zm44.9 1.7l-2.9 26.7c-.9.8-2.3 2-3.2 2.8-.3.2-1.2.9-1.6.9-.3 0-.4-.1-.4-.4 0-.2.7-.9 1-1.2 1-1.1 2.7-3.1 2.7-4.6 0-1.4-2.1-2.8-5 0l-.9.9c.1-.2.2-1 .2-1.2 0-.5-.3-.8-.8-.8-.2 0-.4.1-.5.3-.5.6-.8 1.5-1 2.2-.1.3-.2.7-.3 1.1-.1 0-.1.1-.2.1-.7.8-3.5 3.3-4.5 3.3-.4 0-.3-.7-.2-1.1.2-.7 1.3-3.5 1.7-4.4.9-2.2 1.6-3.9 2.6-6.2.8-1.8.7-1.7.9-2.1.1-.4.1-1-.2-1.2-.2-.1-.4-.2-.6-.2-.5 0-.9.3-1.2.9-5 12.6-4.9 12.4-5.2 13.3-.4.3-.9.7-1.3.9-.6.3-1.3.4-1.3-.2 0-.7.3-1.6.5-2.3.4-1.2 1-2.2 1.4-3.3.2-.5.3-.9-.1-1.4-.2-.2-.4-.3-.6-.3-.5 0-.8.5-1 1-.1.3-.3.6-.3.9-.2.8-.7 1.7-1.1 2.4-.5 1-1.3 2-2.2 2.6-.4.3-.9.5-1.4.5-.7 0-.5-1.1-.3-1.8.4-1.5 1.1-2.6 1.8-4.1.3-.5.5-1.1-.1-1.4-.1-.1-.2-.1-.3-.1-.7-.2-1.2.2-1.5.9-.6 1.2-1 2.3-1.4 3.2-.6 1.7-1.4 3.6-.9 4.7.3.7.9 1 1.7 1 1.9 0 3.5-1.3 4.4-2.9-.8 3.9 1.6 3.4 3.9 1.6v.2c.3 1.3 1.7 1.3 2.8.8.7-.3 1.6-.9 2.8-2.1 0-.1.2-.3-.2.5-1.4 3.2-2.6 5.5-2.9 6.7 0 .2-.1.4-.1.5 0 .3.1.6.3.7.3.2.8.3 1.2.1.3-.2.6-.5.8-.9.2-.4 0-.1 1-2.7s.6-1.5 1.8-4.3c.4-.8.8-1.9 1.7-3 .5-.7 1.1-1.4 1.7-1.9 1.1-.9 2.3-1.1 2.3-.5 0 .4-.6 1.2-.9 1.6-1 1.3-2.8 3.2-2.8 4.2 0 1.9 2.3 1.6 3.4 1.1 1.4-.6 2.7-1.9 3.8-2.9L67 74.5c-.4 1-7.6 3.3-17.2 3.3S33 75.4 32.6 74.5L31.1 59c.4.3.8.5 1.5.5 1.4 0 3.1-1.3 4.2-2.3.4-.4.9-.9 1.2-1.3-.2.6-1.4 4.3-1.4 4.9 0 .2 0 1 .2 1.2.1.2.3.2.5.2.6 0 1.1-.9 1.2-1.5 0 0 .3-1.2 1.5-5 1.2-4.1 2-4.8 2-6.8 0-1.1-1.4-1.3-1.9 0l-1 3c-.4.9-1.6 2.2-2.4 3.1-.7.7-2.1 2-3.1 2-.5 0-.8-.3-1-.7-.4-1-.2-2.8.1-3.9.5-1.9 1.3-3.8 2.3-5.5.8-1.4 2-3.1 3.3-4 1.3-.9 2.5-.9 3.3.5.3.5.7 1.4 1.3 1.4.5 0 1.1-.5.9-1.8-.1-.5-1-1.7-2-2.3-1.2-.7-2.4-.7-3.6-.2-3.8 1.6-6.7 6.9-7.8 10.8l-2.7-24.5c6 3.4 38.6 3.4 44.6.1zm-9.1 54.3l-.9 15.7c0 1.7-5.5 3.1-12.3 3.1s-12.3-1.4-12.3-3.1l-1.1-15.5-2.9-5c8 3.4 24.6 3.3 32.3 0l-2.8 4.8zm-4.7-55.5v.2c0 .3-1 .5-2.2.5-1.2 0-2.2-.2-2.2-.5v-.2c-.3.1-.6.3-.6.4 0 .4 1.2.7 2.7.7 1.5 0 2.7-.3 2.7-.7.1-.1-.1-.2-.4-.4z"/></svg>