<svg id="Capa_1" xmlns="http://www.w3.org/2000/svg" viewBox="0 0 100 100"><style>.st0{fill:#131B28;}</style><path d="M21.2 16.5c-5.8 8.4-5.1 19.3-.7 28.2l.3.6.2.4.1.2.2.4c.1.2.3.5.4.7l.2.4c.2.3.3.5.5.8l.2.3c.2.3.5.7.7 1l.1.2c.2.3.4.6.7.9l.2.3c.2.2.4.5.6.7l.2.3c.3.3.6.6.8 1l.9.9.3.3c.2.2.5.4.7.7l.3.3.9.9.2.1c.3.2.6.5.8.7l.4.3c.2.2.5.4.7.6l.4.3c.3.2.5.4.8.6l.3.2.1.1c.3.2.5.3.8.5l.3.2c.4.3.8.5 1.2.7l.3.2c.3.2.6.3.9.5l.5.3.6.3.1.1.3.1c.3.2.7.3 1 .5l.2.1c.4.2.8.3 1.2.5l.3.1c.4.1.8.3 1.1.4h.1c.4.1.8.3 1.3.4l.3.1c.4.1.9.3 1.3.4 28.2 5.2 36.5-17 36.5-17-6.9 9-19.1 11.3-30.7 8.7-.4-.1-.9-.2-1.3-.4l-.3-.1c-.4-.1-.8-.3-1.2-.4l-.2-.1c-.4-.1-.7-.3-1.1-.4l-.3-.1c-.4-.2-.8-.3-1.2-.5h.1c-.3-.2-.7-.3-1-.5l-.3-.1c-.3-.1-.5-.3-.8-.4l-.5-.3c-.3-.2-.6-.3-.9-.5L41 52c-.4-.2-.8-.5-1.2-.7l-.3-.2-.9-.6-.3-.2c-.3-.2-.5-.4-.8-.6l-.4-.3c-.2-.2-.5-.4-.7-.6l-.3-.3c-.3-.3-.6-.5-.9-.8l-.1-.1c-.3-.3-.6-.6-1-.9l-.3-.3c-.2-.2-.5-.4-.7-.7l-.3-.3c-.3-.3-.6-.6-.8-.9-.3-.3-.6-.6-.9-1l-.2-.3c-.2-.3-.4-.5-.6-.8l-.2-.3c-.2-.3-.5-.6-.7-.9-6.4-8.8-8.7-20.9-3.6-30.8m13.5-1c-4.2 6.1-4 14.2-.7 20.6.6 1.1 1.2 2.1 1.9 3.1.6.9 1.3 2 2.2 2.7.3.3.6.7.9 1l.2.2c.3.3.6.6 1 .9.4.3.7.6 1.1.9l.3.2 1.2.9.5.4.3.2c.3.2.6.4.9.5l.1.1c.3.1.5.3.8.4l.3.1.5.3h.1c.4.2.7.4 1.1.5l.2.1c.3.1.6.3.9.4l.4.1.9.3.4.1c.4.1.8.3 1.2.4 21.9 3.8 27-12.9 27-12.9-4.5 6.5-13.3 9.7-22.7 7.2-.4-.1-.8-.2-1.2-.4l-.4-.1-.9-.3-.4-.1c-.3-.1-.6-.2-.9-.4l-.3-.1c-.4-.2-.8-.3-1.1-.5l-.6-.3-.3-.2c-.2-.1-.5-.3-.7-.4l-.2-.1c-.3-.2-.6-.3-.9-.5l-.3-.2-.6-.4-1.2-.9-.1-.2c-4.1-3.2-7.4-7.7-8.9-12.7-1.7-5.2-1.3-11 1.5-15.8m11.8-.4c-2.5 3.7-2.7 8.2-1 12.3 1.8 4.3 5.6 7.7 9.9 9.3l.5.2.2.1c.3.1.5.2.8.2 12 2.3 15.3-6.2 16.2-7.4-2.9 4.1-7.7 5.1-13.6 3.7-.5-.1-1-.3-1.4-.4-.6-.2-1.1-.4-1.7-.7-1-.5-2-1.1-3-1.8-5.3-4-8.6-11.6-5.1-17.9"/><path class="st0" d="M51.9 76.8h-3.4c-.2 0-.4.1-.4.3l-1.2 5.5-1.2 5.5c0 .2-.2.3-.4.3h-2.4c-2.4 0-2.1-1.6-1.6-3.9v-.1l.1-.3V84l.1-.6.1-.6.1-.6.5-2.6.5-2.6c0-.2-.1-.3-.3-.3H39c-.2 0-.4.1-.4.3l-.6 3.6-.7 3.5-.1.3c-.9 3.9-.6 7.6 4 7.7H48.6c.2 0 .4-.1.4-.3l1.6-7.4 1.6-7.4c0-.1-.1-.2-.3-.2zm-36-.1h-3.7c-.2 0-.4.1-.4.3l-.3 1.5-.3 1.5c0 .2.1.3.3.3h3.7c.2 0 .4-.1.4-.3l.3-1.5.3-1.5c0-.1-.1-.3-.3-.3zm-1.1 4.8h-3.7c-.2 0-.4.1-.4.3l-.5 2.3-.5 2.3-.1.7-.6 2.4-.5 2.4c0 .2-.1.5-.2.7 0 0-.7 2.1-1.9 2H5.3c-.2 0-.4.1-.4.3l-.4 1.6-.4 1.6c0 .2.1.3.3.3h3c2.9 0 4.5-1.6 5.4-6.3l1.2-5.3 1.1-5c.1-.1-.1-.3-.3-.3zm68.5-1.2l-.2-.6-.1-.7-.1-.3c-.3-1.2-1.2-1.8-3.1-1.8h-8.9c-.2 0-.4.1-.4.3l-.1.6-.2.8v.2l-1.4 6.5-1.3 6.2c0 .2-.1.4 0 .5 0 .1.4.2.6.2h2.8c.2 0 .4 0 .5-.1.1 0 .3-.4.3-.6l.5-2.5.5-2.5.1-.3.6-2.8.5-2.5c0-.2.2-.3.4-.3h8.8c.1 0 .2-.1.2-.3zm11.3-5.8h-3.5c-.2 0-.4.1-.5.3l-6.2 9.1c-.1.2-.2.1-.3 0l-.5-2c0-.2-.2-.3-.4-.3h-4c-.2 0-.3.1-.2.3l1.8 6.3c.1.2.1.5 0 .7l-.8 3c0 .2.1.3.3.3h4c.2 0 .4-.1.4-.3l.8-3c0-.2.2-.5.3-.6l10.1-13.4c.1-.1.1-.3-.1-.3l-1.2-.1zm-31.8 7.9c0 .2-.2.3-.4.3h-5.1c-.2 0-.3-.1-.2-.3v-.1c.5-1.3 1.5-2.1 3.3-2.1 2.1 0 2.5 1 2.4 2.2zm-1.5-5.9c-6.5 0-8.1 4-8.9 8-.9 4.1-.8 7.9 6 7.9h6.1c.2 0 .4-.2.4-.3l.3-1.3.1-.3.3-1.6c0-.2-.1-.3-.3-.3h-6.1c-2.4 0-3.1-.6-2.9-2.5H66c.2 0 .3-.1.4-.3v-.1c1.5-5.5 1-9.2-5.1-9.2zm-30.9 5.9l-.1.3-.7 2.6-.7 2.6c-.1.2-.2.3-.4.3h-3.9c-2.9 0-3.7-2.3-2.9-5.7.7-3.5 2.1-5.6 5-5.8 3.9-.3 4.7 2.5 3.7 5.7zm2.7 5.6s1.8-4.4 2.2-7c.6-3.4-1.2-8.4-7.8-8.4s-9.5 4.8-10.6 9.9c-1.1 5.2.3 9.8 6.9 9.7h10c.2 0 .4-.1.4-.3l.8-3.2c0-.2-.1-.3-.3-.3h-1.6V88zm32.7-2.9c0 .1-.1.2-.2.2s-.2-.1-.2-.2.1-.2.2-.2.2 0 .2.2z"/></svg>