<svg xmlns="http://www.w3.org/2000/svg" viewBox="0 0 100 100"><path d="M62.3 23c-.9 0-1.8.3-2.2 1.4-.7 1.7 1.1 3.4 1.7 4.3.4.6 1 1.3 1.3 2 .2.5.2.9.4 1.4.4 1.2 1.2 2.6 1.7 3.7.3.6.6 1.1 1 1.6.2.3.6.4.7.9-.4.5-.4 1.4-.6 2-1 3-.6 6.7.8 9 .4.7 1.4 2.1 2.8 1.6 1.2-.5.9-2 1.3-3.4.1-.3 0-.5.2-.7v.1c.4.7.7 1.5 1.1 2.2.8 1.3 2.3 2.7 3.5 3.6.6.5 1.1 1.3 2 1.6v-.1h-.1c-.2-.3-.4-.4-.6-.5-.5-.5-1-1-1.4-1.6-1.1-1.5-2.1-3.2-3-4.9-.4-.8-.8-1.7-1.2-2.6-.1-.3-.1-.8-.4-1-.4.6-1 1.1-1.3 1.8-.5 1.2-.6 2.6-.7 4-.1 0-.1 0-.1.1-.8-.2-1.2-1.1-1.5-1.8-.8-1.9-1-5-.2-7.1.2-.6 1-2.4.7-2.9-.2-.5-.7-.8-1-1.2-.4-.5-.7-1.1-1-1.7-.7-1.5-1.3-3.2-2-4.7-.3-.7-.9-1.4-1.3-2.1-.5-.7-1.1-1.2-1.5-2.1-.1-.3-.3-.8-.1-1.1.1-.2.2-.3.4-.4.4-.3 1.3.1 1.7.2 1 .4 1.8.8 2.6 1.3.4.3.8.8 1.3.9h.5c.9.2 1.8.1 2.6.3 1.4.4 2.7 1.1 3.8 1.8 3.6 2.3 6.4 5.4 8.4 9.2.3.6.5 1.2.7 1.8.6 1.3 1.3 2.6 1.8 3.9.6 1.3 1.1 2.5 1.9 3.6.4.6 2 .9 2.7 1.2.5.2 1.4.4 1.8.7l2.7 1.8c.4.3 1.8 1 1.8 1.5-2.1-.1-3.8.1-5.2.7-.4.2-1 .2-1.1.7.2.2.2.6.4.9.3.5.9 1.3 1.4 1.6.6.4 1.1.9 1.7 1.2 1 .6 2.2 1 3.2 1.6.6.4 1.2.9 1.8 1.3.3.2.5.5.9.7v-.1c-.2-.3-.2-.6-.4-.9l-.8-.8c-.8-1-1.7-1.9-2.8-2.7-.8-.6-2.7-1.4-3-2.4l-.1-.1c.6-.1 1.3-.3 1.8-.4.9-.2 1.7-.2 2.7-.4.4-.1.9-.2 1.3-.4v-.2c-.5-.5-.8-1.1-1.3-1.6-1.4-1.2-2.9-2.3-4.4-3.3-.8-.5-1.9-.9-2.8-1.3-.3-.2-.8-.2-1-.5-.5-.6-.7-1.4-1.1-2.1-.8-1.5-1.5-3.1-2.2-4.6-.5-1.1-.8-2.1-1.3-3.1-2.8-4.6-5.8-7.3-10.4-10-1-.6-2.2-.8-3.4-1.1-.7 0-1.3-.1-2-.1-.4-.2-.8-.7-1.2-.9-.9-.2-2.8-1.3-4.4-1.3zm6.7 6.6c-.4 0-.7 0-1.1.1v.1h.1c.2.4.6.7.9 1.1l.6 1.3.1-.1c.4-.3.6-.7.6-1.3-.2-.2-.2-.4-.3-.5-.4-.3-.7-.5-.9-.7zM3.7 55c-.6 0-1.3.1-2 .4-1.1.3-1.7 1-1.7 2.5V73h4V58.2l5.6 12.6c.7 1.6 1.6 2.1 3.5 2.1 1.8 0 2.7-.6 3.4-2.1L22 58.6V73h4V57.9c0-1.4-.6-2.2-1.8-2.5-2.8-.9-4.8-.1-5.6 1.8L12.9 70 7.4 57.2c-.6-1.5-1.9-2.3-3.7-2.2zm48.8 0c-1.6 0-6.5.2-6.5 4v2.5c0 1.7 1.5 3.2 4.9 3.5.4 0 .7.1 1.1.1 0 0 3.9-.1 4-.1 2.2 0 2 1.7 2 2v2c0 .3-.1 2-2 2H46v2h10c1.3 0 2.6-.3 3.6-.7 1.7-.8 2.4-1.8 2.4-3.2v-2.9c0-3.1-3.8-3.2-6-3.2h-4c-1.6 0-1.8-1-2-2v-2c.2-.8.5-1.9 1.9-2H62v-2h-9.5zM68 55c-3 .4-4 1.9-4 4v10c0 1.9 1.1 3.1 3.3 3.7.8.2 1.4.3 2.1.3h7.1l2.2 2h4.5l-3.1-2.8c1.5-.6 1.9-1.5 1.9-3.2V59c0-2.1-1.4-3.6-4.3-4H68zm16 0v13.9c0 2.4 1.4 3.8 5 4h11v-2h-9.2c-2.1 0-2.8-.9-2.8-2.1V55h-4zm-13.7 2h5.1c1.4 0 2.3 1.1 2.5 2v10l-.4 1-1.1-1H72l2.2 2h-3.9c-1.4 0-2.2-1-2.4-2v-9.8c.1-1.1.9-2.2 2.4-2.2zM28 61c.1.1 0 8.5 0 8.7 0 1.7 2.2 3.3 5.7 3.3H40v.1c0 .4.3 1.6-2 1.9H28v2h10.4c1.8-.1 5.6-.5 5.6-3.5V61h-4v10h-5.9c-1.9 0-2.1-1.1-2.1-1.6V61h-4z"/></svg>