<svg xmlns="http://www.w3.org/2000/svg" viewBox="0 0 100 100"><path d="M21.5 54.7c0 .2-.1.4-.3.5-.2.1-.4.1-.6 0L15 51.9c-.4-.2-.6-.6-.6-1V44c0-.4-.2-.8-.6-1l-2.4-1.4c-.2-.1-.4-.2-.6-.2-.2 0-.4 0-.6.2L7.9 43c-.4.2-.6.6-.6 1v6.9c0 .4-.2.8-.6 1L1 55.2c-.2.1-.4.1-.6 0-.2-.1-.3-.3-.3-.5V39.9c0-.4.2-.8.6-1l9.5-5.5c.2-.1.3-.2.5-.2h.1c.2 0 .4.1.5.2l9.5 5.5c.4.2.6.6.6 1l.1 14.8zm26.1-3.4c-.1.3-.3.6-.6.7l-9.5 5.5c-.3.2-.8.2-1.2 0L26.9 52c-.3-.2-.6-.6-.6-1V40c0-.4.2-.8.6-1l9.5-5.5c.4-.2.8-.2 1.2 0l9.5 5.5c.4.2.6.6.6 1v11c-.1.1-.1.2-.1.3zM35.9 31.7h.2v-.1l-.2.1zm12.6 48.6l-3-1.8c-.5-.2-.2-.3-.1-.4.6-.2.7-.2 1.4-.6h.2l2.3 1.4h.3l9-5.2c.1 0 .1-.1.1-.2V63c0-.1 0-.2-.1-.2l-9-5.2h-.3l-9 5.2c-.1 0-.1.2-.1.2v10.4c0 .1.1.2.1.2l2.5 1.4c1.3.7 2.2-.1 2.2-.9V63.9c0-.1.1-.3.3-.3h1.1c.1 0 .3.1.3.3v10.3c0 1.8-1 2.8-2.7 2.8-.5 0-.9 0-2.1-.6L39.5 75c-.6-.3-.9-1-.9-1.6V63c0-.7.4-1.3.9-1.6l9-5.2c.6-.3 1.3-.3 1.9 0l9 5.2c.6.3.9 1 .9 1.6v10.4c0 .7-.4 1.3-.9 1.6l-9 5.2c-.3.2-.6.3-.9.3-.4 0-.7-.1-1-.2zm3.7-7c-3.9 0-4.8-1.8-4.8-3.3 0-.2.1-.3.3-.3h1.2c.1 0 .2.1.3.2.2 1.2.7 1.8 3.1 1.8 1.9 0 2.7-.4 2.7-1.4 0-.6-.2-1-3.2-1.3-2.5-.2-4-.8-4-2.8 0-1.8 1.5-2.9 4.1-2.9 2.9 0 4.3 1 4.5 3.1 0 .1 0 .1-.1.2 0 0-.1.1-.2.1h-1.2c-.1 0-.2-.1-.2-.2-.3-1.2-1-1.7-2.8-1.7-2.1 0-2.3.7-2.3 1.3 0 .7.3.8 3.1 1.2 2.8.4 4.1.9 4.1 2.8-.1 2.1-1.7 3.2-4.6 3.2zm-4.3-21.6v.1h.1l-.1-.1zm25.8-.5c0 .4-.2.8-.6 1l-9.5 5.5c-.4.2-.8.2-1.2 0l-9.5-5.5c-.4-.2-.6-.6-.6-1v-11c0-.4.2-.8.6-1l9.5-5.5c.4-.2.8-.2 1.2 0L66 35c.3.2.6 0 .6-.3V20.1c0-.4.5-.7.9-.5l5.7 3.2c.4.2.6.6.6 1v27.4zm-7.3-7.6l-3.3-1.9h-.3l-3.3 1.9c-.1 0-.1.1-.1.2v3.8c0 .1.1.2.1.2l3.3 1.9h.3l3.3-1.9c.1 0 .1-.1.1-.2v-3.8c.1-.1 0-.2-.1-.2zm-3 20.6c-.9 0-1.7-.8-1.7-1.7 0-1 .8-1.7 1.7-1.7.9 0 1.7.7 1.7 1.7.1.9-.7 1.7-1.7 1.7zm0-3.2c-.8 0-1.4.6-1.4 1.4 0 .8.7 1.5 1.4 1.5.8 0 1.5-.7 1.5-1.5 0-.7-.7-1.4-1.5-1.4zm.4 2.4c0-.1-.1-.6-.1-.6 0-.1-.1-.2-.2-.2h-.3v.8h-.4v-1.9h.7c.2 0 .7 0 .7.5 0 .4-.2.4-.4.5.3 0 .3.2.3.4s0 .4.1.5h-.4zm-.3-1.6h-.3v.5h.3c.2 0 .3-.2.3-.3 0-.2-.2-.2-.3-.2zm30-14.8c-.4.2-.9-.1-.9-.5v-2.7c0-.2-.1-.4-.3-.5l-3-1.7c-.2-.1-.4-.1-.6 0l-3 1.7c-.2.1-.3.3-.3.5v3.5c0 .2.1.4.3.5l9.6 5.5c.4.2.4.8 0 1l-5.7 3.2c-.4.2-.8.2-1.1 0L79 52.1c-.4-.2-.6-.6-.6-1V40c0-.4.2-.8.6-1l9.5-5.5c.4-.2.8-.2 1.2 0l9.5 5.5c.4.2.6.6.6 1v2.7c0 .4-.2.8-.6 1L93.5 47zM89 43.2h.2l1.8 1.1c.1 0 .1.1.1.2v2.1c0 .1 0 .1-.1.2l-1.8 1.1H89l-1.8-1.1c-.1 0-.1-.1-.1-.2v-2.1c0-.1 0-.1.1-.2l1.8-1.1z"/></svg>