<svg xmlns="http://www.w3.org/2000/svg" viewBox="0 0 100 100"><path d="M100 50c0 14.5-22.4 26.3-50 26.3S0 64.5 0 50s22.4-26.3 50-26.3 50 11.8 50 26.3zM2.6 50c0 12.4 20.6 23.7 47.4 23.7 26.8 0 47.4-11.3 47.4-23.7S76.8 26.3 50 26.3C23.2 26.3 2.6 37.6 2.6 50zm17.7-11.6h11c3.3 0 5.8.9 7.3 2.6 2.9 3.3 1.8 10-2.2 13.8-3.7 3.5-7.7 3-14.1 3l-1.4 7h-5.7l5.1-26.4zm5 4.1l-2.1 11c5.4 0 9.7.7 11-5.7 1.1-5.9-3-5.3-8.9-5.3zm24.6-11.1l-1.4 7c4.9 0 9.5-.4 11.7 1.7 2.3 2.1 1.2 4.8-1.3 17.7h-5.8c2.4-12.4 2.9-13.4 2-14.4-.8-.9-2.8-.7-7.4-.7l-2.9 15.1h-5.7l5.1-26.3h5.7zm15.3 7h11c3.3 0 5.7.9 7.3 2.6 2.9 3.3 1.8 10-2.2 13.8-3.6 3.4-7.3 3-14.1 3l-1.4 7H60l5.2-26.4zm4.9 4.1l-2.1 11c5.2 0 9.7.8 11-5.7 1.1-5.9-2.9-5.3-8.9-5.3z"/></svg>