<?xml version="1.0" encoding="utf-8"?>
<!-- Generator: Adobe Illustrator 16.0.0, SVG Export Plug-In . SVG Version: 6.00 Build 0)  -->
<!DOCTYPE svg PUBLIC "-//W3C//DTD SVG 1.1//EN" "http://www.w3.org/Graphics/SVG/1.1/DTD/svg11.dtd">
<svg version="1.1" id="Capa_1" xmlns="http://www.w3.org/2000/svg" xmlns:xlink="http://www.w3.org/1999/xlink" x="0px" y="0px"
	 width="100px" height="100px" viewBox="0 0 100 100" enable-background="new 0 0 100 100" xml:space="preserve">
<defs>
	<filter id="Adobe_OpacityMaskFilter" filterUnits="userSpaceOnUse" x="0" y="0" width="100" height="100">
		<feFlood  style="flood-color:white;flood-opacity:1" result="back"/>
		<feBlend  in="SourceGraphic" in2="back" mode="normal"/>
	</filter>
</defs>
<mask maskUnits="userSpaceOnUse" x="0" y="0" width="100" height="100" id="SVGID_1_">
	<g filter="url(#Adobe_OpacityMaskFilter)">
		<path d="M50,31.063c21.424,0,37.899,9.024,37.899,18.938S71.412,68.938,50,68.938c-21.424,0-37.899-9.024-37.899-18.938
			S28.588,31.063,50,31.063 M50,28.962c-22.087,0-40,9.413-40,21.038s17.913,21.038,40,21.038S90,61.625,90,50
			S72.087,28.962,50,28.962z M37.274,48.313c-0.986,5.063-4.476,4.538-8.761,4.538l1.712-8.826
			C34.976,44.024,38.201,43.513,37.274,48.313z M22.174,61.788h4.587l1.09-5.601c5.136,0,8.323,0.375,11.274-2.388
			c3.261-3,4.114-8.338,1.788-11.014c-1.212-1.399-3.163-2.086-5.813-2.086h-8.837L22.174,61.788z M45.389,35.087h4.56l-1.084,5.601
			c3.935,0,7.584-0.288,9.348,1.337c1.851,1.699,0.963,3.875-1.038,14.139h-4.622c1.924-9.926,2.286-10.752,1.587-11.502
			c-0.677-0.724-2.212-0.574-5.927-0.574l-2.351,12.076h-4.56L45.389,35.087L45.389,35.087z M73.125,48.313
			c-1,5.137-4.587,4.538-8.764,4.538l1.715-8.826C70.851,44.024,74.049,43.513,73.125,48.313z M58.024,61.788h4.601l1.087-5.601
			c5.402,0,8.389,0.313,11.274-2.388c3.264-3,4.114-8.338,1.788-11.014c-1.212-1.399-3.163-2.086-5.813-2.086h-8.837L58.024,61.788z
			"/>
	</g>
</mask>
<rect mask="url(#SVGID_1_)" fill="#D1A93D" width="100" height="100"/>
<defs>
	<filter id="Adobe_OpacityMaskFilter_1_" filterUnits="userSpaceOnUse" x="-720" y="0" width="100" height="100">
		<feFlood  style="flood-color:white;flood-opacity:1" result="back"/>
		<feBlend  in="SourceGraphic" in2="back" mode="normal"/>
	</filter>
</defs>
<mask maskUnits="userSpaceOnUse" x="-720" y="0" width="100" height="100" id="SVGID_2_">
	<g filter="url(#Adobe_OpacityMaskFilter_1_)">
		<g>
			<path d="M-654.055,56.932c0.542,0.406,1.016,1.016,1.422,1.828c0.813,1.558,1.05,3.352,0.711,5.383
				c-0.474,2.708-2.065,4.57-4.773,5.586c-0.542,1.219-1.286,2.234-2.234,3.047c-1.286,1.151-2.81,1.794-4.57,1.93
				c-1.625,1.354-3.792,2.031-6.5,2.031s-4.841-0.644-6.398-1.93c-1.761-0.203-3.284-0.88-4.57-2.031
				c-0.948-0.813-1.727-1.828-2.336-3.047c-2.708-1.016-4.3-2.878-4.773-5.586c-0.271-1.422-0.203-2.776,0.203-4.063
				c0.271-0.88,0.677-1.659,1.219-2.336l0.711-0.813c0.136,0.88,0.423,1.71,0.863,2.488s0.965,1.438,1.574,1.98
				c0.271-1.828,0.406-3.927,0.406-6.297c0-0.678-0.169-1.287-0.508-1.828c-0.271-0.406-0.508-0.678-0.711-0.813l-0.813-0.508
				c-1.286-0.678-2.2-1.252-2.742-1.727c-0.948-0.813-1.422-1.727-1.422-2.742c0-0.677,0.203-1.287,0.609-1.828
				c0.203-0.271,0.542-0.576,1.016-0.914l0.203-0.203c0.271-0.203,0.406-0.373,0.406-0.508c0.203-0.406,0.321-1.083,0.355-2.031
				s-0.017-1.523-0.152-1.727c-0.271-0.338-0.542-0.779-0.813-1.32c-0.474-1.016-0.609-1.913-0.406-2.691s0.677-1.337,1.422-1.676
				c0.542-0.271,1.219-0.44,2.031-0.508l0.102-0.609c0.067-0.338,0.102-0.609,0.102-0.813c-0.067-0.609-0.169-0.982-0.305-1.117
				c-0.339-0.542-0.914-1.016-1.727-1.422c-0.609-0.271-1.016-0.406-1.219-0.406l-1.219-0.203l0.813-1.016
				c0.339-0.271,0.778-0.542,1.32-0.813c1.016-0.609,2.133-0.914,3.352-0.914c0.813,0,1.625,0.135,2.438,0.406
				c1.828,0.542,3.521,1.862,5.078,3.961l0.609-0.203c-0.067-0.813,0.102-1.625,0.508-2.438c0.271-0.677,0.66-1.252,1.168-1.727
				s0.897-0.711,1.168-0.711v0.305c0.067,1.354,0.305,2.167,0.711,2.438c0.271-1.896,1.591-3.25,3.961-4.063
				c-0.406,1.151-0.339,2.404,0.203,3.758c0.609-0.542,1.219-0.948,1.828-1.219c0.406-0.203,0.778-0.305,1.117-0.305h0.508
				l-0.609,1.32c-0.406,1.016-0.508,1.862-0.305,2.539l0.914,0.305c1.558-2.099,3.25-3.419,5.078-3.961
				c0.813-0.271,1.642-0.406,2.488-0.406s1.676,0.135,2.488,0.406c0.542,0.203,1.05,0.508,1.523,0.914
				c0.406,0.203,0.609,0.338,0.609,0.406l0.813,1.016l-1.219,0.203c-0.203,0-0.609,0.135-1.219,0.406
				c-0.813,0.338-1.388,0.813-1.727,1.422c-0.136,0.135-0.203,0.508-0.203,1.117c-0.067,0.203-0.034,0.474,0.102,0.813v0.609
				c0.813,0,1.489,0.169,2.031,0.508c0.745,0.338,1.219,0.897,1.422,1.676s0.067,1.676-0.406,2.691
				c-0.271,0.609-0.508,1.033-0.711,1.27s-0.288,0.83-0.254,1.777s0.152,1.625,0.355,2.031c0.067,0.135,0.203,0.305,0.406,0.508
				l0.203,0.102c0.474,0.406,0.813,0.745,1.016,1.016c0.406,0.542,0.609,1.151,0.609,1.828c0,1.016-0.474,1.93-1.422,2.742
				c-0.542,0.474-1.456,1.049-2.742,1.727l-0.813,0.406c-0.203,0.203-0.44,0.508-0.711,0.914c-0.339,0.541-0.508,1.15-0.508,1.828
				c0,2.37,0.136,4.469,0.406,6.297C-655.07,60.182-654.258,58.692-654.055,56.932z M-683.609,51.143
				c0.474,0.271,0.897,0.711,1.27,1.32s0.593,1.32,0.66,2.133c0.136,1.692,0.034,4.266-0.305,7.719
				c1.016,0.406,2.336,0.644,3.961,0.711c0.271-0.474,0.474-0.914,0.609-1.32l1.117-2.844c0.745-1.828,1.253-3.013,1.523-3.555
				c-0.406,2.979-1.185,6.026-2.336,9.141c0.406-0.067,0.813-0.102,1.219-0.102h11.883c0.406,0,0.778,0.034,1.117,0.102
				c-1.151-3.114-1.93-6.128-2.336-9.039c0.271,0.474,0.778,1.625,1.523,3.453l1.117,2.844c0.136,0.406,0.339,0.847,0.609,1.32
				c1.625-0.067,2.945-0.305,3.961-0.711c-0.339-3.453-0.44-6.026-0.305-7.719c0.067-0.813,0.288-1.523,0.66-2.133
				s0.796-1.049,1.27-1.32l0.813-0.508c1.016-0.542,1.727-0.982,2.133-1.32c0.677-0.542,1.016-1.1,1.016-1.676
				s-0.085-0.982-0.254-1.219s-0.39-0.457-0.66-0.66l-0.305-0.305c0.136,0.88,0.237,1.388,0.305,1.523l-0.406-0.508
				c-0.203-0.406-0.406-0.88-0.609-1.422c-0.271-0.813-0.474-1.659-0.609-2.539c-0.067-0.609-0.051-1.371,0.051-2.285
				s0.254-1.608,0.457-2.082v1.422l0.203-0.203c0.271-0.271,0.508-0.643,0.711-1.117c0.271-0.609,0.355-1.117,0.254-1.523
				s-0.339-0.694-0.711-0.863s-0.897-0.254-1.574-0.254c-0.948,0-2.065,0.203-3.352,0.609c-1.761,0.542-3.927,1.828-6.5,3.859
				l-0.609,0.406l0.406-0.609c0.339-0.609,0.813-1.219,1.422-1.828c1.219-1.287,2.539-2.268,3.961-2.945
				c-0.339-0.406-1.083-0.914-2.234-1.523c-2.167-1.016-4.672-1.523-7.516-1.523s-5.349,0.508-7.516,1.523
				c-1.151,0.609-1.896,1.151-2.234,1.625c1.422,0.609,2.742,1.557,3.961,2.844c0.609,0.609,1.083,1.219,1.422,1.828l0.406,0.609
				l-0.609-0.406c-2.573-2.031-4.739-3.318-6.5-3.859c-1.286-0.406-2.403-0.609-3.352-0.609c-0.677,0-1.202,0.084-1.574,0.254
				s-0.609,0.457-0.711,0.863s0.017,0.914,0.355,1.523c0.203,0.406,0.406,0.779,0.609,1.117l0.203,0.203v-1.422
				c0.203,0.406,0.355,1.083,0.457,2.031s0.118,1.727,0.051,2.336c-0.067,0.88-0.271,1.727-0.609,2.539
				c-0.136,0.542-0.339,1.016-0.609,1.422l-0.406,0.508c0.136-0.135,0.237-0.643,0.305-1.523l-0.305,0.305
				c-0.271,0.203-0.474,0.423-0.609,0.66s-0.203,0.643-0.203,1.219s0.305,1.134,0.914,1.676c0.406,0.338,1.117,0.779,2.133,1.32
				l0.102,0.102C-683.981,50.939-683.745,51.074-683.609,51.143z M-685.945,65.869c0.542,0.948,1.354,1.676,2.438,2.184
				s2.234,0.762,3.453,0.762c-0.474-1.354-0.339-2.438,0.406-3.25l0.914-1.117c-1.692-0.067-3.183-0.406-4.469-1.016
				c-1.558-0.813-2.606-2.031-3.148-3.656c-0.339,0.339-0.474,1.151-0.406,2.438C-686.758,63.702-686.487,64.921-685.945,65.869z
				 M-684.828,29.307c0.271,0,0.575-0.034,0.914-0.102c1.083,0,2.031,0.305,2.844,0.914c1.016,0.745,1.727,1.523,2.133,2.336
				l1.219-0.609c-1.151-1.76-2.438-2.844-3.859-3.25c-0.542-0.203-1.117-0.305-1.727-0.305c-0.88,0-1.727,0.169-2.539,0.508
				C-685.505,28.934-685.167,29.104-684.828,29.307z M-683.305,43.932c0.067-0.609,0.305-1.016,0.711-1.219
				c-0.474-0.135-0.914-0.271-1.32-0.406c1.828-0.406,3.656-0.135,5.484,0.813c1.083,0.609,2.065,1.422,2.945,2.438
				c0.474,0.609,1.05,0.982,1.727,1.117c0.406,0.068,0.847,0.068,1.32,0l0.609-0.203c0,0.542-0.22,0.999-0.66,1.371
				s-0.965,0.559-1.574,0.559c0.067,0.677-0.136,1.422-0.609,2.234l-0.711,1.117c0.339-1.016,0.406-1.896,0.203-2.641l-0.305-0.813
				c-0.813,0.745-1.896,0.948-3.25,0.609c-1.016-0.271-1.794-0.677-2.336-1.219c-0.813-0.88-1.253-2.031-1.32-3.453
				c-0.203,0.406-0.339,0.948-0.406,1.625l-0.305-0.508C-683.237,44.879-683.305,44.406-683.305,43.932z M-680.359,33.369
				c-0.271-1.016-0.694-1.76-1.27-2.234s-1.27-0.711-2.082-0.711l0.305,0.305c0.203,0.406,0.339,1.016,0.406,1.828
				s0.203,1.388,0.406,1.727l1.219,0.305C-681.172,34.182-680.833,33.775-680.359,33.369z M-681.273,70.236
				c0.813,1.219,1.828,2.099,3.047,2.641c-0.406-0.609-0.813-1.388-1.219-2.336C-680.122,70.474-680.731,70.372-681.273,70.236z
				 M-680.359,43.729c-0.203,0.609-0.254,1.287-0.152,2.031s0.39,1.287,0.863,1.625c0.677,0.542,1.422,0.745,2.234,0.609
				c0.542,0,1.083-0.169,1.625-0.508c-0.406-0.542-1.032-1.151-1.879-1.828S-679.411,44.338-680.359,43.729z M-670,75.314
				c4.198,0,7.075-2.2,8.633-6.602c0.339-1.016,0.305-1.777-0.102-2.285s-1.253-0.762-2.539-0.762h-11.984
				c-1.286,0-2.133,0.254-2.539,0.762s-0.44,1.304-0.102,2.387C-677.075,73.147-674.198,75.314-670,75.314z M-672.336,67.494
				c-0.203-0.203-0.508-0.305-0.914-0.305h-2.945c-0.474,0-0.813,0.102-1.016,0.305s-0.237,0.474-0.102,0.813
				c0.271,0.677,0.745,1.32,1.422,1.93c0.339,0.271,0.728,0.406,1.168,0.406s0.829-0.136,1.168-0.406
				c0.609-0.677,1.05-1.354,1.32-2.031C-672.167,67.935-672.2,67.697-672.336,67.494z M-672.742,42.002l0.914,0.914
				c0.677,0.609,1.286,0.914,1.828,0.914s1.151-0.305,1.828-0.914l0.914-0.914c-0.88,0.542-1.794,0.813-2.742,0.813
				S-671.862,42.543-672.742,42.002z M-665.938,48.4c-0.609,0-1.134-0.186-1.574-0.559s-0.66-0.83-0.66-1.371h0.102
				c0.271,0.203,0.644,0.305,1.117,0.305c0.948,0,1.761-0.406,2.438-1.219c0.88-1.016,1.862-1.828,2.945-2.438
				c1.828-0.948,3.656-1.219,5.484-0.813c-0.406,0.135-0.847,0.271-1.32,0.406c0.406,0.203,0.644,0.609,0.711,1.219
				c0,0.474-0.067,0.948-0.203,1.422l-0.305,0.508c-0.067-0.609-0.203-1.151-0.406-1.625c-0.136,1.422-0.575,2.573-1.32,3.453
				c-0.542,0.542-1.32,0.948-2.336,1.219c-1.286,0.338-2.37,0.135-3.25-0.609l-0.305,0.813c-0.136,0.474-0.136,1.049,0,1.727
				l0.305,0.914l-0.813-1.117C-665.802,49.822-666.005,49.078-665.938,48.4z M-662.789,67.494c-0.203-0.136-0.508-0.237-0.914-0.305
				h-3.047c-0.406,0-0.694,0.102-0.863,0.305s-0.22,0.44-0.152,0.711c0.271,0.609,0.711,1.253,1.32,1.93
				c0.339,0.339,0.728,0.508,1.168,0.508s0.829-0.169,1.168-0.508c0.677-0.542,1.151-1.151,1.422-1.828
				C-662.552,67.968-662.586,67.697-662.789,67.494z M-664.109,47.486v0.102h-0.102c0.542,0.271,1.05,0.44,1.523,0.508
				c0.88,0.068,1.659-0.169,2.336-0.711c0.474-0.338,0.762-0.88,0.863-1.625s0.051-1.422-0.152-2.031
				c-0.948,0.609-1.845,1.252-2.691,1.93S-663.771,46.945-664.109,47.486z M-658.422,28.596c-1.422,0.406-2.708,1.49-3.859,3.25
				l1.219,0.609c0.406-0.813,1.117-1.591,2.133-2.336c0.813-0.609,1.761-0.914,2.844-0.914c0.339,0,0.644,0.034,0.914,0.102
				c0.339-0.203,0.677-0.373,1.016-0.508c-0.813-0.338-1.659-0.508-2.539-0.508C-657.305,28.291-657.88,28.393-658.422,28.596z
				 M-661.773,72.877c1.219-0.542,2.269-1.422,3.148-2.641c-0.677,0.136-1.32,0.203-1.93,0.203
				C-660.961,71.455-661.367,72.268-661.773,72.877z M-654.055,65.869c0.542-0.948,0.847-2.133,0.914-3.555
				c0-1.354-0.169-2.167-0.508-2.438c-0.474,1.558-1.523,2.742-3.148,3.555c-1.219,0.609-2.675,0.948-4.367,1.016l0.813,1.117
				c0.745,0.813,0.88,1.896,0.406,3.25c1.219,0,2.37-0.254,3.453-0.762S-654.597,66.817-654.055,65.869z M-656.289,30.424
				c-0.745,0-1.422,0.237-2.031,0.711s-1.05,1.219-1.32,2.234c0.406,0.406,0.745,0.813,1.016,1.219l1.219-0.305
				c0.203-0.338,0.339-0.931,0.406-1.777s0.203-1.439,0.406-1.777L-656.289,30.424z"/>
		</g>
	</g>
</mask>
<rect x="-720" mask="url(#SVGID_2_)" fill="#D1A93D" width="100" height="100"/>
<defs>
	<filter id="Adobe_OpacityMaskFilter_2_" filterUnits="userSpaceOnUse" x="-600" y="0" width="100" height="100">
		<feFlood  style="flood-color:white;flood-opacity:1" result="back"/>
		<feBlend  in="SourceGraphic" in2="back" mode="normal"/>
	</filter>
</defs>
<mask maskUnits="userSpaceOnUse" x="-600" y="0" width="100" height="100" id="SVGID_3_">
	<g filter="url(#Adobe_OpacityMaskFilter_2_)">
		<g>
			<path d="M-569.5,27.986h39l-3.555,40.219L-550,73.486l-15.945-5.281L-569.5,27.986z M-538.219,40.986l0.508-4.875h-24.477
				l1.219,14.828h16.961l-0.609,6.297L-550,58.658l-5.484-1.422l-0.305-3.859h-4.875l0.609,7.719l10.156,2.742l9.953-2.742
				l1.32-15.133h-17.773l-0.508-4.977H-538.219z"/>
		</g>
	</g>
</mask>
<rect x="-600" mask="url(#SVGID_3_)" fill="#D1A93D" width="100" height="100"/>
<defs>
	<filter id="Adobe_OpacityMaskFilter_3_" filterUnits="userSpaceOnUse" x="-480" y="0" width="100" height="100">
		<feFlood  style="flood-color:white;flood-opacity:1" result="back"/>
		<feBlend  in="SourceGraphic" in2="back" mode="normal"/>
	</filter>
</defs>
<mask maskUnits="userSpaceOnUse" x="-480" y="0" width="100" height="100" id="SVGID_4_">
	<g filter="url(#Adobe_OpacityMaskFilter_3_)">
		<g>
			<path d="M-449.5,27.986h39l-3.555,40.219L-430,73.486l-15.945-5.281L-449.5,27.986z M-417.711,36.111h-24.578l0.609,4.773h12.492
				l-12.086,5.078l0.406,4.672h16.859l-0.406,6.297l-5.484,1.523l-5.383-1.32l-0.305-3.859h-4.977l0.609,7.516l10.055,2.945
				l9.953-2.945l1.32-14.828h-11.273l11.68-5.078L-417.711,36.111z"/>
		</g>
	</g>
</mask>
<rect x="-480" mask="url(#SVGID_4_)" fill="#D1A93D" width="100" height="100"/>
<defs>
	<filter id="Adobe_OpacityMaskFilter_4_" filterUnits="userSpaceOnUse" x="-360" y="0" width="100" height="100">
		<feFlood  style="flood-color:white;flood-opacity:1" result="back"/>
		<feBlend  in="SourceGraphic" in2="back" mode="normal"/>
	</filter>
</defs>
<mask maskUnits="userSpaceOnUse" x="-360" y="0" width="100" height="100" id="SVGID_5_">
	<g filter="url(#Adobe_OpacityMaskFilter_4_)">
		<g>
			<path d="M-292.125,27.986c1.354,0,2.505,0.474,3.453,1.422s1.422,2.099,1.422,3.453v35.75c0,1.354-0.474,2.505-1.422,3.453
				s-2.099,1.422-3.453,1.422h-35.75c-1.354,0-2.505-0.474-3.453-1.422s-1.422-2.099-1.422-3.453v-35.75
				c0-1.354,0.474-2.505,1.422-3.453s2.099-1.422,3.453-1.422H-292.125z M-307.969,63.432V48.908h-4.266v14.523
				c0,1.016-0.203,1.71-0.609,2.082s-0.965,0.559-1.676,0.559s-1.27-0.203-1.676-0.609c-0.339-0.271-0.711-0.778-1.117-1.523
				l-3.453,2.031c1.219,2.641,3.352,3.961,6.398,3.961c1.964,0,3.521-0.542,4.672-1.625S-307.969,65.599-307.969,63.432z
				 M-297.914,69.932c2.099,0,3.809-0.524,5.129-1.574s1.98-2.522,1.98-4.418c0-1.692-0.474-3.047-1.422-4.063
				c-0.88-0.88-2.302-1.761-4.266-2.641l-1.016-0.406c-1.016-0.474-1.71-0.88-2.082-1.219s-0.559-0.795-0.559-1.371
				s0.187-1.033,0.559-1.371s0.863-0.508,1.473-0.508s1.134,0.135,1.574,0.406s0.829,0.744,1.168,1.422l3.352-2.133
				c-0.677-1.219-1.507-2.099-2.488-2.641s-2.184-0.813-3.605-0.813c-1.896,0-3.419,0.542-4.57,1.625
				c-1.151,1.084-1.727,2.438-1.727,4.063s0.474,2.979,1.422,4.063c0.813,0.88,2.065,1.659,3.758,2.336l1.016,0.508
				c1.219,0.542,1.997,0.948,2.336,1.219c0.542,0.406,0.813,0.931,0.813,1.574s-0.271,1.168-0.813,1.574s-1.253,0.609-2.133,0.609
				c-1.692,0-3.081-0.88-4.164-2.641l-3.453,2.031c0.677,1.286,1.625,2.336,2.844,3.148
				C-301.435,69.525-299.81,69.932-297.914,69.932z"/>
		</g>
	</g>
</mask>
<rect x="-360" mask="url(#SVGID_5_)" fill="#D1A93D" width="100" height="100"/>
<rect x="-240" fill="#D1A93D" width="100" height="100"/>
<g>
	<path d="M-190,25.549c4.536,0,8.734,1.134,12.594,3.402s6.923,5.332,9.191,9.191s3.402,8.057,3.402,12.594
		c0,4.537-1.134,8.734-3.402,12.594s-5.332,6.923-9.191,9.191s-8.058,3.402-12.594,3.402s-8.734-1.134-12.594-3.402
		s-6.923-5.332-9.191-9.191s-3.402-8.057-3.402-12.594c0-4.537,1.134-8.734,3.402-12.594s5.332-6.923,9.191-9.191
		S-194.536,25.549-190,25.549z M-212.648,50.736c0,4.4,1.168,8.43,3.504,12.086s5.434,6.433,9.293,8.328l-10.867-29.656
		C-212.005,44.406-212.648,47.486-212.648,50.736z M-186.852,40.072l8.125,24.375l2.438-8.023c0.542-1.828,0.914-3.115,1.117-3.859
		c0.339-1.15,0.508-2.133,0.508-2.945c0-1.287-0.203-2.505-0.609-3.656c-0.271-0.745-0.711-1.625-1.32-2.641l-0.305-0.406
		c-0.609-1.083-1.05-1.896-1.32-2.438c-0.406-0.88-0.609-1.693-0.609-2.438c0-1.083,0.372-2.031,1.117-2.844
		s1.659-1.219,2.742-1.219l0.305,0.102c-2.099-1.896-4.452-3.369-7.059-4.418s-5.366-1.574-8.277-1.574
		c-3.859,0-7.465,0.914-10.816,2.742s-6.043,4.299-8.074,7.414l1.422,0.102c1.016,0,2.336-0.068,3.961-0.203l2.031-0.102
		c0.406,0,0.694,0.135,0.863,0.406s0.203,0.576,0.102,0.914s-0.355,0.508-0.762,0.508l-2.641,0.203l8.328,24.578l4.875-14.828
		l-3.453-9.648l-2.438-0.305c-0.339,0-0.575-0.152-0.711-0.457s-0.118-0.609,0.051-0.914s0.457-0.457,0.863-0.457l2.133,0.102
		c1.625,0.135,2.911,0.203,3.859,0.203s2.234-0.068,3.859-0.203l2.133-0.102c0.339,0,0.609,0.135,0.813,0.406
		s0.237,0.576,0.102,0.914s-0.406,0.508-0.813,0.508C-185.192,39.937-186.039,40.004-186.852,40.072z M-190,73.385
		c2.573,0,5.078-0.44,7.516-1.32l-0.203-0.305l-6.906-19.094l-6.805,19.805C-194.3,73.08-192.167,73.385-190,73.385z
		 M-178.625,70.338c3.453-2.031,6.195-4.773,8.227-8.227s3.047-7.244,3.047-11.375c0-3.859-0.914-7.482-2.742-10.867
		c0.067,0.745,0.102,1.523,0.102,2.336c0,2.505-0.575,5.213-1.727,8.125L-178.625,70.338z"/>
</g>
<rect x="-120" fill="#D1A93D" width="100" height="100"/>
<g>
	<path d="M-53.75,72.014c0,1.354-0.474,2.505-1.422,3.453s-2.099,1.422-3.453,1.422h-22.75c-1.354,0-2.505-0.474-3.453-1.422
		s-1.422-2.099-1.422-3.453v-42.25c0-1.354,0.474-2.505,1.422-3.453s2.099-1.422,3.453-1.422h22.75c1.354,0,2.505,0.474,3.453,1.422
		s1.422,2.099,1.422,3.453V72.014z M-58.625,30.373c0-0.135-0.067-0.271-0.203-0.406s-0.271-0.203-0.406-0.203h-21.531
		c-0.136,0-0.271,0.068-0.406,0.203s-0.203,0.271-0.203,0.406v41.031c0,0.136,0.067,0.271,0.203,0.406s0.271,0.203,0.406,0.203
		h21.531c0.136,0,0.271-0.067,0.406-0.203s0.203-0.271,0.203-0.406V30.373z M-61.875,34.232c0-0.338-0.118-0.626-0.355-0.863
		s-0.524-0.355-0.863-0.355h-13.813c-0.339,0-0.626,0.119-0.863,0.355s-0.355,0.525-0.355,0.863v26.813
		c0,0.339,0.118,0.626,0.355,0.863s0.524,0.355,0.863,0.355h13.813c0.339,0,0.626-0.118,0.863-0.355s0.355-0.524,0.355-0.863V34.232
		z M-67.715,69.424c-0.644,0.644-1.405,0.965-2.285,0.965s-1.642-0.321-2.285-0.965s-0.965-1.405-0.965-2.285
		s0.321-1.642,0.965-2.285s1.405-0.965,2.285-0.965s1.642,0.321,2.285,0.965s0.965,1.405,0.965,2.285S-67.071,68.78-67.715,69.424z"
		/>
</g>
<rect x="120" fill="#D1A93D" width="100" height="100"/>
<text transform="matrix(1 0 0 1 150.5 70.2363)" font-family="'FontAwesome5BrandsRegular'" font-size="52"></text>
</svg>
