<svg id="Capa_1" xmlns="http://www.w3.org/2000/svg" viewBox="0 0 100 100"><style>.st0{fill:#FFFFFF;}</style><path class="st0" d="M87 32.7c0 4.6-6.1 9-14.4 11.8-.4.1-.9.3-1.3.4.1.7.3 1.3.4 1.9 1.6 8.3.4 15.2-3.6 17.4-3.8 2.1-9.9 0-16.1-5.3-.7-.6-1.3-1.2-2-1.8-.5.5-1 1-1.6 1.4-6.4 5.6-13 7.9-16.9 5.6-3.8-2.2-5-8.5-3.5-16.6.1-.9.4-1.7.6-2.6-.7-.2-1.3-.4-2-.6C18.9 41.7 13 37.2 13 32.7c0-4.4 5.6-8.6 13.3-11.3l2.7-.9c-.2-.8-.4-1.6-.5-2.4-1.7-8.1-.6-14.6 3.2-16.9 3.9-2.3 10.5.1 17.1 6L50 8.4c.6-.6 1.2-1.1 1.8-1.6C58.1 1.2 64.3-1 68.1 1.2c3.9 2.3 5.1 9.2 3.3 17.8-.1.5-.2 1-.4 1.6.8.2 1.6.4 2.4.7 7.9 2.8 13.6 7 13.6 11.4zm-53.7.1c-1.4-3-2.6-6.1-3.6-9.2-.8.2-1.7.5-2.5.8-6.6 2.3-11.2 5.7-11.2 8.4.3 1.8 1.3 3.3 2.7 4.3 2.5 2 6 3.6 9.1 4.5l1.8.6c1.1-3.3 2.3-6.4 3.7-9.4zM47.9 55c-2.2-2.4-4.4-5-6.2-7.7-3.3-.2-6.6-.7-9.8-1.4-.2.8-.4 1.6-.5 2.4-1.3 6.9-.4 12 1.9 13.3 1.6.7 3.5.6 5.1-.2 3-1.2 5.8-2.9 8.1-5.1.5-.4 1-.9 1.4-1.3zM31.4 17.6c.1.7.3 1.5.5 2.2 3.2-.7 6.4-1.2 9.7-1.5 1.9-2.7 4-5.3 6.2-7.7-.4-.4-.7-.7-1.1-1-5.7-5-11.1-7-13.5-5.6-2.2 1.3-3.1 6.6-1.8 13.6zm3.7 18.9c-.9 2.2-1.7 4.4-2.4 6.4 2.2.4 4.4.8 6.7 1.1-.8-1.3-1.6-2.5-2.3-3.8-.6-1.2-1.3-2.5-2-3.7zm0-7.3c.7-1.3 1.3-2.5 2.1-3.8.7-1.3 1.5-2.4 2.2-3.7-2.3.3-4.5.7-6.6 1.1.6 2.1 1.4 4.2 2.3 6.4zm4.8 9.4c1.1 1.9 2.3 3.8 3.6 5.6 2.1.1 4.3.2 6.6.2s4.5-.1 6.7-.2c1.3-1.9 2.4-3.7 3.5-5.6 1.1-1.9 2.1-3.9 3.1-5.9-1-2-2-3.9-3.1-5.8s-2.3-3.8-3.5-5.6c-2.3-.2-4.5-.3-6.8-.3s-4.4.1-6.7.2c-1.3 1.9-2.4 3.7-3.6 5.6s-2.1 3.8-3.1 5.8c1.1 2.2 2.1 4.1 3.3 6zm3.5-5.8c0-3.6 3-6.6 6.6-6.6s6.6 3 6.6 6.6c0 3.6-3 6.6-6.6 6.6s-6.6-3-6.6-6.6zm2.3-14.7c2.9-.1 5.8-.1 8.6 0-1.3-1.8-2.7-3.6-4.3-5.2-1.4 1.5-2.9 3.3-4.3 5.2zm8.7 29.4c-1.4.1-2.9.1-4.4.1s-2.9 0-4.3-.1c1.4 1.9 2.9 3.6 4.4 5.3 1.5-1.7 2.9-3.4 4.3-5.3zm-2.2-36.9c2.2 2.4 4.3 5 6.1 7.7 3.3.3 6.5.8 9.7 1.6.1-.4.2-1 .3-1.5 1.7-7.5.7-13.1-1.7-14.5-2.3-1.3-7.3.5-12.7 5.2-.6.5-1.2 1-1.7 1.5zm16.5 36.9c-.1-.6-.2-1.2-.4-1.8-3.3.7-6.5 1.3-9.8 1.6-1.9 2.7-3.9 5.3-6.1 7.8.6.6 1.3 1.1 1.9 1.6 5.3 4.5 10.2 6.3 12.5 5 1.4-1.1 2.2-2.7 2.4-4.5.3-3.3.2-6.6-.5-9.7zm-8.1-3.6c2.3-.2 4.6-.7 6.8-1.2-.7-2.2-1.6-4.3-2.4-6.4-.7 1.3-1.4 2.6-2.1 3.8-.8 1.3-1.5 2.6-2.3 3.8zm6.7-21c-2.1-.4-4.3-.9-6.7-1.2.7 1.2 1.5 2.4 2.2 3.6.7 1.3 1.4 2.5 2.1 3.8.9-2 1.7-4.1 2.4-6.2zm16.6 9.8c0-2.7-4.7-6.1-11.5-8.4-.7-.2-1.4-.4-2.1-.7-1 3.1-2.1 6.1-3.6 9.1 1.4 3 2.7 6.1 3.7 9.3.4-.1.8-.2 1.3-.4 7.2-2.4 12.2-6.1 12.2-8.9zM3.1 78.3c.1 0 .2 0 .3.1.1 0 .2.1.3.2l.3.3 10.9 14.3c0-.3-.1-.7-.1-1V78.3h3.4v21.3h-2c-.3 0-.6 0-.8-.1-.2-.1-.4-.3-.6-.5L4 84.7v14.9H.7V78.3h2.4zM40.5 99.6h-3c-.3 0-.6-.1-.8-.3-.2-.2-.4-.4-.5-.6l-1.5-4.4h-8.6l-1.5 4.4c-.1.2-.2.4-.5.6-.2.2-.5.3-.8.3h-3l8.1-21.3h3.9l8.2 21.3zm-13.4-8h6.6l-2.5-7.1c-.1-.3-.2-.7-.4-1.1-.1-.4-.3-.9-.4-1.4-.1.5-.3 1-.4 1.4-.1.4-.3.8-.4 1.1l-2.5 7.1zM55.2 78.3v3.3H49v18.1h-3.9V81.6h-6.3v-3.3h16.4zM62 99.6h-3.9V78.3H62v21.3zM64.6 78.3h3.1c.3 0 .6.1.8.3.2.2.4.4.5.6l4.9 13c.2.4.3.9.5 1.4.1.5.3 1 .4 1.6.2-1.1.5-2.1.8-3l4.9-13c.1-.2.2-.4.5-.6.2-.2.5-.3.8-.3h3.1l-8.4 21.3H73l-8.4-21.3zM100.1 78.3v3.2h-9.2v5.9h7.2v3.1h-7.2v6h9.2v3.2H87V78.3h13.1z"/></svg>