<svg xmlns="http://www.w3.org/2000/svg" width="100" height="100" viewBox="0 0 100 100"><defs><filter id="a" filterUnits="userSpaceOnUse" x="-840" y="0" width="100" height="100"><feFlood result="back" flood-color="#fff" flood-opacity="1"/><feBlend in="SourceGraphic" in2="back"/></filter></defs><mask maskUnits="userSpaceOnUse" x="-840" y="0" width="100" height="100" id="b"><path d="M-790 31.063c21.424 0 37.9 9.024 37.9 18.938S-768.59 68.94-790 68.94c-21.424 0-37.9-9.024-37.9-18.938s16.488-18.937 37.9-18.937m0-2.1c-22.087 0-40 9.412-40 21.037s17.913 21.038 40 21.038 40-9.413 40-21.038-17.913-21.038-40-21.038zm-12.726 19.35c-.986 5.063-4.476 4.538-8.76 4.538l1.71-8.825c4.752 0 7.977-.512 7.05 4.288zm-15.1 13.475h4.587l1.09-5.6c5.137 0 8.324.374 11.275-2.39 3.26-3 4.114-8.337 1.788-11.013-1.212-1.4-3.163-2.086-5.813-2.086h-8.837l-4.09 21.088zm23.215-26.7h4.56l-1.085 5.6c3.935 0 7.584-.288 9.348 1.337 1.85 1.7.963 3.875-1.038 14.14h-4.622c1.924-9.927 2.286-10.753 1.587-11.503-.677-.724-2.212-.574-5.927-.574l-2.35 12.076h-4.56l4.086-21.077zm27.735 13.225c-1 5.137-4.587 4.538-8.764 4.538l1.716-8.825c4.775 0 7.973-.512 7.05 4.288zm-15.1 13.475h4.6l1.087-5.6c5.402 0 8.39.312 11.274-2.39 3.264-3 4.114-8.337 1.788-11.013-1.212-1.4-3.163-2.086-5.813-2.086h-8.836l-4.1 21.088z" filter="url(#a)"/></mask><path mask="url(#b)" fill="#D1A93D" d="M-840 0h100v100h-100z"/><defs><filter id="c" filterUnits="userSpaceOnUse" x="-1560" y="0" width="100" height="100"><feFlood result="back" flood-color="#fff" flood-opacity="1"/><feBlend in="SourceGraphic" in2="back"/></filter></defs><mask maskUnits="userSpaceOnUse" x="-1560" y="0" width="100" height="100" id="d"><path d="M-1494.055 56.932c.542.406 1.016 1.016 1.422 1.828.813 1.558 1.05 3.352.71 5.383-.473 2.708-2.064 4.57-4.772 5.586-.542 1.218-1.286 2.233-2.234 3.046-1.285 1.15-2.81 1.794-4.57 1.93-1.624 1.354-3.79 2.03-6.5 2.03s-4.84-.643-6.397-1.93c-1.76-.202-3.284-.88-4.57-2.03-.948-.813-1.727-1.828-2.336-3.047-2.708-1.017-4.3-2.88-4.773-5.587-.27-1.422-.203-2.776.203-4.063.27-.88.677-1.66 1.22-2.336l.71-.813c.136.88.423 1.71.863 2.49s.965 1.437 1.574 1.98c.27-1.83.406-3.928.406-6.298 0-.678-.17-1.287-.508-1.828-.27-.406-.508-.678-.71-.813l-.814-.507c-1.286-.678-2.2-1.252-2.742-1.727-.948-.813-1.422-1.727-1.422-2.742 0-.677.203-1.287.61-1.828.202-.27.54-.576 1.015-.914l.202-.203c.27-.204.406-.374.406-.51.203-.405.32-1.082.355-2.03s-.017-1.523-.152-1.727c-.27-.338-.54-.78-.812-1.32-.474-1.016-.61-1.913-.406-2.69s.677-1.338 1.422-1.677c.542-.27 1.22-.44 2.03-.508l.103-.61c.067-.337.102-.608.102-.812-.068-.61-.17-.982-.306-1.117-.34-.543-.914-1.017-1.727-1.423-.61-.27-1.016-.406-1.22-.406l-1.218-.202.812-1.016c.34-.27.778-.542 1.32-.813 1.016-.61 2.133-.915 3.352-.915.813 0 1.625.135 2.438.406 1.828.543 3.52 1.863 5.078 3.962l.61-.203c-.068-.814.1-1.626.507-2.44.27-.676.66-1.25 1.168-1.726s.897-.71 1.168-.71v.304c.067 1.354.305 2.167.71 2.438.272-1.896 1.592-3.25 3.962-4.063-.406 1.15-.34 2.404.203 3.758.61-.54 1.22-.947 1.828-1.218.406-.203.778-.305 1.117-.305h.508l-.608 1.32c-.406 1.016-.508 1.862-.305 2.54l.914.304c1.56-2.098 3.25-3.418 5.08-3.96.812-.27 1.64-.406 2.487-.406s1.676.135 2.488.406c.542.203 1.05.508 1.523.914.406.203.61.338.61.406l.812 1.016-1.22.203c-.202 0-.608.134-1.218.405-.813.338-1.388.813-1.727 1.422-.136.135-.203.508-.203 1.117-.067.203-.034.474.102.813v.61c.813 0 1.49.168 2.03.507.746.338 1.22.897 1.423 1.676s.067 1.676-.406 2.69c-.27.61-.507 1.034-.71 1.27s-.288.83-.254 1.778.152 1.625.355 2.03c.068.136.204.306.407.51l.203.1c.474.407.813.746 1.016 1.017.406.542.61 1.15.61 1.828 0 1.016-.475 1.93-1.423 2.742-.542.474-1.456 1.05-2.742 1.727l-.812.406c-.203.203-.44.508-.71.914-.34.54-.51 1.15-.51 1.828 0 2.37.137 4.47.407 6.297 1.425-1.215 2.237-2.705 2.44-4.465zm-29.554-5.79c.475.272.898.712 1.27 1.32s.594 1.32.66 2.134c.137 1.692.035 4.266-.304 7.72 1.016.405 2.336.643 3.96.71.272-.474.475-.914.61-1.32l1.117-2.844c.745-1.828 1.253-3.013 1.523-3.555-.406 2.98-1.185 6.026-2.336 9.14.406-.066.813-.1 1.22-.1h11.882c.406 0 .778.033 1.117.1-1.152-3.113-1.93-6.127-2.337-9.038.27.473.778 1.624 1.523 3.452l1.117 2.844c.136.406.34.847.61 1.32 1.624-.067 2.944-.305 3.96-.71-.34-3.454-.44-6.027-.305-7.72.067-.813.288-1.523.66-2.133s.796-1.05 1.27-1.32l.813-.508c1.017-.542 1.728-.982 2.134-1.32.677-.542 1.016-1.1 1.016-1.676s-.085-.983-.254-1.22-.39-.457-.66-.66l-.305-.305c.137.88.238 1.388.306 1.523l-.406-.508c-.203-.406-.406-.88-.61-1.422-.27-.813-.473-1.66-.608-2.54-.067-.608-.05-1.37.05-2.284s.255-1.608.458-2.082v1.422l.203-.203c.27-.27.508-.642.71-1.116.272-.61.356-1.117.255-1.523s-.34-.693-.71-.862-.898-.254-1.575-.254c-.948 0-2.065.203-3.352.61-1.76.54-3.926 1.827-6.5 3.858l-.608.406.406-.61c.34-.608.813-1.218 1.422-1.827 1.22-1.286 2.54-2.267 3.96-2.944-.338-.406-1.082-.914-2.233-1.523-2.167-1.016-4.672-1.523-7.516-1.523s-5.348.508-7.515 1.523c-1.15.61-1.896 1.15-2.234 1.625 1.423.61 2.743 1.557 3.962 2.844.61.61 1.083 1.22 1.422 1.828l.406.61-.61-.407c-2.572-2.03-4.738-3.318-6.5-3.86-1.285-.405-2.402-.608-3.35-.608-.678 0-1.203.084-1.575.254s-.61.456-.71.862.016.914.354 1.523c.202.406.405.78.608 1.117l.203.203v-1.422c.204.406.356 1.083.458 2.03s.118 1.728.05 2.337c-.066.88-.27 1.727-.608 2.54-.136.54-.34 1.015-.61 1.42l-.405.51c.136-.136.237-.644.305-1.524l-.305.305c-.27.204-.474.424-.61.66s-.202.644-.202 1.22.305 1.134.914 1.676c.406.338 1.117.78 2.133 1.32l.102.102c.337.2.573.336.71.405zm-2.335 14.727c.542.947 1.354 1.675 2.438 2.183s2.234.762 3.453.762c-.474-1.354-.34-2.438.406-3.25l.914-1.117c-1.692-.067-3.183-.406-4.47-1.016-1.557-.813-2.605-2.03-3.147-3.656-.34.34-.475 1.15-.407 2.438 0 1.488.27 2.707.812 3.655zm1.117-36.563c.27 0 .575-.034.914-.102 1.083 0 2.03.305 2.844.914 1.016.744 1.727 1.522 2.133 2.335l1.22-.61c-1.152-1.76-2.44-2.843-3.86-3.25-.542-.202-1.117-.304-1.727-.304-.88 0-1.727.17-2.54.51.34.134.677.304 1.016.507zm1.523 14.625c.067-.61.305-1.016.71-1.22-.473-.134-.913-.27-1.32-.405 1.83-.406 3.657-.135 5.485.813 1.083.61 2.065 1.422 2.945 2.438.474.61 1.05.982 1.727 1.117.406.068.847.068 1.32 0l.61-.203c0 .542-.22 1-.66 1.37s-.966.56-1.575.56c.067.677-.136 1.422-.61 2.234l-.71 1.117c.34-1.016.406-1.896.203-2.64l-.305-.814c-.813.744-1.896.947-3.25.608-1.016-.27-1.794-.677-2.336-1.22-.814-.88-1.254-2.03-1.32-3.452-.204.406-.34.948-.407 1.625l-.305-.507c-.135-.474-.203-.947-.203-1.42zm2.946-10.563c-.27-1.017-.693-1.76-1.27-2.235s-1.27-.71-2.08-.71l.304.304c.203.405.34 1.015.406 1.827s.203 1.388.406 1.727l1.22.305c.202-.408.54-.815 1.015-1.22zm-.913 36.866c.813 1.22 1.828 2.1 3.047 2.64-.406-.608-.813-1.387-1.22-2.335-.676-.066-1.285-.168-1.827-.304zm.914-26.507c-.202.608-.253 1.286-.15 2.03s.39 1.287.862 1.625c.677.542 1.422.745 2.234.61.542 0 1.083-.17 1.625-.51-.405-.54-1.03-1.15-1.878-1.827s-1.743-1.32-2.69-1.93zm10.36 31.584c4.198 0 7.075-2.2 8.633-6.602.34-1.016.305-1.777-.102-2.285s-1.252-.762-2.538-.762h-11.984c-1.286 0-2.133.254-2.54.762s-.44 1.304-.1 2.387c1.557 4.333 4.434 6.5 8.632 6.5zm-2.336-7.82c-.203-.203-.508-.305-.914-.305h-2.945c-.474 0-.813.1-1.016.304s-.238.474-.103.813c.27.677.745 1.32 1.422 1.93.338.27.727.406 1.167.406s.83-.136 1.168-.406c.61-.677 1.05-1.354 1.32-2.03.068-.272.035-.51-.1-.713zm-.406-25.492l.914.914c.677.61 1.286.914 1.828.914s1.15-.305 1.828-.914l.914-.914c-.88.542-1.794.813-2.742.813s-1.862-.272-2.742-.813zm6.804 6.398c-.61 0-1.134-.186-1.574-.56s-.66-.83-.66-1.37h.102c.27.203.644.305 1.117.305.948 0 1.76-.406 2.438-1.22.88-1.015 1.862-1.827 2.945-2.437 1.828-.948 3.656-1.22 5.484-.813-.406.135-.847.27-1.32.406.406.204.644.61.71 1.22 0 .474-.066.948-.202 1.422l-.305.508c-.067-.61-.203-1.15-.406-1.625-.135 1.422-.574 2.573-1.32 3.453-.54.542-1.32.948-2.335 1.22-1.286.337-2.37.134-3.25-.61l-.305.813c-.136.475-.136 1.05 0 1.728l.305.914-.813-1.117c-.474-.813-.677-1.557-.61-2.235zm3.15 19.094c-.204-.136-.51-.237-.915-.305h-3.047c-.406 0-.694.1-.863.304s-.22.44-.152.71c.27.61.71 1.254 1.32 1.93.34.34.728.51 1.168.51s.83-.17 1.168-.51c.678-.54 1.152-1.15 1.423-1.827.135-.34.1-.61-.102-.813zm-1.32-20.008v.102h-.103c.54.27 1.05.44 1.522.508.88.068 1.66-.17 2.336-.71.474-.34.762-.88.863-1.626s.052-1.422-.15-2.03c-.95.608-1.846 1.25-2.692 1.93s-1.44 1.285-1.777 1.826zm5.686-18.89c-1.422.406-2.708 1.49-3.86 3.25l1.22.61c.406-.814 1.117-1.592 2.133-2.337.814-.61 1.762-.915 2.845-.915.34 0 .644.034.914.102.338-.203.676-.373 1.015-.508-.813-.34-1.66-.51-2.54-.51-.61 0-1.185.103-1.727.306zm-3.35 44.28c1.218-.54 2.268-1.42 3.147-2.64-.677.136-1.32.203-1.93.203-.406 1.015-.812 1.828-1.218 2.437zm7.717-7.007c.542-.95.847-2.134.914-3.556 0-1.354-.17-2.167-.51-2.438-.473 1.558-1.522 2.742-3.147 3.555-1.22.61-2.675.95-4.367 1.017l.813 1.117c.744.813.88 1.896.405 3.25 1.22 0 2.37-.254 3.453-.762s1.895-1.235 2.437-2.183zm-2.234-35.446c-.744 0-1.42.237-2.03.71s-1.05 1.22-1.32 2.235c.406.405.745.812 1.016 1.218l1.22-.305c.202-.338.338-.93.405-1.777s.204-1.44.407-1.777l.304-.306z" filter="url(#c)"/></mask><path mask="url(#d)" fill="#D1A93D" d="M-1560 0h100v100h-100z"/><defs><filter id="e" filterUnits="userSpaceOnUse" x="-1440" y="0" width="100" height="100"><feFlood result="back" flood-color="#fff" flood-opacity="1"/><feBlend in="SourceGraphic" in2="back"/></filter></defs><mask maskUnits="userSpaceOnUse" x="-1440" y="0" width="100" height="100" id="f"><path d="M-1409.5 27.986h39l-3.555 40.22-15.945 5.28-15.945-5.28-3.555-40.22zm31.28 13l.51-4.875h-24.478l1.22 14.83h16.96l-.61 6.296-5.382 1.422-5.484-1.422-.305-3.86h-4.874l.61 7.72 10.155 2.742 9.954-2.742 1.32-15.133h-17.773l-.507-4.977h18.688z" filter="url(#e)"/></mask><path mask="url(#f)" fill="#D1A93D" d="M-1440 0h100v100h-100z"/><defs><filter id="g" filterUnits="userSpaceOnUse" x="-1320" y="0" width="100" height="100"><feFlood result="back" flood-color="#fff" flood-opacity="1"/><feBlend in="SourceGraphic" in2="back"/></filter></defs><mask maskUnits="userSpaceOnUse" x="-1320" y="0" width="100" height="100" id="h"><path d="M-1289.5 27.986h39l-3.555 40.22-15.945 5.28-15.945-5.28-3.555-40.22zm31.79 8.125h-24.58l.61 4.774h12.492l-12.086 5.078.406 4.672h16.86l-.407 6.297-5.484 1.524-5.382-1.32-.305-3.86h-4.977l.61 7.517 10.054 2.946 9.953-2.945 1.32-14.827h-11.273l11.68-5.078.51-4.774z" filter="url(#g)"/></mask><path mask="url(#h)" fill="#D1A93D" d="M-1320 0h100v100h-100z"/><defs><filter id="i" filterUnits="userSpaceOnUse" x="-1200" y="0" width="100" height="100"><feFlood result="back" flood-color="#fff" flood-opacity="1"/><feBlend in="SourceGraphic" in2="back"/></filter></defs><mask maskUnits="userSpaceOnUse" x="-1200" y="0" width="100" height="100" id="j"><path d="M-1132.125 27.986c1.354 0 2.505.474 3.453 1.422s1.422 2.1 1.422 3.453v35.75c0 1.355-.474 2.506-1.422 3.454s-2.1 1.422-3.453 1.422h-35.75c-1.354 0-2.505-.474-3.453-1.422s-1.422-2.1-1.422-3.453V32.86c0-1.353.474-2.504 1.422-3.452s2.1-1.422 3.453-1.422h35.75zm-15.844 35.446V48.908h-4.265V63.43c0 1.017-.203 1.71-.61 2.083s-.964.56-1.675.56-1.27-.204-1.676-.61c-.34-.27-.71-.778-1.117-1.523l-3.453 2.03c1.22 2.642 3.352 3.962 6.398 3.962 1.964 0 3.52-.542 4.672-1.625s1.727-2.708 1.727-4.875zm10.056 6.5c2.1 0 3.81-.524 5.13-1.574s1.98-2.522 1.98-4.418c0-1.692-.475-3.047-1.423-4.063-.88-.88-2.302-1.76-4.266-2.64l-1.016-.407c-1.015-.474-1.71-.88-2.08-1.22s-.56-.794-.56-1.37.187-1.033.56-1.37.862-.51 1.472-.51 1.134.136 1.574.407.83.744 1.168 1.422l3.352-2.134c-.677-1.22-1.507-2.1-2.488-2.64s-2.184-.814-3.605-.814c-1.896 0-3.42.542-4.57 1.625-1.15 1.084-1.727 2.438-1.727 4.063s.474 2.98 1.422 4.063c.813.88 2.065 1.66 3.758 2.336l1.016.507c1.22.542 1.997.948 2.336 1.22.542.405.813.93.813 1.573s-.27 1.168-.812 1.574-1.253.61-2.133.61c-1.692 0-3.08-.88-4.164-2.642l-3.452 2.03c.677 1.287 1.625 2.337 2.844 3.15 1.353.813 2.978 1.22 4.874 1.22z" filter="url(#i)"/></mask><path mask="url(#j)" fill="#D1A93D" d="M-1200 0h100v100h-100z"/><path fill="#D1A93D" d="M-1080 0h100v100h-100z"/><path d="M-1030 25.55c4.536 0 8.734 1.133 12.594 3.4s6.923 5.333 9.19 9.192 3.403 8.057 3.403 12.594c0 4.537-1.134 8.734-3.402 12.594s-5.332 6.923-9.19 9.19-8.06 3.403-12.595 3.403-8.734-1.134-12.594-3.402-6.923-5.33-9.19-9.19-3.403-8.057-3.403-12.594c0-4.537 1.134-8.734 3.402-12.594s5.332-6.923 9.19-9.19 8.06-3.403 12.595-3.403zm-22.648 25.186c0 4.4 1.168 8.43 3.504 12.086s5.434 6.433 9.293 8.328l-10.868-29.656c-1.287 2.912-1.93 5.992-1.93 9.242zm25.796-10.664l8.125 24.375 2.438-8.023c.543-1.828.915-3.115 1.118-3.86.34-1.15.508-2.132.508-2.944 0-1.287-.203-2.505-.61-3.656-.27-.745-.71-1.625-1.32-2.64l-.304-.407c-.61-1.083-1.05-1.896-1.32-2.438-.406-.88-.61-1.694-.61-2.44 0-1.082.373-2.03 1.118-2.843s1.66-1.22 2.742-1.22l.305.103c-2.1-1.896-4.452-3.37-7.06-4.418s-5.365-1.574-8.276-1.574c-3.858 0-7.464.914-10.815 2.742s-6.043 4.3-8.074 7.414l1.423.102c1.016 0 2.336-.068 3.96-.203l2.032-.102c.406 0 .694.136.863.407s.203.576.102.914-.355.51-.762.51l-2.64.202 8.327 24.578 4.875-14.828-3.453-9.648-2.438-.305c-.34 0-.576-.153-.712-.458s-.118-.61.05-.914.458-.457.864-.457l2.133.103c1.625.135 2.91.203 3.86.203s2.233-.068 3.858-.203l2.133-.102c.34 0 .61.136.813.407s.236.576.1.914-.405.51-.812.51c-.88.067-1.727.134-2.54.202zM-1030 73.385c2.573 0 5.078-.44 7.516-1.32l-.203-.305-6.906-19.094-6.805 19.805c2.098.61 4.23.915 6.398.915zm11.375-3.047c3.453-2.03 6.195-4.773 8.227-8.227s3.047-7.243 3.047-11.374c0-3.86-.915-7.482-2.743-10.867.067.744.102 1.522.102 2.335 0 2.505-.576 5.213-1.728 8.125l-6.907 20.008z"/><path fill="#D1A93D" d="M-960 0h100v100h-100z"/><path d="M-893.75 72.014c0 1.354-.474 2.505-1.422 3.453s-2.1 1.422-3.453 1.422h-22.75c-1.354 0-2.505-.475-3.453-1.423s-1.422-2.1-1.422-3.453v-42.25c0-1.354.474-2.505 1.422-3.453s2.1-1.42 3.453-1.42h22.75c1.354 0 2.505.473 3.453 1.42s1.422 2.1 1.422 3.454v42.25zm-4.875-41.64c0-.136-.067-.272-.203-.407s-.27-.203-.406-.203h-21.53c-.137 0-.272.068-.407.203s-.204.27-.204.406v41.03c0 .137.067.272.203.407s.27.203.405.203h21.53c.137 0 .272-.067.407-.203s.203-.27.203-.406v-41.03zm-3.25 3.858c0-.338-.118-.626-.355-.863s-.524-.356-.863-.356h-13.813c-.34 0-.626.12-.863.355s-.354.524-.354.862v26.813c0 .34.118.626.355.863s.525.355.864.355h13.813c.34 0 .626-.118.863-.355s.355-.524.355-.863V34.232zm-5.84 35.192c-.644.644-1.405.965-2.285.965s-1.642-.322-2.285-.966-.965-1.405-.965-2.285.32-1.643.965-2.286 1.405-.965 2.285-.965 1.642.32 2.285.964.965 1.405.965 2.285-.32 1.64-.965 2.284z"/><path fill="#D1A93D" d="M-720 0h100v100h-100z"/><path d="M-670 24.89c3.453 0 6.737.304 9.852.913 3.792.745 6.77 1.896 8.938 3.453 2.64 1.828 3.96 4.096 3.96 6.805v29.657c0 2.708-1.32 4.977-3.96 6.805-2.167 1.558-5.146 2.708-8.938 3.453-3.114.61-6.398.914-9.852.914s-6.737-.306-9.852-.915c-3.792-.745-6.77-1.896-8.938-3.453-2.64-1.828-3.96-4.097-3.96-6.805V36.06c0-2.707 1.32-4.976 3.96-6.804 2.167-1.557 5.146-2.708 8.938-3.453 3.115-.61 6.4-.914 9.852-.914zm0 4.874c-3.25 0-6.246.288-8.988.863s-4.91 1.337-6.5 2.285-2.387 1.998-2.387 3.148v.406c0 1.15.796 2.2 2.387 3.148s3.758 1.71 6.5 2.285 5.738.862 8.988.862 6.246-.288 8.988-.863 4.91-1.338 6.5-2.286 2.387-1.998 2.387-3.148v-.406c0-1.15-.796-2.2-2.387-3.148s-3.758-1.71-6.5-2.285-5.738-.863-8.988-.863zm17.875 13.71c-1.828 1.355-4.4 2.405-7.72 3.15-3.113.676-6.5 1.015-10.155 1.015s-7.042-.34-10.156-1.017c-3.317-.745-5.89-1.794-7.72-3.148v2.64c0 1.152.797 2.202 2.388 3.15s3.758 1.708 6.5 2.284c2.742.575 5.738.862 8.988.862s6.246-.287 8.988-.863c2.742-.577 4.91-1.338 6.5-2.286s2.387-1.998 2.387-3.148v-2.64zm0 9.75c-1.828 1.355-4.4 2.404-7.72 3.15-3.113.676-6.5 1.015-10.155 1.015s-7.042-.34-10.156-1.017c-3.317-.745-5.89-1.795-7.72-3.148v2.742c0 1.15.797 2.2 2.388 3.148s3.758 1.71 6.5 2.285 5.738.863 8.988.863 6.246-.288 8.988-.863 4.91-1.337 6.5-2.285 2.387-1.997 2.387-3.148v-2.742zm0 9.75c-1.828 1.355-4.4 2.404-7.72 3.15-3.113.676-6.5 1.015-10.155 1.015s-7.042-.34-10.156-1.017c-3.317-.745-5.89-1.794-7.72-3.148v2.742c0 1.15.797 2.2 2.388 3.148s3.758 1.71 6.5 2.285 5.738.863 8.988.863 6.246-.288 8.988-.863 4.91-1.337 6.5-2.285 2.387-1.997 2.387-3.148v-2.742z"/><defs><filter id="k" filterUnits="userSpaceOnUse" x="-600" y="0" width="100" height="100"><feFlood result="back" flood-color="#fff" flood-opacity="1"/><feBlend in="SourceGraphic" in2="back"/></filter></defs><mask maskUnits="userSpaceOnUse" x="-600" y="0" width="100" height="100" id="l"><path d="M-530.5 39.514c0 1.76-.508 3.352-1.523 4.773s-2.336 2.404-3.96 2.945c-.068 2.844-.814 5.146-2.235 6.906-1.286 1.558-3.114 2.675-5.484 3.352-1.422.406-3.59.745-6.5 1.016h-.102c-1.692.203-2.91.34-3.656.406-1.286.27-2.27.575-2.945.914s-1.185.778-1.523 1.32c1.558.61 2.81 1.608 3.758 2.996s1.422 2.93 1.422 4.62c0 2.235-.796 4.148-2.387 5.74s-3.504 2.386-5.738 2.386-4.147-.796-5.738-2.387-2.388-3.503-2.388-5.737c0-1.828.524-3.453 1.574-4.875s2.42-2.37 4.113-2.844V40.732c-1.693-.474-3.064-1.422-4.114-2.844s-1.574-3.047-1.574-4.875c0-2.234.796-4.147 2.387-5.738s3.503-2.387 5.737-2.387 4.147.795 5.738 2.387 2.387 3.504 2.387 5.738c0 1.828-.524 3.453-1.574 4.875s-2.42 2.37-4.113 2.844v14.625c1.083-.475 2.403-.846 3.96-1.117.95-.203 2.37-.406 4.267-.61 2.438-.202 4.164-.405 5.18-.608 1.625-.406 2.793-1.05 3.504-1.93.71-.88 1.1-2.133 1.168-3.758-1.76-.542-3.183-1.523-4.266-2.945s-1.625-3.048-1.625-4.876c0-2.234.796-4.147 2.387-5.738s3.504-2.387 5.738-2.387 4.147.794 5.738 2.386 2.384 3.503 2.384 5.738zm-30.875-9.75c-.88 0-1.642.322-2.285.965s-.965 1.404-.965 2.284.32 1.642.965 2.285 1.405.964 2.285.964 1.642-.322 2.285-.965.965-1.406.965-2.286-.32-1.642-.965-2.285-1.405-.966-2.285-.966zm0 42.25c.88 0 1.642-.32 2.285-.965s.965-1.406.965-2.286-.32-1.642-.965-2.285-1.405-.966-2.285-.966-1.642.32-2.285.965-.965 1.404-.965 2.284.32 1.642.965 2.285 1.405.964 2.285.964zm22.75-29.25c.88 0 1.642-.322 2.285-.965s.965-1.406.965-2.286-.32-1.642-.965-2.285-1.405-.966-2.285-.966-1.642.322-2.285.965-.965 1.404-.965 2.284.32 1.642.965 2.285 1.405.964 2.285.964z" filter="url(#k)"/></mask><path mask="url(#l)" fill="#D1A93D" d="M-600 0h100v100h-100z"/><defs><filter id="m" filterUnits="userSpaceOnUse" x="-480" y="0" width="100" height="100"><feFlood result="back" flood-color="#fff" flood-opacity="1"/><feBlend in="SourceGraphic" in2="back"/></filter></defs><mask maskUnits="userSpaceOnUse" x="-480" y="0" width="100" height="100" id="n"><path d="M-447.47 56.22h.61l.61 3.454c-.678.27-1.49.406-2.44.406-2.91 0-4.366-1.828-4.366-5.484V39.36h-1.422c-.677 0-1.134.153-1.37.458s-.356.897-.356 1.777l.102 5.18c0 1.22-.187 2.116-.56 2.69s-.964.932-1.776 1.067v.203c.813.203 1.405.592 1.777 1.168s.558 1.44.558 2.59c0 .678-.034 1.625-.102 2.844v2.438c0 .88.118 1.49.355 1.828s.695.508 1.372.508h.61v2.44h-2.032c-1.49 0-2.556-.34-3.2-1.017s-.964-1.862-.964-3.555c0-.813.05-1.777.152-2.895s.152-1.998.152-2.64-.22-1.187-.66-1.626-1.134-.66-2.082-.66v-2.844c.948 0 1.642-.237 2.082-.71s.66-1.017.66-1.626-.05-1.49-.152-2.64-.152-2.134-.152-2.946c0-1.692.32-2.876.965-3.554s1.71-1.016 3.2-1.016h7.617V54.9c0 .474.085.813.254 1.016s.358.305.56.305zm7.822-13c2.167 0 3.843.73 5.027 2.185s1.776 3.3 1.776 5.535c0 .54-.067 1.15-.203 1.828v.102h-9.648c.406 2.303 1.794 3.453 4.164 3.453 1.15 0 2.335-.34 3.554-1.016l1.523 2.844c-1.76 1.22-3.656 1.83-5.688 1.83-2.37 0-4.3-.746-5.79-2.235s-2.25-3.504-2.285-6.043.71-4.587 2.234-6.145 3.3-2.336 5.332-2.336zm-3.047 6.704h5.79c0-2.1-.915-3.148-2.743-3.148-.745 0-1.405.27-1.98.813s-.932 1.318-1.067 2.334zm18.79.305c2.91.946 4.366 2.57 4.366 4.874 0 1.49-.574 2.726-1.726 3.707s-2.776 1.474-4.875 1.474c-1.017 0-2.083-.203-3.2-.61s-2.082-.947-2.895-1.624l2.133-3.148c1.422 1.083 2.81 1.625 4.164 1.625s2.03-.44 2.03-1.32c0-.406-.304-.813-.913-1.22-.34-.202-1.017-.474-2.032-.812l-.305-.203c-2.844-1.084-4.266-2.64-4.266-4.672 0-1.49.575-2.69 1.727-3.605s2.657-1.37 4.52-1.37 3.673.676 5.434 2.03l-2.133 2.844c-1.22-.88-2.336-1.32-3.352-1.32-1.22 0-1.828.405-1.828 1.218 0 .474.237.846.71 1.117.272.203.848.44 1.728.71.34.134.575.236.71.304zm12.897 0c2.91.946 4.367 2.57 4.367 4.874 0 1.49-.576 2.726-1.728 3.707s-2.776 1.474-4.875 1.474c-.948 0-1.997-.203-3.148-.61s-2.1-.947-2.845-1.624l2.133-3.148c1.422 1.083 2.81 1.625 4.164 1.625s2.03-.44 2.03-1.32c0-.406-.304-.813-.913-1.22-.34-.202-1.017-.474-2.032-.812l-.406-.203c-2.776-1.084-4.164-2.64-4.164-4.672 0-1.49.56-2.69 1.676-3.605s2.606-1.37 4.47-1.37 3.706.676 5.534 2.03l-2.133 2.844c-1.22-.88-2.37-1.32-3.453-1.32-1.15 0-1.727.405-1.727 1.218 0 .406.237.78.71 1.117.272.203.814.44 1.626.71.34.134.576.236.712.304zm10.766-3.25c0 .608.22 1.15.66 1.624s1.134.71 2.082.71v2.845c-.948 0-1.642.235-2.082.71s-.66 1.033-.66 1.676c0 .644.05 1.523.152 2.64s.152 2.083.152 2.896c0 1.692-.32 2.878-.965 3.555s-1.71 1.016-3.2 1.016h-2.03v-2.54h.61v-.103c.676 0 1.15-.152 1.42-.457s.407-.897.407-1.777l-.203-5.28c0-1.15.188-2.015.56-2.59s.965-.966 1.777-1.17v-.202c-.813-.203-1.405-.576-1.777-1.117s-.56-1.422-.56-2.64l.204-5.282c0-.88-.118-1.473-.355-1.777s-.73-.457-1.474-.457h-.61v-2.437h2.032c1.49 0 2.556.338 3.2 1.016s.964 1.86.964 3.554c0 .813-.05 1.777-.152 2.895s-.152 2.01-.152 2.69z" filter="url(#m)"/></mask><path mask="url(#n)" fill="#D1A93D" d="M-480 0h100v100h-100z"/><defs><filter id="o" filterUnits="userSpaceOnUse" x="-360" y="0" width="100" height="100"><feFlood result="back" flood-color="#fff" flood-opacity="1"/><feBlend in="SourceGraphic" in2="back"/></filter></defs><mask maskUnits="userSpaceOnUse" x="-360" y="0" width="100" height="100" id="p"><path d="M-286.54 54.393c1.896 0 3.538.355 4.926 1.066s2.438 1.624 3.148 2.74 1.032 2.252.965 3.403-.543 2.133-1.423 2.945c-.61.542-1.15.88-1.625 1.016-.34.067-.524.017-.56-.152s.12-.355.458-.56c1.016-.676 1.625-1.522 1.828-2.538.067-.61-.067-1.286-.406-2.03-.406-.88-1.05-1.626-1.93-2.235-1.083-.746-2.505-1.22-4.266-1.423-2.37-.27-4.47-.034-6.297.71.338.88.507 1.66.507 2.337.067 1.49-.71 2.844-2.336 4.063-.676.474-1.404.863-2.183 1.168s-1.37.423-1.777.355c-1.286-.27-1.59-1.388-.914-3.352.203-.677.61-1.422 1.22-2.234s1.353-1.59 2.233-2.336l-.204-.305c-.542-1.016-.88-1.76-1.016-2.234-.203-.68-.372-1.32-.508-1.93l-.102-.712-1.016 1.93c-.88 1.625-1.727 3.047-2.54 4.266l-.304.508c.406 1.083.644 2.03.71 2.844.068 1.692-.574 3.047-1.93 4.063-.676.405-1.353.76-2.03 1.065s-1.49.49-2.438.56c-.745 0-1.286-.103-1.625-.306-.406-.34-.508-.814-.305-1.423.136-.27.948-1.286 2.438-3.047l2.234-2.844-.406-.914c-.474-.948-.778-1.66-.914-2.133-.203-.678-.372-1.32-.508-1.93l-.102-.712-1.016 2.438c-.813 1.896-1.558 3.52-2.234 4.875-1.016 2.032-1.862 3.59-2.54 4.673l-.202.305c-.813 1.286-1.59 1.93-2.336 1.93s-1.253-.474-1.523-1.422c-.203-.677-.305-1.523-.305-2.54l.203-1.42v.1c-.54 1.287-1.082 2.473-1.624 3.556-.474.88-.847 1.49-1.117 1.828-.475.474-1.033.71-1.677.71s-1.134-.168-1.473-.507c-.61-.542-1.117-1.438-1.523-2.69s-.575-2.422-.508-3.505c.202-1.76.507-3.216.913-4.367l-3.656 2.134v.102c.61 1.15.88 2.64.813 4.47-.136 2.098-.745 3.96-1.828 5.585-1.15 1.83-2.742 3.166-4.773 4.013s-4.064 1-6.095.457c-.542-.136-1.05-.542-1.523-1.22s-.745-1.488-.813-2.437c-.137-1.15.066-2.336.608-3.555.677-1.49 2.27-3.08 4.773-4.773 1.49-1.016 3.082-1.93 4.774-2.742l.508-.305c-.61-.474-1.727-1.286-3.352-2.438-2.64-1.828-4.57-3.318-5.79-4.47-2.03-1.962-3.215-3.892-3.554-5.788-.27-1.15-.034-2.54.71-4.164.88-2.1 2.44-4.164 4.673-6.195 1.963-1.896 4.366-3.623 7.21-5.18 2.505-1.422 5.214-2.64 8.125-3.656s5.823-1.523 8.734-1.523 5.382.525 7.413 1.574 3.284 2.505 3.758 4.367.322 3.775-.456 5.738-1.997 3.758-3.656 5.383-3.538 2.844-5.637 3.656c-2.504 1.016-4.976 1.557-7.413 1.625-1.896.135-3.453 0-4.672-.406-1.016-.337-1.862-.812-2.54-1.42-.608-.543-1.015-1.05-1.218-1.524-.203-.542-.22-.863-.05-.965s.287-.118.354-.05l.51.508c.473.474 1.15.88 2.03 1.22 1.286.473 2.81.642 4.57.507 3.25-.406 6.16-1.456 8.734-3.148 2.37-1.49 4.097-3.233 5.18-5.23s1.286-3.74.61-5.23c-.475-1.016-1.626-1.777-3.454-2.285s-4.063-.56-6.703-.152c-2.91.474-5.958 1.49-9.14 3.047-8.33 4.198-12.63 8.498-12.9 12.898-.066 1.625.543 3.182 1.83 4.672.744.947 2.2 2.234 4.366 3.86 1.828 1.42 3.114 2.538 3.86 3.35l.202.204 6.5-3.554c.677-1.016 1.574-1.93 2.69-2.742s2.117-1.22 2.997-1.22 1.49.374 1.828 1.118c.27.54.372 1.252.305 2.133l-.203 1.016.305-.202c.34-.27.762-.322 1.27-.152s.728.524.66 1.066l-.305 1.117c-.61 2.437-1.016 4.197-1.22 5.28-.135.542-.186 1.016-.15 1.422s.084.61.15.61.204-.204.407-.61l.304-.71c.067 0 .067.033 0 .1l1.117-2.335c2.642-5.822 4.064-9.072 4.267-9.75l.61-1.93c.066-.135.338-.27.812-.406s1.05-.202 1.726-.202c.948 0 1.422.237 1.422.71l-.102.51c-.34 1.015-.56 1.794-.66 2.335s-.085 1.22.05 2.03l.103.407c.066.475.37 1.22.913 2.234.813-1.354 1.59-2.742 2.336-4.164.947-1.76 1.488-2.912 1.624-3.453.136-.677.305-1.32.508-1.93.067-.203.355-.355.863-.457s1.066-.152 1.676-.152c.95 0 1.457.237 1.524.71l-.203.407c-.338 1.083-.54 1.896-.608 2.438s-.034 1.22.102 2.03v.407c.067.475.406 1.252 1.016 2.336l.305.71c1.832-.884 3.796-1.323 5.895-1.323zm-43.57 14.726c2.1-2.303 2.742-4.978 1.93-8.024l-1.625 1.016c-1.828 1.083-3.284 2.15-4.367 3.2s-1.777 2.2-2.082 3.452-.152 2.065.457 2.438 1.49.355 2.64-.05 2.167-1.085 3.047-2.033zm13.61-9.345c.338-.88.71-1.93 1.116-3.148.542-1.625.728-2.572.56-2.844s-.492-.305-.966-.102-.948.577-1.422 1.118c-.34.406-.745 1.016-1.22 1.828s-.812 1.59-1.015 2.336c-.474 1.354-.677 2.708-.61 4.063s.29 2.082.66 2.184.797-.39 1.27-1.474c.34-.542.746-1.523 1.22-2.945.203-.473.34-.81.406-1.015zm11.272 5.383c1.692-1.016 2.54-2.2 2.54-3.555V61.5l-1.118 1.423-2.03 2.234c-.068.067-.068.136 0 .203s.27 0 .608-.202zm8.735-1.93c1.76-.676 2.64-1.86 2.64-3.554 0-.27-.066-.644-.202-1.117-.88.813-1.523 1.66-1.93 2.54-.61 1.217-.78 1.928-.508 2.132z" filter="url(#o)"/></mask><path mask="url(#p)" fill="#D1A93D" d="M-360 0h100v100h-100z"/><defs><filter id="q" filterUnits="userSpaceOnUse" x="-240" y="0" width="100" height="100"><feFlood result="back" flood-color="#fff" flood-opacity="1"/><feBlend in="SourceGraphic" in2="back"/></filter></defs><mask maskUnits="userSpaceOnUse" x="-240" y="0" width="100" height="100" id="r"><path d="M-190 27.986l21.125 7.516-3.25 28.03L-190 73.487l-17.875-9.953-3.25-28.03L-190 27.985zm13.203 34.735L-190 32.964l-13.203 29.758h4.875l2.742-6.702h11.172l2.64 6.703h4.977zm-17.062-10.765l3.86-9.344 3.86 9.345h-7.72z" filter="url(#q)"/></mask><path mask="url(#r)" fill="#D1A93D" d="M-240 0h100v100h-100z"/><defs><filter id="s" filterUnits="userSpaceOnUse" x="-120" y="0" width="100" height="100"><feFlood result="back" flood-color="#fff" flood-opacity="1"/><feBlend in="SourceGraphic" in2="back"/></filter></defs><mask maskUnits="userSpaceOnUse" x="-120" y="0" width="100" height="100" id="t"><path d="M-52.328 27.986c1.354 0 2.54.508 3.555 1.523s1.523 2.2 1.523 3.554v35.344c0 1.354-.508 2.54-1.523 3.555s-2.2 1.523-3.555 1.523h-35.344c-1.354 0-2.54-.508-3.555-1.523s-1.523-2.2-1.523-3.555V33.064c0-1.354.508-2.54 1.523-3.555s2.2-1.524 3.555-1.524h35.344zm0 3.657h-35.344c-.406 0-.745.135-1.016.406s-.406.608-.406 1.015V68.41c0 .338.136.66.406.964s.61.457 1.016.457h35.344c.406 0 .745-.135 1.016-.405s.406-.61.406-1.016V33.063c0-.406-.136-.745-.406-1.016s-.61-.405-1.016-.405zm-5.992 10.46c.27 0 .49.07.66.204s.22.305.152.508v13.71c0 .272-.237.543-.71.814-2.032.88-3.793 1.32-5.282 1.32-.88 0-1.964-.238-3.25-.712-1.422-.61-2.675-.914-3.758-.914-1.828 0-4.063.575-6.703 1.727-.068.068-.17.103-.306.103v4.47c0 .202-.034.37-.102.507v.102c-.136.406-.372.745-.71 1.016s-.746.406-1.22.406-.914-.203-1.32-.61-.61-.88-.61-1.42V41.798c-.88-.678-1.285-1.524-1.218-2.54 0-.948.305-1.744.914-2.387s1.37-.965 2.285-.965 1.692.322 2.336.965.964 1.405.964 2.285c0 1.15-.406 2.03-1.22 2.64v1.83l.407-.204c2.37-.88 4.402-1.32 6.095-1.32 1.016 0 2.065.135 3.148.406.745.135 1.692.44 2.844.914.406.203.847.305 1.32.305 1.016 0 2.403-.407 4.164-1.22.612-.27.984-.406 1.12-.406z" filter="url(#s)"/></mask><path mask="url(#t)" fill="#D1A93D" d="M-120 0h100v100h-100z"/><defs><filter id="u" filterUnits="userSpaceOnUse" x="0" y="0" width="100" height="100"><feFlood result="back" flood-color="#fff" flood-opacity="1"/><feBlend in="SourceGraphic" in2="back"/></filter></defs><mask maskUnits="userSpaceOnUse" x="0" y="0" width="100" height="100" id="v"><path d="M55.688 39.26c-3.792.27-7.583.27-11.375 0-4.063-.27-6.094-.745-6.094-1.422 0-.406 1.15-.78 3.452-1.117s5.078-.507 8.328-.507l2.64.102 1.32-4.977 6.196-6.5c.067-.068.203-.084.406-.05s.406.15.61.354c.54.474.71.78.507.914l-5.79 6.195-1.016 4.165c2.03.135 3.673.338 4.926.61s1.88.54 1.88.812h.1c0 .678-2.03 1.152-6.092 1.423zM39.742 51.447c.34-1.15.847-2.234 1.523-3.25.813-1.15 1.66-1.93 2.54-2.336.676-.27 1.32-.236 1.93.103.27.135.507.338.71.61s.305.473.305.608c.067.272.05.492-.05.66s-.238.255-.407.255-.39-.237-.66-.71c-.406-.746-.98-.847-1.727-.306-.61.405-1.185 1.1-1.727 2.08s-.95 1.93-1.22 2.845-.305 1.607-.102 2.082c.136.203.305.305.508.305.406 0 .93-.322 1.574-.965s1.1-1.2 1.37-1.676l.51-1.522c.135-.338.338-.508.608-.508s.406.186.406.56-.136.895-.406 1.573-.474 1.287-.61 1.828l-.812 2.642c-.067.203-.152.39-.254.56s-.22.253-.355.253-.237-.05-.305-.152-.085-.305-.05-.61.287-1.167.76-2.59l-.71.712c-.813.745-1.523 1.117-2.133 1.117-.34 0-.61-.067-.814-.203l.813 8.022c.066.34.947.71 2.64 1.117 1.964.473 4.063.71 6.297.71s4.333-.237 6.297-.71c1.625-.407 2.505-.78 2.64-1.118l1.118-9.547-.203.102c-.746.744-1.32 1.202-1.728 1.37s-.813.22-1.22.153-.608-.27-.608-.61c0-.337.372-.946 1.117-1.827l.306-.508c.34-.338.508-.592.508-.762s-.136-.236-.406-.203-.542.17-.813.406-.56.576-.863 1.016-.593.965-.863 1.574l-.407.813-1.016 2.843c-.136.203-.305.355-.508.457s-.373.102-.51 0-.202-.22-.202-.355l.102-.305c.067-.27.34-.914.813-1.93l.71-1.523c.068-.27.103-.373.103-.305-.542.54-1.016.897-1.422 1.066s-.745.22-1.016.152-.44-.237-.508-.508l-.102-.203c-.677.54-1.235.777-1.676.71s-.56-.576-.355-1.523c-.542 1.016-1.286 1.523-2.234 1.523-.474 0-.778-.17-.914-.508-.137-.338.033-1.117.507-2.336v-.102c.203-.475.44-1.016.71-1.625.204-.407.475-.543.814-.407h.103c.203.135.237.406.102.813l-.305.406c-.34.678-.575 1.22-.71 1.625-.137.61-.086.914.15.914s.492-.067.763-.202c.406-.27.762-.693 1.066-1.27s.49-1.033.558-1.37l.202-.51c.136-.337.288-.507.457-.507s.32.07.457.204.136.373 0 .71l-.71 1.626c-.204.54-.306.947-.306 1.22s.237.304.71.1c.204-.067.44-.202.712-.405.067-.27.61-1.727 1.625-4.367l1.016-2.54c.137-.337.373-.507.712-.507.067 0 .17.052.305.153s.17.288.102.56l-1.83 4.366c-.473 1.218-.76 1.997-.862 2.335s-.085.508.05.508c.475 0 1.254-.576 2.337-1.727l.102-.102.305-.71c.136-.476.27-.78.406-.915.136-.136.237-.204.305-.204.27 0 .406.12.406.355 0 .237-.035.458-.103.66l.508-.507c.677-.61 1.27-.863 1.777-.762s.762.39.762.864c0 .475-.44 1.252-1.32 2.336l-.203.102c-.202.338-.304.54-.304.61s.067.1.203.1.37-.134.71-.405l1.727-1.523L61.58 38.75c-1.016.543-3.25.915-6.703 1.118-3.25.203-6.5.203-9.75 0-3.453-.203-5.688-.576-6.703-1.117l1.318 12.697zm17.164 15.54l-.508 8.124c0 .475-.626.864-1.88 1.17s-2.758.456-4.52.456-3.266-.152-4.52-.457-1.878-.695-1.878-1.17l-.61-8.124-1.522-2.54c2.1.88 4.926 1.32 8.48 1.32s6.348-.44 8.38-1.32l-1.422 2.54zM54.47 38.142l-.103.102c0 .135-.372.203-1.117.203s-1.117-.068-1.117-.203l.102-.102c-.203.068-.305.135-.305.203s.136.152.406.254.593.152.965.152.695-.05.966-.152.406-.186.406-.254-.068-.136-.203-.203z" filter="url(#u)"/></mask><path mask="url(#v)" fill="#D1A93D" d="M0 0h100v100H0z"/><path fill="#D1A93D" d="M120 0h100v100H120z"/><text transform="translate(150.5 70.236)" font-family="'FontAwesome5BrandsRegular'" font-size="52">яОн</text></svg>