<svg xmlns="http://www.w3.org/2000/svg" width="100" height="100" viewBox="0 0 100 100"><defs><filter id="a" filterUnits="userSpaceOnUse" x="-360" y="0" width="100" height="100"><feFlood result="back" flood-color="#fff" flood-opacity="1"/><feBlend in="SourceGraphic" in2="back"/></filter></defs><mask maskUnits="userSpaceOnUse" x="-360" y="0" width="100" height="100" id="b"><path d="M-310 31.063c21.424 0 37.9 9.024 37.9 18.938S-288.59 68.94-310 68.94c-21.424 0-37.9-9.024-37.9-18.938s16.488-18.937 37.9-18.937m0-2.1c-22.087 0-40 9.412-40 21.037s17.913 21.038 40 21.038 40-9.413 40-21.038-17.913-21.038-40-21.038zm-12.726 19.35c-.986 5.063-4.476 4.538-8.76 4.538l1.71-8.825c4.752 0 7.977-.512 7.05 4.288zm-15.1 13.475h4.587l1.09-5.6c5.137 0 8.324.374 11.275-2.39 3.26-3 4.114-8.337 1.788-11.013-1.212-1.4-3.163-2.086-5.813-2.086h-8.837l-4.09 21.088zm23.215-26.7h4.56l-1.085 5.6c3.935 0 7.584-.288 9.348 1.337 1.85 1.7.963 3.875-1.038 14.14h-4.622c1.924-9.927 2.286-10.753 1.587-11.503-.677-.724-2.212-.574-5.927-.574l-2.35 12.076h-4.56l4.086-21.077zm27.735 13.225c-1 5.137-4.587 4.538-8.764 4.538l1.716-8.825c4.775 0 7.973-.512 7.05 4.288zm-15.1 13.475h4.6l1.087-5.6c5.402 0 8.39.312 11.274-2.39 3.264-3 4.114-8.337 1.788-11.013-1.212-1.4-3.163-2.086-5.813-2.086h-8.836l-4.1 21.088z" filter="url(#a)"/></mask><path mask="url(#b)" fill="#D1A93D" d="M-360 0h100v100h-100z"/><defs><filter id="c" filterUnits="userSpaceOnUse" x="-1080" y="0" width="100" height="100"><feFlood result="back" flood-color="#fff" flood-opacity="1"/><feBlend in="SourceGraphic" in2="back"/></filter></defs><mask maskUnits="userSpaceOnUse" x="-1080" y="0" width="100" height="100" id="d"><path d="M-1014.055 56.932c.542.406 1.016 1.016 1.422 1.828.813 1.558 1.05 3.352.71 5.383-.473 2.708-2.064 4.57-4.772 5.586-.542 1.218-1.286 2.233-2.234 3.046-1.285 1.15-2.81 1.794-4.57 1.93-1.624 1.354-3.79 2.03-6.5 2.03s-4.84-.643-6.397-1.93c-1.76-.202-3.284-.88-4.57-2.03-.948-.813-1.727-1.828-2.336-3.047-2.708-1.017-4.3-2.88-4.773-5.587-.27-1.422-.203-2.776.203-4.063.27-.88.677-1.66 1.22-2.336l.71-.813c.136.88.423 1.71.863 2.49s.965 1.437 1.574 1.98c.27-1.83.406-3.928.406-6.298 0-.678-.17-1.287-.508-1.828-.27-.406-.508-.678-.71-.813l-.814-.507c-1.286-.678-2.2-1.252-2.742-1.727-.948-.813-1.422-1.727-1.422-2.742 0-.677.203-1.287.61-1.828.202-.27.54-.576 1.015-.914l.202-.203c.27-.204.406-.374.406-.51.203-.405.32-1.082.355-2.03s-.017-1.523-.152-1.727c-.27-.338-.54-.78-.812-1.32-.474-1.016-.61-1.913-.406-2.69s.677-1.338 1.422-1.677c.542-.27 1.22-.44 2.03-.508l.103-.61c.067-.337.102-.608.102-.812-.068-.61-.17-.982-.306-1.117-.34-.543-.914-1.017-1.727-1.423-.61-.27-1.016-.406-1.22-.406l-1.218-.202.812-1.016c.34-.27.778-.542 1.32-.813 1.016-.61 2.133-.915 3.352-.915.813 0 1.625.135 2.438.406 1.828.543 3.52 1.863 5.078 3.962l.61-.203c-.068-.814.1-1.626.507-2.44.27-.676.66-1.25 1.168-1.726s.897-.71 1.168-.71v.304c.067 1.354.305 2.167.71 2.438.272-1.896 1.592-3.25 3.962-4.063-.406 1.15-.34 2.404.203 3.758.61-.54 1.22-.947 1.828-1.218.406-.203.778-.305 1.117-.305h.508l-.608 1.32c-.406 1.016-.508 1.862-.305 2.54l.914.304c1.56-2.098 3.25-3.418 5.08-3.96.812-.27 1.64-.406 2.487-.406s1.676.135 2.488.406c.542.203 1.05.508 1.523.914.406.203.61.338.61.406l.812 1.016-1.22.203c-.202 0-.608.134-1.218.405-.813.338-1.388.813-1.727 1.422-.136.135-.203.508-.203 1.117-.067.203-.034.474.102.813v.61c.813 0 1.49.168 2.03.507.746.338 1.22.897 1.423 1.676s.067 1.676-.406 2.69c-.27.61-.507 1.034-.71 1.27s-.288.83-.254 1.778.152 1.625.355 2.03c.068.136.204.306.407.51l.203.1c.474.407.813.746 1.016 1.017.406.542.61 1.15.61 1.828 0 1.016-.475 1.93-1.423 2.742-.542.474-1.456 1.05-2.742 1.727l-.812.406c-.203.203-.44.508-.71.914-.34.54-.51 1.15-.51 1.828 0 2.37.137 4.47.407 6.297 1.425-1.215 2.237-2.705 2.44-4.465zm-29.554-5.79c.475.272.898.712 1.27 1.32s.594 1.32.66 2.134c.137 1.692.035 4.266-.304 7.72 1.016.405 2.336.643 3.96.71.272-.474.475-.914.61-1.32l1.117-2.844c.745-1.828 1.253-3.013 1.523-3.555-.406 2.98-1.185 6.026-2.336 9.14.406-.066.813-.1 1.22-.1h11.882c.406 0 .778.033 1.117.1-1.152-3.113-1.93-6.127-2.337-9.038.27.473.778 1.624 1.523 3.452l1.117 2.844c.136.406.34.847.61 1.32 1.624-.067 2.944-.305 3.96-.71-.34-3.454-.44-6.027-.305-7.72.067-.813.288-1.523.66-2.133s.796-1.05 1.27-1.32l.813-.508c1.017-.542 1.728-.982 2.134-1.32.677-.542 1.016-1.1 1.016-1.676s-.085-.983-.254-1.22-.39-.457-.66-.66l-.305-.305c.137.88.238 1.388.306 1.523l-.406-.508c-.203-.406-.406-.88-.61-1.422-.27-.813-.473-1.66-.608-2.54-.067-.608-.05-1.37.05-2.284s.255-1.608.458-2.082v1.422l.203-.203c.27-.27.508-.642.71-1.116.272-.61.356-1.117.255-1.523s-.34-.693-.71-.862-.898-.254-1.575-.254c-.948 0-2.065.203-3.352.61-1.76.54-3.926 1.827-6.5 3.858l-.608.406.406-.61c.34-.608.813-1.218 1.422-1.827 1.22-1.286 2.54-2.267 3.96-2.944-.338-.406-1.082-.914-2.233-1.523-2.167-1.016-4.672-1.523-7.516-1.523s-5.348.508-7.515 1.523c-1.15.61-1.896 1.15-2.234 1.625 1.423.61 2.743 1.557 3.962 2.844.61.61 1.083 1.22 1.422 1.828l.406.61-.61-.407c-2.572-2.03-4.738-3.318-6.5-3.86-1.285-.405-2.402-.608-3.35-.608-.678 0-1.203.084-1.575.254s-.61.456-.71.862.016.914.354 1.523c.202.406.405.78.608 1.117l.203.203v-1.422c.204.406.356 1.083.458 2.03s.118 1.728.05 2.337c-.066.88-.27 1.727-.608 2.54-.136.54-.34 1.015-.61 1.42l-.405.51c.136-.136.237-.644.305-1.524l-.305.305c-.27.204-.474.424-.61.66s-.202.644-.202 1.22.305 1.134.914 1.676c.406.338 1.117.78 2.133 1.32l.102.102c.337.2.573.336.71.405zm-2.335 14.727c.542.947 1.354 1.675 2.438 2.183s2.234.762 3.453.762c-.474-1.354-.34-2.438.406-3.25l.914-1.117c-1.692-.067-3.183-.406-4.47-1.016-1.557-.813-2.605-2.03-3.147-3.656-.34.34-.475 1.15-.407 2.438 0 1.488.27 2.707.812 3.655zm1.117-36.563c.27 0 .575-.034.914-.102 1.083 0 2.03.305 2.844.914 1.016.744 1.727 1.522 2.133 2.335l1.22-.61c-1.152-1.76-2.44-2.843-3.86-3.25-.542-.202-1.117-.304-1.727-.304-.88 0-1.727.17-2.54.51.34.134.677.304 1.016.507zm1.523 14.625c.067-.61.305-1.016.71-1.22-.473-.134-.913-.27-1.32-.405 1.83-.406 3.657-.135 5.485.813 1.083.61 2.065 1.422 2.945 2.438.474.61 1.05.982 1.727 1.117.406.068.847.068 1.32 0l.61-.203c0 .542-.22 1-.66 1.37s-.966.56-1.575.56c.067.677-.136 1.422-.61 2.234l-.71 1.117c.34-1.016.406-1.896.203-2.64l-.305-.814c-.813.744-1.896.947-3.25.608-1.016-.27-1.794-.677-2.336-1.22-.814-.88-1.254-2.03-1.32-3.452-.204.406-.34.948-.407 1.625l-.305-.507c-.135-.474-.203-.947-.203-1.42zm2.946-10.563c-.27-1.017-.693-1.76-1.27-2.235s-1.27-.71-2.08-.71l.304.304c.203.405.34 1.015.406 1.827s.203 1.388.406 1.727l1.22.305c.202-.408.54-.815 1.015-1.22zm-.913 36.866c.813 1.22 1.828 2.1 3.047 2.64-.406-.608-.813-1.387-1.22-2.335-.676-.066-1.285-.168-1.827-.304zm.914-26.507c-.202.608-.253 1.286-.15 2.03s.39 1.287.862 1.625c.677.542 1.422.745 2.234.61.542 0 1.083-.17 1.625-.51-.405-.54-1.03-1.15-1.878-1.827s-1.743-1.32-2.69-1.93zm10.36 31.584c4.198 0 7.075-2.2 8.633-6.602.34-1.016.305-1.777-.102-2.285s-1.252-.762-2.538-.762h-11.984c-1.286 0-2.133.254-2.54.762s-.44 1.304-.1 2.387c1.557 4.333 4.434 6.5 8.632 6.5zm-2.336-7.82c-.203-.203-.508-.305-.914-.305h-2.945c-.474 0-.813.1-1.016.304s-.238.474-.103.813c.27.677.745 1.32 1.422 1.93.338.27.727.406 1.167.406s.83-.136 1.168-.406c.61-.677 1.05-1.354 1.32-2.03.068-.272.035-.51-.1-.713zm-.406-25.492l.914.914c.677.61 1.286.914 1.828.914s1.15-.305 1.828-.914l.914-.914c-.88.542-1.794.813-2.742.813s-1.862-.272-2.742-.813zm6.804 6.398c-.61 0-1.134-.186-1.574-.56s-.66-.83-.66-1.37h.102c.27.203.644.305 1.117.305.948 0 1.76-.406 2.438-1.22.88-1.015 1.862-1.827 2.945-2.437 1.828-.948 3.656-1.22 5.484-.813-.406.135-.847.27-1.32.406.406.204.644.61.71 1.22 0 .474-.066.948-.202 1.422l-.305.508c-.067-.61-.203-1.15-.406-1.625-.135 1.422-.574 2.573-1.32 3.453-.54.542-1.32.948-2.335 1.22-1.286.337-2.37.134-3.25-.61l-.305.813c-.136.475-.136 1.05 0 1.728l.305.914-.813-1.117c-.474-.813-.677-1.557-.61-2.235zm3.15 19.094c-.204-.136-.51-.237-.915-.305h-3.047c-.406 0-.694.1-.863.304s-.22.44-.152.71c.27.61.71 1.254 1.32 1.93.34.34.728.51 1.168.51s.83-.17 1.168-.51c.678-.54 1.152-1.15 1.423-1.827.135-.34.1-.61-.102-.813zm-1.32-20.008v.102h-.103c.54.27 1.05.44 1.522.508.88.068 1.66-.17 2.336-.71.474-.34.762-.88.863-1.626s.052-1.422-.15-2.03c-.95.608-1.846 1.25-2.692 1.93s-1.44 1.285-1.777 1.826zm5.686-18.89c-1.422.406-2.708 1.49-3.86 3.25l1.22.61c.406-.814 1.117-1.592 2.133-2.337.814-.61 1.762-.915 2.845-.915.34 0 .644.034.914.102.338-.203.676-.373 1.015-.508-.813-.34-1.66-.51-2.54-.51-.61 0-1.185.103-1.727.306zm-3.35 44.28c1.218-.54 2.268-1.42 3.147-2.64-.677.136-1.32.203-1.93.203-.406 1.015-.812 1.828-1.218 2.437zm7.717-7.007c.542-.95.847-2.134.914-3.556 0-1.354-.17-2.167-.51-2.438-.473 1.558-1.522 2.742-3.147 3.555-1.22.61-2.675.95-4.367 1.017l.813 1.117c.744.813.88 1.896.405 3.25 1.22 0 2.37-.254 3.453-.762s1.895-1.235 2.437-2.183zm-2.234-35.446c-.744 0-1.42.237-2.03.71s-1.05 1.22-1.32 2.235c.406.405.745.812 1.016 1.218l1.22-.305c.202-.338.338-.93.405-1.777s.204-1.44.407-1.777l.304-.306z" filter="url(#c)"/></mask><path mask="url(#d)" fill="#D1A93D" d="M-1080 0h100v100h-100z"/><defs><filter id="e" filterUnits="userSpaceOnUse" x="-960" y="0" width="100" height="100"><feFlood result="back" flood-color="#fff" flood-opacity="1"/><feBlend in="SourceGraphic" in2="back"/></filter></defs><mask maskUnits="userSpaceOnUse" x="-960" y="0" width="100" height="100" id="f"><path d="M-929.5 27.986h39l-3.555 40.22-15.945 5.28-15.945-5.28-3.555-40.22zm31.28 13l.51-4.875h-24.478l1.22 14.83h16.96l-.61 6.296-5.382 1.422-5.484-1.422-.305-3.86h-4.874l.61 7.72 10.155 2.742 9.954-2.742 1.32-15.133H-916.4l-.507-4.977h18.688z" filter="url(#e)"/></mask><path mask="url(#f)" fill="#D1A93D" d="M-960 0h100v100h-100z"/><defs><filter id="g" filterUnits="userSpaceOnUse" x="-840" y="0" width="100" height="100"><feFlood result="back" flood-color="#fff" flood-opacity="1"/><feBlend in="SourceGraphic" in2="back"/></filter></defs><mask maskUnits="userSpaceOnUse" x="-840" y="0" width="100" height="100" id="h"><path d="M-809.5 27.986h39l-3.555 40.22-15.945 5.28-15.945-5.28-3.555-40.22zm31.79 8.125h-24.58l.61 4.774h12.492l-12.086 5.078.406 4.672h16.86l-.407 6.297-5.484 1.524-5.382-1.32-.305-3.86h-4.977l.61 7.517 10.054 2.946 9.953-2.945 1.32-14.827H-789.9l11.68-5.078.51-4.774z" filter="url(#g)"/></mask><path mask="url(#h)" fill="#D1A93D" d="M-840 0h100v100h-100z"/><defs><filter id="i" filterUnits="userSpaceOnUse" x="-720" y="0" width="100" height="100"><feFlood result="back" flood-color="#fff" flood-opacity="1"/><feBlend in="SourceGraphic" in2="back"/></filter></defs><mask maskUnits="userSpaceOnUse" x="-720" y="0" width="100" height="100" id="j"><path d="M-652.125 27.986c1.354 0 2.505.474 3.453 1.422s1.422 2.1 1.422 3.453v35.75c0 1.355-.474 2.506-1.422 3.454s-2.1 1.422-3.453 1.422h-35.75c-1.354 0-2.505-.474-3.453-1.422s-1.422-2.1-1.422-3.453V32.86c0-1.353.474-2.504 1.422-3.452s2.1-1.422 3.453-1.422h35.75zm-15.844 35.446V48.908h-4.265V63.43c0 1.017-.203 1.71-.61 2.083s-.964.56-1.675.56-1.27-.204-1.676-.61c-.34-.27-.71-.778-1.117-1.523l-3.453 2.03c1.22 2.642 3.352 3.962 6.398 3.962 1.964 0 3.52-.542 4.672-1.625s1.727-2.708 1.727-4.875zm10.056 6.5c2.1 0 3.81-.524 5.13-1.574s1.98-2.522 1.98-4.418c0-1.692-.475-3.047-1.423-4.063-.88-.88-2.302-1.76-4.266-2.64l-1.016-.407c-1.015-.474-1.71-.88-2.08-1.22s-.56-.794-.56-1.37.187-1.033.56-1.37.862-.51 1.472-.51 1.134.136 1.574.407.83.744 1.168 1.422l3.352-2.134c-.677-1.22-1.507-2.1-2.488-2.64s-2.184-.814-3.605-.814c-1.896 0-3.42.542-4.57 1.625-1.15 1.084-1.727 2.438-1.727 4.063s.474 2.98 1.422 4.063c.813.88 2.065 1.66 3.758 2.336l1.016.507c1.22.542 1.997.948 2.336 1.22.542.405.813.93.813 1.573s-.27 1.168-.812 1.574-1.253.61-2.133.61c-1.692 0-3.08-.88-4.164-2.642l-3.452 2.03c.677 1.287 1.625 2.337 2.844 3.15 1.353.813 2.978 1.22 4.874 1.22z" filter="url(#i)"/></mask><path mask="url(#j)" fill="#D1A93D" d="M-720 0h100v100h-100z"/><path fill="#D1A93D" d="M-600 0h100v100h-100z"/><path d="M-550 25.55c4.536 0 8.734 1.133 12.594 3.4s6.923 5.333 9.19 9.192 3.403 8.057 3.403 12.594c0 4.537-1.134 8.734-3.402 12.594s-5.332 6.923-9.19 9.19-8.06 3.403-12.595 3.403-8.734-1.134-12.594-3.402-6.923-5.33-9.19-9.19-3.403-8.057-3.403-12.594c0-4.537 1.134-8.734 3.402-12.594s5.332-6.923 9.19-9.19 8.06-3.403 12.595-3.403zm-22.648 25.186c0 4.4 1.168 8.43 3.504 12.086s5.434 6.433 9.293 8.328l-10.868-29.656c-1.287 2.912-1.93 5.992-1.93 9.242zm25.796-10.664l8.125 24.375 2.438-8.023c.543-1.828.915-3.115 1.118-3.86.34-1.15.508-2.132.508-2.944 0-1.287-.203-2.505-.61-3.656-.27-.745-.71-1.625-1.32-2.64l-.304-.407c-.61-1.083-1.05-1.896-1.32-2.438-.406-.88-.61-1.694-.61-2.44 0-1.082.373-2.03 1.118-2.843s1.66-1.22 2.742-1.22l.305.103c-2.1-1.896-4.452-3.37-7.06-4.418s-5.365-1.574-8.276-1.574c-3.858 0-7.464.914-10.815 2.742s-6.043 4.3-8.074 7.414l1.423.102c1.016 0 2.336-.068 3.96-.203l2.032-.102c.406 0 .694.136.863.407s.203.576.102.914-.355.51-.762.51l-2.64.202 8.327 24.578 4.875-14.828-3.453-9.648-2.438-.305c-.34 0-.576-.153-.712-.458s-.118-.61.05-.914.458-.457.864-.457l2.133.103c1.625.135 2.91.203 3.86.203s2.233-.068 3.858-.203l2.133-.102c.34 0 .61.136.813.407s.236.576.1.914-.405.51-.812.51c-.88.067-1.727.134-2.54.202zM-550 73.385c2.573 0 5.078-.44 7.516-1.32l-.203-.305-6.906-19.094-6.805 19.805c2.098.61 4.23.915 6.398.915zm11.375-3.047c3.453-2.03 6.195-4.773 8.227-8.227s3.047-7.243 3.047-11.374c0-3.86-.915-7.482-2.743-10.867.067.744.102 1.522.102 2.335 0 2.505-.576 5.213-1.728 8.125l-6.907 20.008z"/><path fill="#D1A93D" d="M-480 0h100v100h-100z"/><path d="M-413.75 72.014c0 1.354-.474 2.505-1.422 3.453s-2.1 1.422-3.453 1.422h-22.75c-1.354 0-2.505-.475-3.453-1.423s-1.422-2.1-1.422-3.453v-42.25c0-1.354.474-2.505 1.422-3.453s2.1-1.42 3.453-1.42h22.75c1.354 0 2.505.473 3.453 1.42s1.422 2.1 1.422 3.454v42.25zm-4.875-41.64c0-.136-.067-.272-.203-.407s-.27-.203-.406-.203h-21.53c-.137 0-.272.068-.407.203s-.204.27-.204.406v41.03c0 .137.067.272.203.407s.27.203.405.203h21.53c.137 0 .272-.067.407-.203s.203-.27.203-.406v-41.03zm-3.25 3.858c0-.338-.118-.626-.355-.863s-.524-.356-.863-.356h-13.813c-.34 0-.626.12-.863.355s-.354.524-.354.862v26.813c0 .34.118.626.355.863s.525.355.864.355h13.813c.34 0 .626-.118.863-.355s.355-.524.355-.863V34.232zm-5.84 35.192c-.644.644-1.405.965-2.285.965s-1.642-.322-2.285-.966-.965-1.405-.965-2.285.32-1.643.965-2.286 1.405-.965 2.285-.965 1.642.32 2.285.964.965 1.405.965 2.285-.32 1.64-.965 2.284z"/><path fill="#D1A93D" d="M-240 0h100v100h-100z"/><path d="M-190 24.89c3.453 0 6.737.304 9.852.913 3.792.745 6.77 1.896 8.938 3.453 2.64 1.828 3.96 4.096 3.96 6.805v29.657c0 2.708-1.32 4.977-3.96 6.805-2.167 1.558-5.146 2.708-8.938 3.453-3.114.61-6.398.914-9.852.914s-6.737-.306-9.852-.915c-3.792-.745-6.77-1.896-8.938-3.453-2.64-1.828-3.96-4.097-3.96-6.805V36.06c0-2.707 1.32-4.976 3.96-6.804 2.167-1.557 5.146-2.708 8.938-3.453 3.115-.61 6.4-.914 9.852-.914zm0 4.874c-3.25 0-6.246.288-8.988.863s-4.91 1.337-6.5 2.285-2.387 1.998-2.387 3.148v.406c0 1.15.796 2.2 2.387 3.148s3.758 1.71 6.5 2.285 5.738.862 8.988.862 6.246-.288 8.988-.863 4.91-1.338 6.5-2.286 2.387-1.998 2.387-3.148v-.406c0-1.15-.796-2.2-2.387-3.148s-3.758-1.71-6.5-2.285-5.738-.863-8.988-.863zm17.875 13.71c-1.828 1.355-4.4 2.405-7.72 3.15-3.113.676-6.5 1.015-10.155 1.015s-7.042-.34-10.156-1.017c-3.317-.745-5.89-1.794-7.72-3.148v2.64c0 1.152.797 2.202 2.388 3.15s3.758 1.708 6.5 2.284c2.742.575 5.738.862 8.988.862s6.246-.287 8.988-.863c2.742-.577 4.91-1.338 6.5-2.286s2.387-1.998 2.387-3.148v-2.64zm0 9.75c-1.828 1.355-4.4 2.404-7.72 3.15-3.113.676-6.5 1.015-10.155 1.015s-7.042-.34-10.156-1.017c-3.317-.745-5.89-1.795-7.72-3.148v2.742c0 1.15.797 2.2 2.388 3.148s3.758 1.71 6.5 2.285 5.738.863 8.988.863 6.246-.288 8.988-.863 4.91-1.337 6.5-2.285 2.387-1.997 2.387-3.148v-2.742zm0 9.75c-1.828 1.355-4.4 2.404-7.72 3.15-3.113.676-6.5 1.015-10.155 1.015s-7.042-.34-10.156-1.017c-3.317-.745-5.89-1.794-7.72-3.148v2.742c0 1.15.797 2.2 2.388 3.148s3.758 1.71 6.5 2.285 5.738.863 8.988.863 6.246-.288 8.988-.863 4.91-1.337 6.5-2.285 2.387-1.997 2.387-3.148v-2.742z"/><defs><filter id="k" filterUnits="userSpaceOnUse" x="-120" y="0" width="100" height="100"><feFlood result="back" flood-color="#fff" flood-opacity="1"/><feBlend in="SourceGraphic" in2="back"/></filter></defs><mask maskUnits="userSpaceOnUse" x="-120" y="0" width="100" height="100" id="l"><path d="M-50.5 39.514c0 1.76-.508 3.352-1.523 4.773s-2.336 2.404-3.96 2.945c-.068 2.844-.814 5.146-2.235 6.906-1.286 1.558-3.114 2.675-5.484 3.352-1.422.406-3.59.745-6.5 1.016h-.102c-1.692.203-2.91.34-3.656.406-1.286.27-2.27.575-2.945.914s-1.185.778-1.523 1.32c1.558.61 2.81 1.608 3.758 2.996s1.422 2.93 1.422 4.62c0 2.235-.796 4.148-2.387 5.74s-3.504 2.386-5.738 2.386-4.147-.796-5.738-2.387-2.388-3.503-2.388-5.737c0-1.828.524-3.453 1.574-4.875s2.42-2.37 4.113-2.844V40.732c-1.693-.474-3.064-1.422-4.114-2.844s-1.574-3.047-1.574-4.875c0-2.234.796-4.147 2.387-5.738s3.503-2.387 5.737-2.387 4.147.795 5.738 2.387 2.387 3.504 2.387 5.738c0 1.828-.524 3.453-1.574 4.875s-2.42 2.37-4.113 2.844v14.625c1.083-.475 2.403-.846 3.96-1.117.95-.203 2.37-.406 4.267-.61 2.438-.202 4.164-.405 5.18-.608 1.625-.406 2.793-1.05 3.504-1.93.71-.88 1.1-2.133 1.168-3.758-1.76-.542-3.183-1.523-4.266-2.945s-1.625-3.048-1.625-4.876c0-2.234.796-4.147 2.387-5.738s3.504-2.387 5.738-2.387 4.147.794 5.738 2.386 2.384 3.503 2.384 5.738zm-30.875-9.75c-.88 0-1.642.322-2.285.965s-.965 1.404-.965 2.284.32 1.642.965 2.285 1.405.964 2.285.964 1.642-.322 2.285-.965.965-1.406.965-2.286-.32-1.642-.965-2.285-1.405-.966-2.285-.966zm0 42.25c.88 0 1.642-.32 2.285-.965s.965-1.406.965-2.286-.32-1.642-.965-2.285-1.405-.966-2.285-.966-1.642.32-2.285.965-.965 1.404-.965 2.284.32 1.642.965 2.285 1.405.964 2.285.964zm22.75-29.25c.88 0 1.642-.322 2.285-.965s.965-1.406.965-2.286-.32-1.642-.965-2.285-1.405-.966-2.285-.966-1.642.322-2.285.965-.965 1.404-.965 2.284.32 1.642.965 2.285 1.405.964 2.285.964z" filter="url(#k)"/></mask><path mask="url(#l)" fill="#D1A93D" d="M-120 0h100v100h-100z"/><defs><filter id="m" filterUnits="userSpaceOnUse" x="0" y="0" width="100" height="100"><feFlood result="back" flood-color="#fff" flood-opacity="1"/><feBlend in="SourceGraphic" in2="back"/></filter></defs><mask maskUnits="userSpaceOnUse" x="0" y="0" width="100" height="100" id="n"><path d="M32.53 56.22h.61l.61 3.454c-.678.27-1.49.406-2.44.406-2.91 0-4.366-1.828-4.366-5.484V39.36h-1.422c-.677 0-1.134.153-1.37.458s-.356.897-.356 1.777l.102 5.18c0 1.22-.187 2.116-.56 2.69s-.964.932-1.776 1.067v.203c.813.203 1.405.592 1.777 1.168s.558 1.44.558 2.59c0 .678-.034 1.625-.102 2.844v2.438c0 .88.118 1.49.355 1.828s.695.508 1.372.508h.61v2.44H24.1c-1.49 0-2.556-.34-3.2-1.017s-.964-1.862-.964-3.555c0-.813.05-1.777.152-2.895s.152-1.998.152-2.64-.22-1.187-.66-1.626-1.134-.66-2.082-.66v-2.844c.948 0 1.642-.237 2.082-.71s.66-1.017.66-1.626-.05-1.49-.152-2.64-.152-2.134-.152-2.946c0-1.692.32-2.876.965-3.554s1.71-1.016 3.2-1.016h7.617V54.9c0 .474.085.813.254 1.016s.358.305.56.305zm7.822-13c2.167 0 3.843.73 5.027 2.185s1.776 3.3 1.776 5.535c0 .54-.067 1.15-.203 1.828v.102h-9.648c.406 2.303 1.794 3.453 4.164 3.453 1.15 0 2.335-.34 3.554-1.016l1.523 2.844c-1.76 1.22-3.656 1.83-5.688 1.83-2.37 0-4.3-.746-5.79-2.235s-2.25-3.504-2.285-6.043.71-4.587 2.234-6.145 3.3-2.336 5.332-2.336zm-3.047 6.704h5.79c0-2.1-.915-3.148-2.743-3.148-.745 0-1.405.27-1.98.813s-.932 1.318-1.067 2.334zm18.79.305c2.91.946 4.366 2.57 4.366 4.874 0 1.49-.574 2.726-1.726 3.707s-2.776 1.474-4.875 1.474c-1.017 0-2.083-.203-3.2-.61s-2.082-.947-2.895-1.624l2.133-3.148c1.422 1.083 2.81 1.625 4.164 1.625s2.03-.44 2.03-1.32c0-.406-.304-.813-.913-1.22-.34-.202-1.017-.474-2.032-.812l-.305-.203c-2.844-1.084-4.266-2.64-4.266-4.672 0-1.49.575-2.69 1.727-3.605s2.657-1.37 4.52-1.37 3.673.676 5.434 2.03L58.125 48.2c-1.22-.88-2.336-1.32-3.352-1.32-1.22 0-1.828.405-1.828 1.218 0 .474.237.846.71 1.117.272.203.848.44 1.728.71.34.134.575.236.71.304zm12.897 0c2.91.946 4.367 2.57 4.367 4.874 0 1.49-.576 2.726-1.728 3.707s-2.776 1.474-4.875 1.474c-.948 0-1.997-.203-3.148-.61s-2.1-.947-2.845-1.624l2.133-3.148c1.422 1.083 2.81 1.625 4.164 1.625s2.03-.44 2.03-1.32c0-.406-.304-.813-.913-1.22-.34-.202-1.017-.474-2.032-.812l-.406-.203c-2.776-1.084-4.164-2.64-4.164-4.672 0-1.49.56-2.69 1.676-3.605s2.606-1.37 4.47-1.37 3.706.675 5.534 2.03l-2.133 2.843c-1.22-.88-2.37-1.32-3.453-1.32-1.15 0-1.727.406-1.727 1.22 0 .405.237.778.71 1.116.272.203.814.44 1.626.71.34.135.576.237.712.305zm10.766-3.25c0 .608.22 1.15.66 1.624s1.134.71 2.082.71v2.845c-.948 0-1.642.235-2.082.71s-.66 1.033-.66 1.676c0 .644.05 1.523.152 2.64s.152 2.083.152 2.896c0 1.692-.32 2.878-.965 3.555s-1.71 1.016-3.2 1.016h-2.03v-2.54h.61v-.103c.676 0 1.15-.152 1.42-.457s.407-.897.407-1.777l-.203-5.28c0-1.15.188-2.015.56-2.59s.965-.966 1.777-1.17v-.202c-.813-.203-1.405-.576-1.777-1.117s-.56-1.422-.56-2.64l.204-5.282c0-.88-.118-1.473-.355-1.777s-.73-.457-1.474-.457h-.61v-2.437H75.9c1.49 0 2.556.338 3.2 1.016s.964 1.86.964 3.554c0 .813-.05 1.777-.152 2.895s-.152 2.01-.152 2.69z" filter="url(#m)"/></mask><path mask="url(#n)" fill="#D1A93D" d="M0 0h100v100H0z"/><path fill="#D1A93D" d="M120 0h100v100H120z"/><text transform="translate(150.5 70.236)" font-family="'FontAwesome5BrandsRegular'" font-size="52"></text><path fill="#D1A93D" d="M240 0h100v100H240z"/><text transform="translate(270.5 70.236)" font-family="'FontAwesome5BrandsRegular'" font-size="52"></text><path fill="#D1A93D" d="M360 0h100v100H360z"/><text transform="translate(390.5 70.236)" font-family="'FontAwesome5BrandsRegular'" font-size="52"></text><path fill="#D1A93D" d="M480 0h100v100H480z"/><text transform="translate(510.5 70.236)" font-family="'FontAwesome5BrandsRegular'" font-size="52"></text><path fill="#D1A93D" d="M600 0h100v100H600z"/><text transform="translate(630.5 70.236)" font-family="'FontAwesome5BrandsRegular'" font-size="52"></text></svg>