<svg xmlns="http://www.w3.org/2000/svg" viewBox="0 0 100 100"><path fill="#FFF" d="M100 0v100H0V0h100zM54.4 45.9H45v31.9c0 4.7-2 5.9-5 5.9-3.2 0-4.6-2.2-6-4.8l-7.7 4.6c2.2 4.7 6.6 8.6 14.1 8.6 8.3 0 14-4.4 14-14.2v-32zm37.8 33.2c0-7.9-4.5-11.4-12.5-14.8l-2.3-1c-4-1.8-5.8-2.9-5.8-5.7 0-2.3 1.7-4 4.5-4 2.7 0 4.4 1.1 6 4l7.3-4.7c-3.1-5.4-7.4-7.5-13.3-7.5-8.4 0-13.7 5.4-13.7 12.4 0 7.7 4.5 11.3 11.3 14.2l2.3 1c4.3 1.9 6.9 3 6.9 6.2 0 2.7-2.5 4.6-6.4 4.6-4.6 0-7.3-2.4-9.3-5.7l-7.7 4.4c2.7 5.4 8.4 9.6 17.1 9.6 8.9.1 15.6-4.6 15.6-13z"/></svg>