<svg id="Capa_1" xmlns="http://www.w3.org/2000/svg" viewBox="0 0 100 100"><style>path { fill: #FFF; color: #FFF; }</style><path d="M50 100C22.4 100 0 77.6 0 50S22.4 0 50 0s50 22.4 50 50-22.4 50-50 50zm0-97.7C23.7 2.3 2.3 23.7 2.3 50S23.7 97.7 50 97.7c26.3 0 47.7-21.4 47.7-47.7S76.3 2.3 50 2.3zM31.3 88.6C17 81.7 7.1 67 7.1 50c0-6.2 1.3-12.1 3.7-17.5l20.5 56.1zm44.4-26.9L71.5 76 55.9 29.9c2.6-.1 4.9-.4 4.9-.4 2.3-.3 2-3.7-.3-3.5 0 0-7 .5-11.4.5-4.2 0-11.3-.5-11.3-.5-2.3-.1-2.6 3.4-.3 3.5 0 0 2.2.3 4.5.4l6.7 18.3-9.4 28.1-15.6-46.4c2.6-.1 4.9-.4 4.9-.4 2.3-.3 2-3.7-.3-3.5 0 0-7 .5-11.4.5-.8 0-1.8 0-2.8-.1C21.8 14.8 35 7.1 50 7.1c11.2 0 21.3 4.3 29 11.3h-.6c-4.2 0-7.2 3.7-7.2 7.6 0 3.5 2 6.5 4.2 10.1 1.6 2.9 3.5 6.5 3.5 11.8.1 3.6-1.4 7.9-3.2 13.8zM63.9 89.9l.3.6C59.8 92 55 92.9 50 92.9c-4.2 0-8.3-.6-12.1-1.8l12.9-37.4 13.1 36.2zm29-39.9c0 15.8-8.6 29.6-21.3 37.1l13.1-37.9c2.5-6.1 3.3-11 3.3-15.4 0-1.6-.1-3-.3-4.4 3.3 6.1 5.2 13.1 5.2 20.6z"/></svg>