<?xml version="1.0" encoding="utf-8"?>
<!-- Generator: Adobe Illustrator 23.0.2, SVG Export Plug-In . SVG Version: 6.00 Build 0)  -->
<svg version="1.1" id="Capa_1" xmlns="http://www.w3.org/2000/svg" xmlns:xlink="http://www.w3.org/1999/xlink" x="0px" y="0px"
	 viewBox="0 0 100 100" style="enable-background:new 0 0 100 100;" xml:space="preserve">
<g>
	<path d="M50,80c-0.2,0-0.3,0-0.5,0c-18.9,0-36.1-7.1-49.1-18.9c-1-0.9-0.1-2.2,1.1-1.5C16.1,68,33,72.8,50.9,72.8
		c0,0,0.1,0.1,0.2,0.1c13.3-0.1,26.2-2.8,37.7-7.7c1.8-0.8,3.4,1.2,1.6,2.6C79.5,75.7,63.6,80,50,80z M29.9,47.8
		c0,0.4-0.3,0.8-0.6,1l-2,1.4c-0.3,0.2-0.6,0.3-0.9,0.3c-0.1,0-1.3,0.3-3.2-4c-2.2,2.8-5.7,4.6-9.6,4.6c-0.1,0-0.1,0-0.2,0
		c-2.5,0.1-9.4-1.4-9.1-8.8c-0.2-6,5.3-9.7,11.1-9.4c1.1,0,3.4,0.1,7.3,1v-2.4c0.4-4.1-2.3-7.3-7-6.9c-0.4,0-3-0.1-7.2,1.6
		c-1.1,0.5-1.3,0.4-1.7,0.4c-1.2,0-0.7-3.4-0.5-3.8c0.8-1,5.6-2.9,10.3-2.8c0.4,0,0.7,0,1.1,0c2.9,0,5.6,1,7.6,2.7
		c1.7,1.9,2.8,4.5,2.8,7.3c0,0.3,0,0.6,0,0.9v10.8C28.1,45.3,29.8,46.8,29.9,47.8z M22.4,42c0.4-1.6,0.3-2.6,0.3-4.3
		C21.2,37.4,19,37,16.5,37c-2.4-0.2-6.7,0.9-6.5,5c-0.2,2.6,1.7,4.9,4.7,4.8C19.8,46.7,21.9,43.7,22.4,42z M39.4,48.8L31.6,23
		c-0.2-0.4-0.3-0.9-0.3-1.3c0,0,0-0.1,0-0.1c0-0.4,0.3-0.7,0.6-0.7c0,0-0.3,0,3.5,0c1.4-0.1,1.8,0.9,2,1.6l5.6,22l5.2-22
		c0.1-0.5,0.5-1.7,2-1.6h2.7c0.3,0,1.7-0.1,2,1.6L60,44.8l5.8-22.3c0.1-0.3,0.4-1.8,2-1.6h3.1c0.1,0,1-0.1,0.8,1.3
		c-0.1,0.3,0.5-1.7-8.2,26.5c-0.2,0.9-0.8,1.7-2,1.6h-2.9c-1.7,0.2-2-1.5-2-1.7l-5.2-21.4l-5.1,21.4c0,0.2-0.3,1.9-2,1.7h-2.9v0
		C40.2,50.5,39.6,49.6,39.4,48.8z M75.2,49.3c-0.7-0.3-1.2-1-1.2-1.8c0,0,0,0,0,0v-1.7c0-1.3,1-1.1,1.4-0.9c1.6,0.6,2.6,1.1,4.5,1.5
		c5.7,1.2,8.2-0.4,8.9-0.7c2.1-1.2,2.2-4,0.8-5.5c-1.6-1.4-2.4-1.4-8.3-3.3c-0.7-0.2-6.8-2.1-6.8-8.2c-0.1-4.4,3.9-8.8,10.9-8.7
		c2,0,7.3,0.6,8.7,2.4c0.2,0.3,0.3,0.7,0.3,1.1v1.6c0,0.7-0.3,1-0.8,1c-1.2-0.1-3.3-1.7-7.7-1.7c-1.1-0.1-6.2,0.1-6,3.9
		c-0.1,3,4.2,4.1,4.6,4.2c5.7,1.7,7.6,2,9.9,4.6c2.7,3.5,1.2,7.5,0.7,8.7c-3,5.9-10.7,5.4-10.8,5.4C83.2,51.3,78.8,51.2,75.2,49.3z
		 M82.2,62c-1.1,0.1-1.2-0.8-0.3-1.5c6.3-4.4,16.5-3.1,17.7-1.7c1.2,1.5-0.3,11.8-6.2,16.7c-0.9,0.8-1.8,0.4-1.4-0.6
		c1.3-3.3,4.3-10.7,2.9-12.5C93.6,60.6,85.7,61.6,82.2,62z"/>
</g>
</svg>
