<?xml version="1.0" encoding="utf-8"?>
<!-- Generator: Adobe Illustrator 23.0.2, SVG Export Plug-In . SVG Version: 6.00 Build 0)  -->
<svg version="1.1" id="Capa_1" xmlns="http://www.w3.org/2000/svg" xmlns:xlink="http://www.w3.org/1999/xlink" x="0px" y="0px"
	 viewBox="0 0 100 100" style="enable-background:new 0 0 100 100;" xml:space="preserve">
<style type="text/css">
	path { fill: #FFF; color: #FFF; }
</style>
<g>
	<path d="M21.2,16.5c-5.8,8.4-5.1,19.3-0.7,28.2l0.3,0.6l0.2,0.4l0.1,0.2l0.2,0.4c0.1,0.2,0.3,0.5,0.4,0.7l0.2,0.4
		c0.2,0.3,0.3,0.5,0.5,0.8l0.2,0.3c0.2,0.3,0.5,0.7,0.7,1l0,0l0.1,0.2c0.2,0.3,0.4,0.6,0.7,0.9l0.2,0.3c0.2,0.2,0.4,0.5,0.6,0.7
		l0.2,0.3c0.3,0.3,0.6,0.6,0.8,1l0,0l0,0c0.3,0.3,0.6,0.6,0.9,0.9l0.3,0.3c0.2,0.2,0.5,0.4,0.7,0.7l0.3,0.3c0.3,0.3,0.6,0.6,0.9,0.9
		l0,0l0.2,0.1c0.3,0.2,0.6,0.5,0.8,0.7l0.4,0.3c0.2,0.2,0.5,0.4,0.7,0.6l0.4,0.3c0.3,0.2,0.5,0.4,0.8,0.6l0.3,0.2l0.1,0.1
		c0.3,0.2,0.5,0.3,0.8,0.5l0.3,0.2c0.4,0.3,0.8,0.5,1.2,0.7l0.3,0.2c0.3,0.2,0.6,0.3,0.9,0.5l0.5,0.3l0.6,0.3l0.1,0.1l0.3,0.1
		c0.3,0.2,0.7,0.3,1,0.5l0.2,0.1c0.4,0.2,0.8,0.3,1.2,0.5l0.3,0.1c0.4,0.1,0.8,0.3,1.1,0.4l0.1,0c0.4,0.1,0.8,0.3,1.3,0.4l0.3,0.1
		c0.4,0.1,0.9,0.3,1.3,0.4c28.2,5.2,36.5-17,36.5-17c-6.9,9-19.1,11.3-30.7,8.7c-0.4-0.1-0.9-0.2-1.3-0.4l-0.3-0.1
		c-0.4-0.1-0.8-0.3-1.2-0.4l-0.2-0.1c-0.4-0.1-0.7-0.3-1.1-0.4l-0.3-0.1c-0.4-0.2-0.8-0.3-1.2-0.5L44.8,54c-0.3-0.2-0.7-0.3-1-0.5
		l-0.3-0.1c-0.3-0.1-0.5-0.3-0.8-0.4l-0.5-0.3c-0.3-0.2-0.6-0.3-0.9-0.5L41,52c-0.4-0.2-0.8-0.5-1.2-0.7l-0.3-0.2
		c-0.3-0.2-0.6-0.4-0.9-0.6l-0.3-0.2c-0.3-0.2-0.5-0.4-0.8-0.6l-0.4-0.3c-0.2-0.2-0.5-0.4-0.7-0.6l-0.3-0.3
		c-0.3-0.3-0.6-0.5-0.9-0.8l-0.1-0.1c-0.3-0.3-0.6-0.6-1-0.9l-0.3-0.3c-0.2-0.2-0.5-0.4-0.7-0.7l-0.3-0.3c-0.3-0.3-0.6-0.6-0.8-0.9
		l0,0c-0.3-0.3-0.6-0.6-0.9-1l-0.2-0.3c-0.2-0.3-0.4-0.5-0.6-0.8l-0.2-0.3c-0.2-0.3-0.5-0.6-0.7-0.9c-6.4-8.8-8.7-20.9-3.6-30.8
		 M39.3,9.4c-4.2,6.1-4,14.2-0.7,20.6c0.6,1.1,1.2,2.1,1.9,3.1c0.6,0.9,1.3,2,2.2,2.7c0.3,0.3,0.6,0.7,0.9,1l0.2,0.2
		c0.3,0.3,0.6,0.6,1,0.9l0,0l0,0c0.4,0.3,0.7,0.6,1.1,0.9l0.3,0.2c0.4,0.3,0.8,0.6,1.2,0.9l0,0l0.5,0.4l0.3,0.2
		c0.3,0.2,0.6,0.4,0.9,0.5l0.1,0.1c0.3,0.1,0.5,0.3,0.8,0.4l0.3,0.1l0.5,0.3l0.1,0c0.4,0.2,0.7,0.4,1.1,0.5l0.2,0.1
		c0.3,0.1,0.6,0.3,0.9,0.4l0.4,0.1c0.3,0.1,0.6,0.2,0.9,0.3l0.4,0.1c0.4,0.1,0.8,0.3,1.2,0.4C77.9,47.6,83,30.9,83,30.9
		c-4.5,6.5-13.3,9.7-22.7,7.2c-0.4-0.1-0.8-0.2-1.2-0.4l-0.4-0.1c-0.3-0.1-0.6-0.2-0.9-0.3l-0.4-0.1c-0.3-0.1-0.6-0.2-0.9-0.4
		l-0.3-0.1c-0.4-0.2-0.8-0.3-1.1-0.5l-0.6-0.3l-0.3-0.2c-0.2-0.1-0.5-0.3-0.7-0.4l-0.2-0.1c-0.3-0.2-0.6-0.3-0.9-0.5l-0.3-0.2
		l-0.6-0.4c-0.4-0.3-0.8-0.6-1.2-0.9L50.2,33c-4.1-3.2-7.4-7.7-8.9-12.7C39.6,15.1,40,9.3,42.8,4.5 M54.6,4.1
		c-2.5,3.7-2.7,8.2-1,12.3c1.8,4.3,5.6,7.7,9.9,9.3l0.5,0.2l0.2,0.1c0.3,0.1,0.5,0.2,0.8,0.2c12,2.3,15.3-6.2,16.2-7.4
		c-2.9,4.1-7.7,5.1-13.6,3.7c-0.5-0.1-1-0.3-1.4-0.4c-0.6-0.2-1.1-0.4-1.7-0.7c-1-0.5-2-1.1-3-1.8c-5.3-4-8.6-11.6-5.1-17.9"/>
	<path class="st0" d="M51.9,76.8h-3.4c-0.2,0-0.4,0.1-0.4,0.3l-1.2,5.5l-1.2,5.5c0,0.2-0.2,0.3-0.4,0.3h-2.4c-2.4,0-2.1-1.6-1.6-3.9
		l0-0.1l0.1-0.3l0-0.1l0.1-0.6l0.1-0.6l0.1-0.6l0.5-2.6l0.5-2.6c0-0.2-0.1-0.3-0.3-0.3h-3.4c-0.2,0-0.4,0.1-0.4,0.3L38,80.6
		l-0.7,3.5l0,0l-0.1,0.3c-0.9,3.9-0.6,7.6,4,7.7l0.1,0h7.3c0.2,0,0.4-0.1,0.4-0.3l1.6-7.4l1.6-7.4C52.2,76.9,52.1,76.8,51.9,76.8z
		 M15.9,76.7h-3.7c-0.2,0-0.4,0.1-0.4,0.3l-0.3,1.5l-0.3,1.5c0,0.2,0.1,0.3,0.3,0.3h3.7c0.2,0,0.4-0.1,0.4-0.3l0.3-1.5l0.3-1.5
		C16.2,76.9,16.1,76.7,15.9,76.7z M14.8,81.5h-3.7c-0.2,0-0.4,0.1-0.4,0.3l-0.5,2.3l-0.5,2.3l-0.1,0.7L9,89.5l-0.5,2.4
		c0,0.2-0.1,0.5-0.2,0.7c0,0-0.7,2.1-1.9,2l-0.1,0l-1,0h0c-0.2,0-0.4,0.1-0.4,0.3l-0.4,1.6l-0.4,1.6c0,0.2,0.1,0.3,0.3,0.3
		c0.7,0,2.1,0,3,0c2.9,0,4.5-1.6,5.4-6.3l1.2-5.3l1.1-5C15.2,81.7,15,81.5,14.8,81.5z M83.3,80.3l-0.2-0.6L83,79l-0.1-0.3
		c-0.3-1.2-1.2-1.8-3.1-1.8l-3,0l-2.8,0h-3.1c-0.2,0-0.4,0.1-0.4,0.3l-0.1,0.6l-0.2,0.8l0,0.2l-1.4,6.5l-1.3,6.2
		c0,0.2-0.1,0.4,0,0.5c0,0.1,0.4,0.2,0.6,0.2h2.8c0.2,0,0.4,0,0.5-0.1c0.1,0,0.3-0.4,0.3-0.6l0.5-2.5l0.5-2.5l0,0l0.1-0.3l0.6-2.8
		l0.5-2.5c0-0.2,0.2-0.3,0.4-0.3l8.8,0C83.2,80.6,83.3,80.5,83.3,80.3z M94.6,74.5l-0.7,0h-2.8c-0.2,0-0.4,0.1-0.5,0.3l-6.2,9.1
		c-0.1,0.2-0.2,0.1-0.3,0l-0.5-2c0-0.2-0.2-0.3-0.4-0.3h-4c-0.2,0-0.3,0.1-0.2,0.3l1.8,6.3c0.1,0.2,0.1,0.5,0,0.7l-0.8,3
		c0,0.2,0.1,0.3,0.3,0.3h4c0.2,0,0.4-0.1,0.4-0.3l0.8-3c0-0.2,0.2-0.5,0.3-0.6l10.1-13.4c0.1-0.1,0.1-0.3-0.1-0.3L94.6,74.5z
		 M62.8,82.4L62.8,82.4c0,0.2-0.2,0.3-0.4,0.3h-5.1c-0.2,0-0.3-0.1-0.2-0.3l0,0l0,0l0,0l0-0.1c0.5-1.3,1.5-2.1,3.3-2.1
		C62.5,80.2,62.9,81.2,62.8,82.4z M61.3,76.5c-6.5,0-8.1,4-8.9,8c-0.9,4.1-0.8,7.9,6,7.9h0.8l0.2,0h0l0.8,0h0c1.8,0,3.6,0,4.3,0
		c0.2,0,0.4-0.2,0.4-0.3l0.3-1.3l0.1-0.3l0.3-1.6c0-0.2-0.1-0.3-0.3-0.3h-6.1c-2.4,0-3.1-0.6-2.9-2.5H66l0,0l0,0
		c0.2,0,0.3-0.1,0.4-0.3l0-0.1l0,0C67.9,80.2,67.4,76.5,61.3,76.5z M30.4,82.4l-0.1,0.3v0l-0.7,2.6l-0.7,2.6
		c-0.1,0.2-0.2,0.3-0.4,0.3h-3.9c-2.9,0-3.7-2.3-2.9-5.7c0.7-3.5,2.1-5.6,5-5.8C30.6,76.4,31.4,79.2,30.4,82.4z M33.1,88
		c0,0,1.8-4.4,2.2-7c0.6-3.4-1.2-8.4-7.8-8.4c-6.6,0-9.5,4.8-10.6,9.9c-1.1,5.2,0.3,9.8,6.9,9.7l5.2,0l4.8,0c0.2,0,0.4-0.1,0.4-0.3
		l0.8-3.2c0-0.2-0.1-0.3-0.3-0.3l-0.8,0l-0.8,0C33.1,88.3,33.1,88.2,33.1,88L33.1,88z M65.8,85.1c0,0.1-0.1,0.2-0.2,0.2
		c-0.1,0-0.2-0.1-0.2-0.2c0-0.1,0.1-0.2,0.2-0.2S65.8,84.9,65.8,85.1z"/>
</g>
</svg>
