<?xml version="1.0" encoding="utf-8"?>
<!-- Generator: Adobe Illustrator 23.0.2, SVG Export Plug-In . SVG Version: 6.00 Build 0)  -->
<svg version="1.1" id="Capa_1" xmlns="http://www.w3.org/2000/svg" xmlns:xlink="http://www.w3.org/1999/xlink" x="0px" y="0px"
	 viewBox="0 0 100 100" style="enable-background:new 0 0 100 100;" xml:space="preserve">
<style type="text/css">
	path { fill: #FFF; color: #FFF; }
</style>
<g>
	<path d="M21.5,54.7c0,0.2-0.1,0.4-0.3,0.5c-0.2,0.1-0.4,0.1-0.6,0L15,51.9c-0.4-0.2-0.6-0.6-0.6-1V44c0-0.4-0.2-0.8-0.6-1l-2.4-1.4
		c-0.2-0.1-0.4-0.2-0.6-0.2c-0.2,0-0.4,0-0.6,0.2L7.9,43c-0.4,0.2-0.6,0.6-0.6,1v6.9c0,0.4-0.2,0.8-0.6,1l-5.7,3.3
		c-0.2,0.1-0.4,0.1-0.6,0c-0.2-0.1-0.3-0.3-0.3-0.5l0-14.8c0-0.4,0.2-0.8,0.6-1l9.5-5.5c0.2-0.1,0.3-0.2,0.5-0.2h0.1
		c0.2,0,0.4,0.1,0.5,0.2l9.5,5.5c0.4,0.2,0.6,0.6,0.6,1L21.5,54.7z M47.6,51.3c-0.1,0.3-0.3,0.6-0.6,0.7l-9.5,5.5
		c-0.3,0.2-0.8,0.2-1.2,0L26.9,52c-0.3-0.2-0.6-0.6-0.6-1v-11c0-0.4,0.2-0.8,0.6-1l9.5-5.5c0.4-0.2,0.8-0.2,1.2,0l9.5,5.5
		c0.4,0.2,0.6,0.6,0.6,1v11C47.6,51.1,47.6,51.2,47.6,51.3z M35.9,31.7h0.2l0-0.1L35.9,31.7z M48.5,80.3l-3-1.8
		c-0.5-0.2-0.2-0.3-0.1-0.4c0.6-0.2,0.7-0.2,1.4-0.6c0.1,0,0.2,0,0.2,0l2.3,1.4c0.1,0,0.2,0,0.3,0l9-5.2c0.1,0,0.1-0.1,0.1-0.2V63
		c0-0.1,0-0.2-0.1-0.2l-9-5.2c-0.1,0-0.2,0-0.3,0l-9,5.2c-0.1,0-0.1,0.2-0.1,0.2v10.4c0,0.1,0.1,0.2,0.1,0.2l2.5,1.4
		c1.3,0.7,2.2-0.1,2.2-0.9V63.9c0-0.1,0.1-0.3,0.3-0.3h1.1c0.1,0,0.3,0.1,0.3,0.3v10.3c0,1.8-1,2.8-2.7,2.8c-0.5,0-0.9,0-2.1-0.6
		L39.5,75c-0.6-0.3-0.9-1-0.9-1.6V63c0-0.7,0.4-1.3,0.9-1.6l9-5.2c0.6-0.3,1.3-0.3,1.9,0l9,5.2c0.6,0.3,0.9,1,0.9,1.6v10.4
		c0,0.7-0.4,1.3-0.9,1.6l-9,5.2c-0.3,0.2-0.6,0.3-0.9,0.3C49.1,80.5,48.8,80.4,48.5,80.3z M52.2,73.3c-3.9,0-4.8-1.8-4.8-3.3
		c0-0.2,0.1-0.3,0.3-0.3h1.2c0.1,0,0.2,0.1,0.3,0.2c0.2,1.2,0.7,1.8,3.1,1.8c1.9,0,2.7-0.4,2.7-1.4c0-0.6-0.2-1-3.2-1.3
		c-2.5-0.2-4-0.8-4-2.8c0-1.8,1.5-2.9,4.1-2.9c2.9,0,4.3,1,4.5,3.1c0,0.1,0,0.1-0.1,0.2c0,0-0.1,0.1-0.2,0.1h-1.2
		c-0.1,0-0.2-0.1-0.2-0.2c-0.3-1.2-1-1.7-2.8-1.7c-2.1,0-2.3,0.7-2.3,1.3c0,0.7,0.3,0.8,3.1,1.2c2.8,0.4,4.1,0.9,4.1,2.8
		C56.7,72.2,55.1,73.3,52.2,73.3z M47.9,51.7v0.1l0.1,0L47.9,51.7z M73.7,51.2c0,0.4-0.2,0.8-0.6,1l-9.5,5.5c-0.4,0.2-0.8,0.2-1.2,0
		l-9.5-5.5c-0.4-0.2-0.6-0.6-0.6-1v-11c0-0.4,0.2-0.8,0.6-1l9.5-5.5c0.4-0.2,0.8-0.2,1.2,0L66,35c0.3,0.2,0.6,0,0.6-0.3V20.1
		c0-0.4,0.5-0.7,0.9-0.5l5.7,3.2c0.4,0.2,0.6,0.6,0.6,1V51.2z M66.4,43.6l-3.3-1.9c-0.1,0-0.2,0-0.3,0l-3.3,1.9
		c-0.1,0-0.1,0.1-0.1,0.2v3.8c0,0.1,0.1,0.2,0.1,0.2l3.3,1.9c0.1,0,0.2,0,0.3,0l3.3-1.9c0.1,0,0.1-0.1,0.1-0.2v-3.8h0
		C66.6,43.7,66.5,43.6,66.4,43.6z M63.4,64.2c-0.9,0-1.7-0.8-1.7-1.7c0-1,0.8-1.7,1.7-1.7c0.9,0,1.7,0.7,1.7,1.7
		C65.2,63.4,64.4,64.2,63.4,64.2z M63.4,61c-0.8,0-1.4,0.6-1.4,1.4c0,0.8,0.7,1.5,1.4,1.5c0.8,0,1.5-0.7,1.5-1.5
		C64.9,61.7,64.2,61,63.4,61z M63.8,63.4c0-0.1-0.1-0.6-0.1-0.6c0-0.1-0.1-0.2-0.2-0.2h-0.3v0.8h-0.4v-1.9h0.7c0.2,0,0.7,0,0.7,0.5
		c0,0.4-0.2,0.4-0.4,0.5c0.3,0,0.3,0.2,0.3,0.4c0,0.2,0,0.4,0.1,0.5H63.8z M63.5,61.8h-0.3v0.5h0.3c0.2,0,0.3-0.2,0.3-0.3
		C63.8,61.8,63.6,61.8,63.5,61.8z M93.5,47c-0.4,0.2-0.9-0.1-0.9-0.5v-2.7c0-0.2-0.1-0.4-0.3-0.5l-3-1.7c-0.2-0.1-0.4-0.1-0.6,0
		l-3,1.7c-0.2,0.1-0.3,0.3-0.3,0.5v3.5c0,0.2,0.1,0.4,0.3,0.5l9.6,5.5c0.4,0.2,0.4,0.8,0,1l-5.7,3.2c-0.4,0.2-0.8,0.2-1.1,0
		l-9.5-5.4c-0.4-0.2-0.6-0.6-0.6-1V40c0-0.4,0.2-0.8,0.6-1l9.5-5.5c0.4-0.2,0.8-0.2,1.2,0l9.5,5.5c0.4,0.2,0.6,0.6,0.6,1v2.7
		c0,0.4-0.2,0.8-0.6,1L93.5,47z M89,43.2c0.1,0,0.2,0,0.2,0l1.8,1.1c0.1,0,0.1,0.1,0.1,0.2v2.1c0,0.1,0,0.1-0.1,0.2l-1.8,1.1
		c-0.1,0-0.2,0-0.2,0l-1.8-1.1c-0.1,0-0.1-0.1-0.1-0.2v-2.1c0-0.1,0-0.1,0.1-0.2L89,43.2z"/>
</g>
</svg>
