<?xml version="1.0" encoding="utf-8"?>
<!-- Generator: Adobe Illustrator 23.0.2, SVG Export Plug-In . SVG Version: 6.00 Build 0)  -->
<svg version="1.1" id="Capa_1" xmlns="http://www.w3.org/2000/svg" xmlns:xlink="http://www.w3.org/1999/xlink" x="0px" y="0px"
	 viewBox="0 0 100 100" style="enable-background:new 0 0 100 100;" xml:space="preserve">
<g>
	<path d="M100,50c0,14.5-22.4,26.3-50,26.3S0,64.5,0,50s22.4-26.3,50-26.3S100,35.5,100,50z M2.6,50c0,12.4,20.6,23.7,47.4,23.7
		c26.8,0,47.4-11.3,47.4-23.7S76.8,26.3,50,26.3C23.2,26.3,2.6,37.6,2.6,50z M20.3,38.4h11c3.3,0,5.8,0.9,7.3,2.6
		c2.9,3.3,1.8,10-2.2,13.8c-3.7,3.5-7.7,3-14.1,3l-1.4,7h-5.7L20.3,38.4z M25.3,42.5l-2.1,11c5.4,0,9.7,0.7,11-5.7
		C35.3,41.9,31.2,42.5,25.3,42.5z M49.9,31.4l-1.4,7c4.9,0,9.5-0.4,11.7,1.7c2.3,2.1,1.2,4.8-1.3,17.7h-5.8
		c2.4-12.4,2.9-13.4,2-14.4c-0.8-0.9-2.8-0.7-7.4-0.7l-2.9,15.1h-5.7l5.1-26.3H49.9z M65.2,38.4h11c3.3,0,5.7,0.9,7.3,2.6
		c2.9,3.3,1.8,10-2.2,13.8c-3.6,3.4-7.3,3-14.1,3l-1.4,7H60L65.2,38.4z M70.1,42.5l-2.1,11c5.2,0,9.7,0.8,11-5.7
		C80.1,41.9,76.1,42.5,70.1,42.5z"/>
</g>
</svg>
