<?xml version="1.0" encoding="utf-8"?>
<!-- Generator: Adobe Illustrator 23.0.2, SVG Export Plug-In . SVG Version: 6.00 Build 0)  -->
<svg version="1.1" id="Capa_1" xmlns="http://www.w3.org/2000/svg" xmlns:xlink="http://www.w3.org/1999/xlink" x="0px" y="0px"
	 viewBox="0 0 100 100" style="enable-background:new 0 0 100 100;" xml:space="preserve">
<style type="text/css">
	path { fill: #FFF; color: #FFF; }
</style>
<g>
	<path d="M100,49.9c0,6.2-8.2,12.2-19.4,16c-0.6,0.2-1.2,0.4-1.8,0.6c0.2,0.9,0.4,1.8,0.6,2.6c2.2,11.2,0.5,20.5-4.8,23.5
		c-5.1,2.9-13.4,0-21.7-7.1c-0.9-0.8-1.8-1.6-2.7-2.4c-0.7,0.7-1.4,1.3-2.1,1.9c-8.6,7.6-17.5,10.7-22.8,7.6
		c-5.1-3-6.7-11.5-4.7-22.4c0.2-1.2,0.5-2.3,0.8-3.5c-0.9-0.3-1.8-0.5-2.7-0.8C8,62.1,0,56,0,49.9C0,44,7.5,38.3,17.9,34.7
		c1.2-0.4,2.4-0.8,3.6-1.2c-0.3-1.1-0.5-2.2-0.7-3.3c-2.1-11-0.6-19.8,4.5-22.8c5.3-3.1,14.2,0.2,23.1,8.1c0.5,0.5,1.1,1,1.6,1.5
		c0.8-0.8,1.6-1.5,2.4-2.2c8.5-7.4,16.9-10.4,22-7.5c5.3,3.1,6.9,12.4,4.5,24.1c-0.2,0.7-0.3,1.4-0.5,2.2c1.1,0.3,2.1,0.6,3.2,1
		C92.3,38.3,100,44,100,49.9z M27.4,50c-1.9-4-3.5-8.2-4.8-12.4c-1.1,0.3-2.3,0.7-3.4,1.1c-8.9,3.1-15.1,7.7-15.1,11.3
		c0.4,2.4,1.7,4.5,3.7,5.8c3.4,2.7,8.1,4.8,12.3,6.1c0.8,0.3,1.6,0.5,2.4,0.8C23.9,58.3,25.6,54.1,27.4,50z M47.2,80
		c-3-3.3-5.9-6.8-8.4-10.4c-4.5-0.3-8.9-1-13.3-1.9c-0.3,1.1-0.5,2.2-0.7,3.3c-1.8,9.3-0.5,16.2,2.6,18c2.2,0.9,4.7,0.8,6.9-0.3
		c4.1-1.6,7.8-3.9,11-6.9C46,81.2,46.6,80.6,47.2,80z M24.9,29.5c0.2,1,0.4,2,0.7,3c4.3-1,8.7-1.6,13.1-2c2.6-3.6,5.4-7.1,8.4-10.4
		c-0.5-0.5-1-0.9-1.5-1.4c-7.7-6.8-15-9.5-18.2-7.6C24.3,12.9,23.1,20,24.9,29.5z M29.9,55c-1.2,3-2.3,5.9-3.2,8.7
		c3,0.6,6,1.1,9.1,1.5c-1.1-1.7-2.1-3.4-3.1-5.1C31.7,58.4,30.8,56.7,29.9,55z M29.9,45.1c0.9-1.7,1.8-3.4,2.8-5.1c1-1.7,2-3.3,3-5
		c-3.1,0.4-6.1,0.9-8.9,1.5C27.6,39.3,28.6,42.2,29.9,45.1z M36.3,57.9c1.5,2.6,3.1,5.1,4.8,7.6c2.9,0.2,5.8,0.3,8.9,0.3
		s6.1-0.1,9-0.3c1.7-2.5,3.2-5,4.7-7.6c1.5-2.6,2.9-5.3,4.2-8c-1.3-2.7-2.7-5.3-4.2-7.9c-1.5-2.6-3.1-5.1-4.7-7.6
		c-2.9-0.2-5.9-0.3-9-0.3s-6,0.1-9,0.3c-1.7,2.5-3.3,5-4.8,7.6c-1.5,2.6-2.9,5.2-4.2,7.9C33.4,52.7,34.8,55.3,36.3,57.9z M41.1,50
		c0-4.9,4-8.9,8.9-8.9s8.9,4,8.9,8.9s-4,8.9-8.9,8.9S41.1,54.9,41.1,50z M44.2,30.1c3.9-0.2,7.8-0.2,11.6,0c-1.8-2.4-3.7-4.8-5.8-7
		C48.1,25.2,46.1,27.6,44.2,30.1z M55.9,69.9C54,70,52,70,50,70c-2,0-3.9,0-5.8-0.1c1.9,2.6,3.9,4.9,5.9,7.1
		C52.2,74.7,54.1,72.4,55.9,69.9z M53,20.1c3,3.3,5.8,6.7,8.3,10.4c4.4,0.4,8.8,1.1,13.1,2.1c0.2-0.6,0.3-1.3,0.4-2
		C77,20.5,75.7,12.9,72.4,11c-3.1-1.8-9.9,0.7-17.1,7C54.5,18.7,53.7,19.4,53,20.1z M75.2,69.9c-0.2-0.8-0.3-1.6-0.5-2.4
		c-4.4,1-8.8,1.7-13.3,2.1c-2.5,3.7-5.3,7.2-8.2,10.5c0.8,0.8,1.7,1.5,2.5,2.2c7.1,6.1,13.8,8.5,16.9,6.7c1.9-1.5,3-3.7,3.2-6.1
		C76.3,78.5,76.2,74.1,75.2,69.9z M64.3,65c3.1-0.3,6.2-0.9,9.2-1.6c-1-3-2.1-5.8-3.3-8.7c-0.9,1.8-1.9,3.5-2.9,5.2
		C66.4,61.7,65.4,63.4,64.3,65z M73.3,36.6c-2.8-0.6-5.8-1.2-9-1.6c1,1.6,2,3.3,3,4.9c1,1.7,1.9,3.4,2.8,5.1
		C71.4,42.3,72.4,39.5,73.3,36.6z M95.8,49.9c0-3.6-6.4-8.2-15.5-11.3c-0.9-0.3-1.9-0.6-2.9-0.9c-1.3,4.2-2.9,8.3-4.8,12.3
		c1.9,4,3.6,8.2,5,12.5c0.6-0.2,1.1-0.3,1.7-0.5C89,58.6,95.8,53.7,95.8,49.9z"/>
</g>
</svg>
