<?xml version="1.0" encoding="utf-8"?>
<!-- Generator: Adobe Illustrator 23.0.2, SVG Export Plug-In . SVG Version: 6.00 Build 0)  -->
<svg version="1.1" id="Capa_1" xmlns="http://www.w3.org/2000/svg" xmlns:xlink="http://www.w3.org/1999/xlink" x="0px" y="0px"
	 viewBox="0 0 100 100" style="enable-background:new 0 0 100 100;" xml:space="preserve">
<style type="text/css">
	.st0{fill:#FFFFFF;}
</style>
<g>
	<g>
		<path class="st0" d="M87,32.7c0,4.6-6.1,9-14.4,11.8c-0.4,0.1-0.9,0.3-1.3,0.4c0.1,0.7,0.3,1.3,0.4,1.9c1.6,8.3,0.4,15.2-3.6,17.4
			c-3.8,2.1-9.9,0-16.1-5.3c-0.7-0.6-1.3-1.2-2-1.8c-0.5,0.5-1,1-1.6,1.4c-6.4,5.6-13,7.9-16.9,5.6c-3.8-2.2-5-8.5-3.5-16.6
			c0.1-0.9,0.4-1.7,0.6-2.6c-0.7-0.2-1.3-0.4-2-0.6C18.9,41.7,13,37.2,13,32.7c0-4.4,5.6-8.6,13.3-11.3c0.9-0.3,1.8-0.6,2.7-0.9
			c-0.2-0.8-0.4-1.6-0.5-2.4C26.8,10,27.9,3.5,31.7,1.2c3.9-2.3,10.5,0.1,17.1,6C49.2,7.6,49.6,8,50,8.4c0.6-0.6,1.2-1.1,1.8-1.6
			C58.1,1.2,64.3-1,68.1,1.2c3.9,2.3,5.1,9.2,3.3,17.8c-0.1,0.5-0.2,1-0.4,1.6c0.8,0.2,1.6,0.4,2.4,0.7C81.3,24.1,87,28.3,87,32.7z
			 M33.3,32.8c-1.4-3-2.6-6.1-3.6-9.2c-0.8,0.2-1.7,0.5-2.5,0.8C20.6,26.7,16,30.1,16,32.8c0.3,1.8,1.3,3.3,2.7,4.3
			c2.5,2,6,3.6,9.1,4.5c0.6,0.2,1.2,0.4,1.8,0.6C30.7,38.9,31.9,35.8,33.3,32.8z M47.9,55c-2.2-2.4-4.4-5-6.2-7.7
			c-3.3-0.2-6.6-0.7-9.8-1.4c-0.2,0.8-0.4,1.6-0.5,2.4c-1.3,6.9-0.4,12,1.9,13.3c1.6,0.7,3.5,0.6,5.1-0.2c3-1.2,5.8-2.9,8.1-5.1
			C47,55.9,47.5,55.4,47.9,55z M31.4,17.6c0.1,0.7,0.3,1.5,0.5,2.2c3.2-0.7,6.4-1.2,9.7-1.5c1.9-2.7,4-5.3,6.2-7.7
			c-0.4-0.4-0.7-0.7-1.1-1c-5.7-5-11.1-7-13.5-5.6C31,5.3,30.1,10.6,31.4,17.6z M35.1,36.5c-0.9,2.2-1.7,4.4-2.4,6.4
			c2.2,0.4,4.4,0.8,6.7,1.1c-0.8-1.3-1.6-2.5-2.3-3.8C36.5,39,35.8,37.7,35.1,36.5z M35.1,29.2c0.7-1.3,1.3-2.5,2.1-3.8
			c0.7-1.3,1.5-2.4,2.2-3.7c-2.3,0.3-4.5,0.7-6.6,1.1C33.4,24.9,34.2,27,35.1,29.2z M39.9,38.6c1.1,1.9,2.3,3.8,3.6,5.6
			c2.1,0.1,4.3,0.2,6.6,0.2s4.5-0.1,6.7-0.2c1.3-1.9,2.4-3.7,3.5-5.6c1.1-1.9,2.1-3.9,3.1-5.9c-1-2-2-3.9-3.1-5.8
			c-1.1-1.9-2.3-3.8-3.5-5.6C54.5,21.1,52.3,21,50,21s-4.4,0.1-6.7,0.2c-1.3,1.9-2.4,3.7-3.6,5.6s-2.1,3.8-3.1,5.8
			C37.7,34.8,38.7,36.7,39.9,38.6z M43.4,32.8c0-3.6,3-6.6,6.6-6.6s6.6,3,6.6,6.6c0,3.6-3,6.6-6.6,6.6S43.4,36.4,43.4,32.8z
			 M45.7,18.1c2.9-0.1,5.8-0.1,8.6,0c-1.3-1.8-2.7-3.6-4.3-5.2C48.6,14.4,47.1,16.2,45.7,18.1z M54.4,47.5c-1.4,0.1-2.9,0.1-4.4,0.1
			s-2.9,0-4.3-0.1c1.4,1.9,2.9,3.6,4.4,5.3C51.6,51.1,53,49.4,54.4,47.5z M52.2,10.6c2.2,2.4,4.3,5,6.1,7.7c3.3,0.3,6.5,0.8,9.7,1.6
			c0.1-0.4,0.2-1,0.3-1.5C70,10.9,69,5.3,66.6,3.9c-2.3-1.3-7.3,0.5-12.7,5.2C53.3,9.6,52.7,10.1,52.2,10.6z M68.7,47.5
			c-0.1-0.6-0.2-1.2-0.4-1.8c-3.3,0.7-6.5,1.3-9.8,1.6c-1.9,2.7-3.9,5.3-6.1,7.8c0.6,0.6,1.3,1.1,1.9,1.6c5.3,4.5,10.2,6.3,12.5,5
			c1.4-1.1,2.2-2.7,2.4-4.5C69.5,53.9,69.4,50.6,68.7,47.5z M60.6,43.9c2.3-0.2,4.6-0.7,6.8-1.2c-0.7-2.2-1.6-4.3-2.4-6.4
			c-0.7,1.3-1.4,2.6-2.1,3.8C62.1,41.4,61.4,42.7,60.6,43.9z M67.3,22.9c-2.1-0.4-4.3-0.9-6.7-1.2c0.7,1.2,1.5,2.4,2.2,3.6
			c0.7,1.3,1.4,2.5,2.1,3.8C65.8,27.1,66.6,25,67.3,22.9z M83.9,32.7c0-2.7-4.7-6.1-11.5-8.4c-0.7-0.2-1.4-0.4-2.1-0.7
			c-1,3.1-2.1,6.1-3.6,9.1c1.4,3,2.7,6.1,3.7,9.3c0.4-0.1,0.8-0.2,1.3-0.4C78.9,39.2,83.9,35.5,83.9,32.7z"/>
	</g>
	<g>
		<path class="st0" d="M3.1,78.3c0.1,0,0.2,0,0.3,0.1c0.1,0,0.2,0.1,0.3,0.2c0.1,0.1,0.2,0.2,0.3,0.3l10.9,14.3c0-0.3-0.1-0.7-0.1-1
			c0-0.3,0-0.6,0-0.9v-13h3.4v21.3h-2c-0.3,0-0.6,0-0.8-0.1c-0.2-0.1-0.4-0.3-0.6-0.5L4,84.7C4,85.1,4,85.4,4,85.7
			c0,0.3,0,0.6,0,0.8v13.1H0.7V78.3h2C2.8,78.3,3,78.3,3.1,78.3z"/>
		<path class="st0" d="M40.5,99.6h-3c-0.3,0-0.6-0.1-0.8-0.3c-0.2-0.2-0.4-0.4-0.5-0.6l-1.5-4.4h-8.6l-1.5,4.4
			c-0.1,0.2-0.2,0.4-0.5,0.6c-0.2,0.2-0.5,0.3-0.8,0.3h-3l8.1-21.3h3.9L40.5,99.6z M27.1,91.6h6.6l-2.5-7.1
			c-0.1-0.3-0.2-0.7-0.4-1.1c-0.1-0.4-0.3-0.9-0.4-1.4c-0.1,0.5-0.3,1-0.4,1.4c-0.1,0.4-0.3,0.8-0.4,1.1L27.1,91.6z"/>
		<path class="st0" d="M55.2,78.3v3.3h-6.2v18.1h-3.9V81.6h-6.3v-3.3H55.2z"/>
		<path class="st0" d="M62,99.6h-3.9V78.3H62V99.6z"/>
		<path class="st0" d="M64.6,78.3h3.1c0.3,0,0.6,0.1,0.8,0.3c0.2,0.2,0.4,0.4,0.5,0.6l4.9,13c0.2,0.4,0.3,0.9,0.5,1.4
			c0.1,0.5,0.3,1,0.4,1.6c0.2-1.1,0.5-2.1,0.8-3l4.9-13c0.1-0.2,0.2-0.4,0.5-0.6c0.2-0.2,0.5-0.3,0.8-0.3h3.1l-8.4,21.3H73
			L64.6,78.3z"/>
		<path class="st0" d="M100.1,78.3v3.2h-9.2v5.9h7.2v3.1h-7.2v6h9.2v3.2H87V78.3H100.1z"/>
	</g>
</g>
</svg>
