<?xml version="1.0" encoding="utf-8"?>
<!-- Generator: Adobe Illustrator 23.0.2, SVG Export Plug-In . SVG Version: 6.00 Build 0)  -->
<svg version="1.1" id="Capa_1" xmlns="http://www.w3.org/2000/svg" xmlns:xlink="http://www.w3.org/1999/xlink" x="0px" y="0px"
	 viewBox="0 0 100 100" style="enable-background:new 0 0 100 100;" xml:space="preserve">
<g>
	<path d="M92.3,77.1L51.8,100V82.1L77,68.3L92.3,77.1z M95.1,74.6V26.6l-14.8,8.6V66L95.1,74.6L95.1,74.6z M7.7,77.1L48.2,100V82.1
		L23,68.3L7.7,77.1z M4.9,74.6V26.6l14.8,8.6V66L4.9,74.6z M6.7,23.5L48.2,0v17.3L21.6,31.9L21.4,32L6.7,23.5z M93.3,23.5L51.8,0
		v17.3l26.6,14.6l0.2,0.1L93.3,23.5L93.3,23.5z"/>
	<path d="M48.2,78.1L23.3,64.4V37.2l24.9,14.3V78.1z M51.8,78.1l24.9-13.7V37.2L51.8,51.6V78.1z M25,34.1l25-13.8l25,13.8L50,48.5
		L25,34.1z"/>
</g>
</svg>
