<?xml version="1.0" encoding="utf-8"?>
<!-- Generator: Adobe Illustrator 23.0.2, SVG Export Plug-In . SVG Version: 6.00 Build 0)  -->
<svg version="1.1" id="Capa_1" xmlns="http://www.w3.org/2000/svg" xmlns:xlink="http://www.w3.org/1999/xlink" x="0px" y="0px"
	 viewBox="0 0 100 100" style="enable-background:new 0 0 100 100;" xml:space="preserve">
<style type="text/css">
	path { fill: #FFF; color: #FFF; }
</style>
<g>
	<path d="M100,83.3c0,9.2-7.5,16.6-16.7,16.7H16.7C7.5,100,0,92.5,0,83.3V16.7C0,7.5,7.5,0,16.7,0h66.7C92.5,0,100,7.5,100,16.7
		V83.3z M64.5,48.8v-0.2c5.1-2.2,8.3-6.3,8.3-12.4c0-1.6,0.4-14.5-17.3-14.5H27.2v58.3c28.6,0,31.2,0.4,36.5-1.3
		c3.2-1,11.8-4,11.8-15C75.5,59,74,50.8,64.5,48.8z M37.4,46.2V30.1h16.7c7.8,0,8.6,4.5,8.6,8c0,8.3-8.4,8.1-8.6,8.1H37.4z
		 M55.4,71.7H37.4V53.5h18.1c9.5,0,9.8,7.1,9.8,9C65.2,71.9,56.4,71.7,55.4,71.7z"/>
</g>
</svg>
