<?xml version="1.0" encoding="utf-8"?>
<!-- Generator: Adobe Illustrator 23.0.2, SVG Export Plug-In . SVG Version: 6.00 Build 0)  -->
<svg version="1.1" id="Capa_1" xmlns="http://www.w3.org/2000/svg" xmlns:xlink="http://www.w3.org/1999/xlink" x="0px" y="0px"
	 viewBox="0 0 100 100" style="enable-background:new 0 0 100 100;" xml:space="preserve">
<style type="text/css">
	path { fill: #FFF; color: #FFF; }
</style>
<g>
	<path d="M27.4,25.2c0-1.7,10.1-3.1,22.6-3.1c1.8,0,3.5,0,5.1,0.1l2.5-9.5l12-12.6c0.3-0.3,1.1,0,1.9,0.7c0.8,0.7,1.3,1.5,1,1.8l0,0
		L61.3,14.4l-2,8c7.8,0.5,13.2,1.6,13.2,2.8C72.6,29.3,27.4,29.3,27.4,25.2z M72.3,26.9l-2.9,26.7c-0.9,0.8-2.3,2-3.2,2.8
		c-0.3,0.2-1.2,0.9-1.6,0.9c-0.3,0-0.4-0.1-0.4-0.4c0-0.2,0.7-0.9,1-1.2c1-1.1,2.7-3.1,2.7-4.6c0-1.4-2.1-2.8-5,0
		c-0.3,0.3-0.6,0.6-0.9,0.9c0.1-0.2,0.2-1,0.2-1.2c0-0.5-0.3-0.8-0.8-0.8c-0.2,0-0.4,0.1-0.5,0.3c-0.5,0.6-0.8,1.5-1,2.2
		c-0.1,0.3-0.2,0.7-0.3,1.1c-0.1,0-0.1,0.1-0.2,0.1c-0.7,0.8-3.5,3.3-4.5,3.3c-0.4,0-0.3-0.7-0.2-1.1c0.2-0.7,1.3-3.5,1.7-4.4
		c0.9-2.2,1.6-3.9,2.6-6.2c0.8-1.8,0.7-1.7,0.9-2.1c0.1-0.4,0.1-1-0.2-1.2c-0.2-0.1-0.4-0.2-0.6-0.2c-0.5,0-0.9,0.3-1.2,0.9
		c-5,12.6-4.9,12.4-5.2,13.3c-0.4,0.3-0.9,0.7-1.3,0.9c-0.6,0.3-1.3,0.4-1.3-0.2c0-0.7,0.3-1.6,0.5-2.3c0.4-1.2,1-2.2,1.4-3.3
		c0.2-0.5,0.3-0.9-0.1-1.4c-0.2-0.2-0.4-0.3-0.6-0.3c-0.5,0-0.8,0.5-1,1c-0.1,0.3-0.3,0.6-0.3,0.9c-0.2,0.8-0.7,1.7-1.1,2.4
		c-0.5,1-1.3,2-2.2,2.6c-0.4,0.3-0.9,0.5-1.4,0.5c-0.7,0-0.5-1.1-0.3-1.8c0.4-1.5,1.1-2.6,1.8-4.1c0.3-0.5,0.5-1.1-0.1-1.4
		c-0.1-0.1-0.2-0.1-0.3-0.1c-0.7-0.2-1.2,0.2-1.5,0.9c-0.6,1.2-1,2.3-1.4,3.2c-0.6,1.7-1.4,3.6-0.9,4.7c0.3,0.7,0.9,1,1.7,1
		c1.9,0,3.5-1.3,4.4-2.9c-0.8,3.9,1.6,3.4,3.9,1.6c0,0.1,0,0.2,0,0.2c0.3,1.3,1.7,1.3,2.8,0.8c0.7-0.3,1.6-0.9,2.8-2.1
		c0-0.1,0.2-0.3-0.2,0.5c-1.4,3.2-2.6,5.5-2.9,6.7c0,0.2-0.1,0.4-0.1,0.5c0,0.3,0.1,0.6,0.3,0.7c0.3,0.2,0.8,0.3,1.2,0.1
		c0.3-0.2,0.6-0.5,0.8-0.9c0.2-0.4,0-0.1,1-2.7c1-2.6,0.6-1.5,1.8-4.3c0.4-0.8,0.8-1.9,1.7-3c0.5-0.7,1.1-1.4,1.7-1.9
		c1.1-0.9,2.3-1.1,2.3-0.5c0,0.4-0.6,1.2-0.9,1.6c-1,1.3-2.8,3.2-2.8,4.2c0,1.9,2.3,1.6,3.4,1.1c1.4-0.6,2.7-1.9,3.8-2.9L67,74.5
		c-0.4,1-7.6,3.3-17.2,3.3c-9.6,0-16.8-2.4-17.2-3.3L31.1,59c0.4,0.3,0.8,0.5,1.5,0.5c1.4,0,3.1-1.3,4.2-2.3
		c0.4-0.4,0.9-0.9,1.2-1.3c-0.2,0.6-1.4,4.3-1.4,4.9c0,0.2,0,1,0.2,1.2c0.1,0.2,0.3,0.2,0.5,0.2c0.6,0,1.1-0.9,1.2-1.5
		c0,0,0.3-1.2,1.5-5c1.2-4.1,2-4.8,2-6.8c0-1.1-1.4-1.3-1.9,0l-1,3c-0.4,0.9-1.6,2.2-2.4,3.1c-0.7,0.7-2.1,2-3.1,2
		c-0.5,0-0.8-0.3-1-0.7c-0.4-1-0.2-2.8,0.1-3.9c0.5-1.9,1.3-3.8,2.3-5.5c0.8-1.4,2-3.1,3.3-4c1.3-0.9,2.5-0.9,3.3,0.5
		c0.3,0.5,0.7,1.4,1.3,1.4c0.5,0,1.1-0.5,0.9-1.8c-0.1-0.5-1-1.7-2-2.3c-1.2-0.7-2.4-0.7-3.6-0.2c-3.8,1.6-6.7,6.9-7.8,10.8
		l-2.7-24.5C33.7,30.2,66.3,30.2,72.3,26.9z M63.2,81.2l-0.9,15.7c0,1.7-5.5,3.1-12.3,3.1s-12.3-1.4-12.3-3.1l-1.1-15.5l-2.9-5
		c8,3.4,24.6,3.3,32.3,0L63.2,81.2z M58.5,25.7l0,0.2c0,0.3-1,0.5-2.2,0.5c-1.2,0-2.2-0.2-2.2-0.5c0,0,0,0,0-0.1l0-0.1
		c-0.3,0.1-0.6,0.3-0.6,0.4c0,0.4,1.2,0.7,2.7,0.7c1.5,0,2.7-0.3,2.7-0.7C59,26,58.8,25.9,58.5,25.7z"/>
</g>
</svg>
