<?xml version="1.0" encoding="utf-8"?>
<!-- Generator: Adobe Illustrator 23.0.2, SVG Export Plug-In . SVG Version: 6.00 Build 0)  -->
<svg version="1.1" id="Capa_1" xmlns="http://www.w3.org/2000/svg" xmlns:xlink="http://www.w3.org/1999/xlink" x="0px" y="0px"
	 viewBox="0 0 100 100" style="enable-background:new 0 0 100 100;" xml:space="preserve">
<g>
	<path fill="#FFF" d="M100,0v100H0V0H100z M54.4,45.9H45v31.9c0,4.7-2,5.9-5,5.9c-3.2,0-4.6-2.2-6-4.8l-7.7,4.6c2.2,4.7,6.6,8.6,14.1,8.6
		c8.3,0,14-4.4,14-14.2V45.9z M92.2,79.1c0-7.9-4.5-11.4-12.5-14.8l-2.3-1c-4-1.8-5.8-2.9-5.8-5.7c0-2.3,1.7-4,4.5-4
		c2.7,0,4.4,1.1,6,4l7.3-4.7c-3.1-5.4-7.4-7.5-13.3-7.5c-8.4,0-13.7,5.4-13.7,12.4c0,7.7,4.5,11.3,11.3,14.2l2.3,1
		c4.3,1.9,6.9,3,6.9,6.2c0,2.7-2.5,4.6-6.4,4.6c-4.6,0-7.3-2.4-9.3-5.7l-7.7,4.4c2.7,5.4,8.4,9.6,17.1,9.6
		C85.5,92.2,92.2,87.5,92.2,79.1z"/>
</g>
</svg>
