<?xml version="1.0" encoding="utf-8"?>
<!-- Generator: Adobe Illustrator 23.0.2, SVG Export Plug-In . SVG Version: 6.00 Build 0)  -->
<svg version="1.1" id="Capa_1" xmlns="http://www.w3.org/2000/svg" xmlns:xlink="http://www.w3.org/1999/xlink" x="0px" y="0px"
	 viewBox="0 0 100 100" style="enable-background:new 0 0 100 100;" xml:space="preserve">
<style type="text/css">
	path { fill: #FFF; color: #FFF; }
</style>
<path id="surface1" d="M62.3,23c-0.9,0-1.8,0.3-2.2,1.4c-0.7,1.7,1.1,3.4,1.7,4.3c0.4,0.6,1,1.3,1.3,2c0.2,0.5,0.2,0.9,0.4,1.4
	c0.4,1.2,1.2,2.6,1.7,3.7c0.3,0.6,0.6,1.1,1,1.6c0.2,0.3,0.6,0.4,0.7,0.9c-0.4,0.5-0.4,1.4-0.6,2c-1,3-0.6,6.7,0.8,9
	c0.4,0.7,1.4,2.1,2.8,1.6c1.2-0.5,0.9-2,1.3-3.4c0.1-0.3,0-0.5,0.2-0.7v0.1c0.4,0.7,0.7,1.5,1.1,2.2c0.8,1.3,2.3,2.7,3.5,3.6
	c0.6,0.5,1.1,1.3,2,1.6v-0.1h-0.1c-0.2-0.3-0.4-0.4-0.6-0.5c-0.5-0.5-1-1-1.4-1.6c-1.1-1.5-2.1-3.2-3-4.9c-0.4-0.8-0.8-1.7-1.2-2.6
	c-0.1-0.3-0.1-0.8-0.4-1c-0.4,0.6-1,1.1-1.3,1.8c-0.5,1.2-0.6,2.6-0.7,4c-0.1,0-0.1,0-0.1,0.1c-0.8-0.2-1.2-1.1-1.5-1.8
	c-0.8-1.9-1-5-0.2-7.1c0.2-0.6,1-2.4,0.7-2.9c-0.2-0.5-0.7-0.8-1-1.2c-0.4-0.5-0.7-1.1-1-1.7c-0.7-1.5-1.3-3.2-2-4.7
	c-0.3-0.7-0.9-1.4-1.3-2.1c-0.5-0.7-1.1-1.2-1.5-2.1c-0.1-0.3-0.3-0.8-0.1-1.1c0.1-0.2,0.2-0.3,0.4-0.4c0.4-0.3,1.3,0.1,1.7,0.2
	c1,0.4,1.8,0.8,2.6,1.3c0.4,0.3,0.8,0.8,1.3,0.9h0.5c0.9,0.2,1.8,0.1,2.6,0.3c1.4,0.4,2.7,1.1,3.8,1.8c3.6,2.3,6.4,5.4,8.4,9.2
	c0.3,0.6,0.5,1.2,0.7,1.8c0.6,1.3,1.3,2.6,1.8,3.9c0.6,1.3,1.1,2.5,1.9,3.6c0.4,0.6,2,0.9,2.7,1.2c0.5,0.2,1.4,0.4,1.8,0.7
	c0.9,0.6,1.8,1.2,2.7,1.8c0.4,0.3,1.8,1,1.8,1.5c-2.1-0.1-3.8,0.1-5.2,0.7c-0.4,0.2-1,0.2-1.1,0.7c0.2,0.2,0.2,0.6,0.4,0.9
	c0.3,0.5,0.9,1.3,1.4,1.6c0.6,0.4,1.1,0.9,1.7,1.2c1,0.6,2.2,1,3.2,1.6c0.6,0.4,1.2,0.9,1.8,1.3c0.3,0.2,0.5,0.5,0.9,0.7v-0.1
	c-0.2-0.3-0.2-0.6-0.4-0.9l-0.8-0.8c-0.8-1-1.7-1.9-2.8-2.7c-0.8-0.6-2.7-1.4-3-2.4l-0.1-0.1c0.6-0.1,1.3-0.3,1.8-0.4
	c0.9-0.2,1.7-0.2,2.7-0.4c0.4-0.1,0.9-0.2,1.3-0.4v-0.2c-0.5-0.5-0.8-1.1-1.3-1.6c-1.4-1.2-2.9-2.3-4.4-3.3
	c-0.8-0.5-1.9-0.9-2.8-1.3c-0.3-0.2-0.8-0.2-1-0.5c-0.5-0.6-0.7-1.4-1.1-2.1c-0.8-1.5-1.5-3.1-2.2-4.6c-0.5-1.1-0.8-2.1-1.3-3.1
	c-2.8-4.6-5.8-7.3-10.4-10c-1-0.6-2.2-0.8-3.4-1.1c-0.7,0-1.3-0.1-2-0.1c-0.4-0.2-0.8-0.7-1.2-0.9C65.8,24.1,63.9,23,62.3,23z
	 M69,29.6c-0.4,0-0.7,0-1.1,0.1v0.1h0.1c0.2,0.4,0.6,0.7,0.9,1.1l0.6,1.3l0.1-0.1c0.4-0.3,0.6-0.7,0.6-1.3c-0.2-0.2-0.2-0.4-0.3-0.5
	C69.5,30,69.2,29.8,69,29.6L69,29.6z M3.7,55c-0.6,0-1.3,0.1-2,0.4C0.6,55.7,0,56.4,0,57.9V73h4V58.2l5.6,12.6
	c0.7,1.6,1.6,2.1,3.5,2.1c1.8,0,2.7-0.6,3.4-2.1L22,58.6V73h4V57.9c0-1.4-0.6-2.2-1.8-2.5c-2.8-0.9-4.8-0.1-5.6,1.8L12.9,70
	L7.4,57.2C6.8,55.7,5.5,54.9,3.7,55L3.7,55z M52.5,55c-1.6,0-6.5,0.2-6.5,4v2.5c0,1.7,1.5,3.2,4.9,3.5c0.4,0,0.7,0.1,1.1,0.1
	c0,0,3.9-0.1,4-0.1c2.2,0,2,1.7,2,2v2c0,0.3-0.1,2-2,2H46v2h10c1.3,0,2.6-0.3,3.6-0.7c1.7-0.8,2.4-1.8,2.4-3.2v-2.9
	c0-3.1-3.8-3.2-6-3.2h-4c-1.6,0-1.8-1-2-2v-2c0.2-0.8,0.5-1.9,1.9-2H62v-2L52.5,55z M68,55c-3,0.4-4,1.9-4,4v10
	c0,1.9,1.1,3.1,3.3,3.7c0.8,0.2,1.4,0.3,2.1,0.3l4.5,0h2.6l2.2,2h4.5l-3.1-2.8c1.5-0.6,1.9-1.5,1.9-3.2V59c0-2.1-1.4-3.6-4.3-4
	L68,55z M84,55v13.9c0,2.4,1.4,3.8,5,4c0.3,0,0.7,0,1,0h10v-2h-9.2c-2.1,0-2.8-0.9-2.8-2.1V55H84z M70.3,57h5.1c1.4,0,2.3,1.1,2.5,2
	c0,0,0,9.3,0,10s-0.4,1-0.4,1l-1.1-1H72l2.2,2h-3.9c-1.4,0-2.2-1-2.4-2v-9.8C68,58.1,68.8,57,70.3,57z M28,61c0.1,0.1,0,8.5,0,8.7
	c0,1.7,2.2,3.3,5.7,3.3H40v0.1c0,0.4,0.3,1.6-2,1.9H28v2h10.4c1.8-0.1,5.6-0.5,5.6-3.5c0-0.1,0-12.5,0-12.5h-4v10c-0.1,0-5,0-5.9,0
	c-1.9,0-2.1-1.1-2.1-1.6V61H28z"/>
</svg>
