<?xml version="1.0" encoding="utf-8"?>
<!-- Generator: Adobe Illustrator 23.0.2, SVG Export Plug-In . SVG Version: 6.00 Build 0)  -->
<svg version="1.1" id="Capa_1" xmlns="http://www.w3.org/2000/svg" xmlns:xlink="http://www.w3.org/1999/xlink" x="0px" y="0px"
	 viewBox="0 0 100 100" style="enable-background:new 0 0 100 100;" xml:space="preserve">
<style type="text/css">
	path { fill: #FFF; color: #FFF; }
</style>
<g>
	<path d="M50,100C22.4,100,0,77.6,0,50C0,22.4,22.4,0,50,0c27.6,0,50,22.4,50,50S77.6,100,50,100z M50,2.3C23.7,2.3,2.3,23.7,2.3,50
		S23.7,97.7,50,97.7c26.3,0,47.7-21.4,47.7-47.7S76.3,2.3,50,2.3z M31.3,88.6C17,81.7,7.1,67,7.1,50c0-6.2,1.3-12.1,3.7-17.5
		L31.3,88.6z M75.7,61.7L71.5,76L55.9,29.9c2.6-0.1,4.9-0.4,4.9-0.4c2.3-0.3,2-3.7-0.3-3.5c0,0-7,0.5-11.4,0.5
		c-4.2,0-11.3-0.5-11.3-0.5c-2.3-0.1-2.6,3.4-0.3,3.5c0,0,2.2,0.3,4.5,0.4l6.7,18.3l-9.4,28.1L23.7,29.9c2.6-0.1,4.9-0.4,4.9-0.4
		c2.3-0.3,2-3.7-0.3-3.5c0,0-7,0.5-11.4,0.5c-0.8,0-1.8,0-2.8-0.1C21.8,14.8,35,7.1,50,7.1c11.2,0,21.3,4.3,29,11.3
		c-0.2,0-0.4,0-0.6,0c-4.2,0-7.2,3.7-7.2,7.6c0,3.5,2,6.5,4.2,10.1c1.6,2.9,3.5,6.5,3.5,11.8C79,51.5,77.5,55.8,75.7,61.7z
		 M63.9,89.9c0.1,0.2,0.2,0.4,0.3,0.6C59.8,92,55,92.9,50,92.9c-4.2,0-8.3-0.6-12.1-1.8l12.9-37.4L63.9,89.9z M92.9,50
		c0,15.8-8.6,29.6-21.3,37.1l13.1-37.9c2.5-6.1,3.3-11,3.3-15.4c0-1.6-0.1-3-0.3-4.4C91,35.5,92.9,42.5,92.9,50z"/>
</g>
</svg>
